<svg xmlns="http://www.w3.org/2000/svg" height="1200" width="1600" version="1.1" xmlns:xlink="http://www.w3.org/1999/xlink" xmlns:svgjs="http://svgjs.com/svgjs"><rect fill="#f3ebe9" width="1600" height="1200"></rect><g><path d="M568.92 418.19H533.26V973.37H568.92V418.19Z" fill="#cecece" opacity="1" stroke-width="4" stroke="none"></path><path d="M533.26 505.31C538.62 506.39 544.12 506.92 549.61 506.92 556.18 506.92 562.75 506.12 569.05 504.64V433.74C559.26 437.36 548.68 438.56 538.36 437.22 536.61 436.95 535 436.69 533.26 436.42V505.31Z" fill="#4a4a4a" opacity="0.3" stroke-width="4" stroke="none"></path><path d="M706.17 282.55C691.02 237.51 637.81 214.86 587.41 231.61 571.46 204 543.31 187.25 513.56 191 473.62 196.09 445.6 236.3 448.82 282.41 402.44 293.67 373.22 336.96 383.41 378.92 392.93 417.79 432.74 442.05 475.36 436.55 490.77 462.56 518.25 479.85 549.61 479.85 595.19 479.85 632.58 443.12 636.74 396.48 638.48 395.94 640.22 395.4 641.96 394.87 692.63 377.98 721.31 327.72 706.17 282.55Z" fill="#ffa0dc" opacity="1" stroke-width="4" stroke="none"></path><path d="M623.33 337.63C615.16 383.07 578.16 415.24 538.22 410.42 508.47 406.8 485.28 383.61 476.56 352.91 443.19 355.46 412.63 342.59 393.6 321.01 382.61 338.17 378.32 358.68 383.28 378.92 392.79 417.79 432.6 442.05 475.22 436.55 490.64 462.56 518.12 479.85 549.48 479.85 595.05 479.85 632.45 443.12 636.6 396.48 638.35 395.94 640.09 395.4 641.83 394.87 692.23 377.98 720.91 327.85 706.17 282.95 695.31 314.98 662.2 337.9 623.33 337.63Z" fill="#979797" opacity="0.3" stroke-width="4" stroke="none"></path><path d="M475.22 436.55C486.22 434.41 496.67 430.52 506.05 424.49" stroke="#979797" stroke-width="4" stroke-linecap="round" stroke-linejoin="round" opacity="1" fill="none"></path><path d="M448.82 282.55C449.62 290.99 451.9 299.17 455.79 306.67" stroke="#979797" stroke-width="4" stroke-linecap="round" stroke-linejoin="round" opacity="1" fill="none"></path><path d="M587.28 231.75C568.51 237.11 560.47 248.23 560.47 248.23" stroke="#979797" stroke-width="4" stroke-linecap="round" stroke-linejoin="round" opacity="1" fill="none"></path><path d="M636.6 396.48C639.95 373.96 636.74 362.03 636.74 362.03" stroke="#979797" stroke-width="4" stroke-linecap="round" stroke-linejoin="round" opacity="1" fill="none"></path></g><g><path d="M301.62 541.33H274.03V970.84H301.62V541.33Z" fill="#cecece" opacity="1" stroke-width="4" stroke="none"></path><path d="M274.03 608.73C278.18 609.56 282.43 609.97 286.68 609.97 291.77 609.97 296.85 609.35 301.72 608.21V553.36C294.15 556.15 285.96 557.09 277.97 556.05 276.63 555.84 275.38 555.64 274.03 555.43V608.73Z" fill="#4a4a4a" opacity="0.3" stroke-width="4" stroke="none"></path><path d="M407.8 436.38C396.08 401.54 354.92 384.02 315.93 396.98 303.59 375.62 281.81 362.66 258.79 365.56 227.89 369.5 206.21 400.61 208.7 436.28 172.82 444.99 150.22 478.49 158.1 510.94 165.46 541.02 196.26 559.78 229.24 555.53 241.16 575.65 262.42 589.03 286.68 589.03 321.94 589.03 350.87 560.61 354.09 524.53 355.44 524.11 356.78 523.7 358.13 523.28 397.33 510.22 419.52 471.33 407.8 436.38Z" fill="#ffa0dc" opacity="1" stroke-width="4" stroke="none"></path><path d="M343.72 479C337.39 514.16 308.77 539.04 277.87 535.31 254.85 532.51 236.91 514.57 230.17 490.83 204.35 492.8 180.71 482.84 165.98 466.15 157.48 479.42 154.16 495.28 158 510.94 165.36 541.02 196.16 559.78 229.13 555.53 241.06 575.65 262.32 589.03 286.58 589.03 321.84 589.03 350.77 560.61 353.98 524.53 355.33 524.11 356.68 523.7 358.03 523.28 397.02 510.22 419.21 471.43 407.8 436.7 399.4 461.48 373.79 479.21 343.72 479Z" fill="#979797" opacity="0.3" stroke-width="4" stroke="none"></path><path d="M229.13 555.53C237.64 553.87 245.72 550.87 252.98 546.2" stroke="#979797" stroke-width="4" stroke-linecap="round" stroke-linejoin="round" opacity="1" fill="none"></path><path d="M208.7 436.38C209.33 442.92 211.09 449.24 214.1 455.05" stroke="#979797" stroke-width="4" stroke-linecap="round" stroke-linejoin="round" opacity="1" fill="none"></path><path d="M315.82 397.08C301.31 401.23 295.08 409.84 295.08 409.84" stroke="#979797" stroke-width="4" stroke-linecap="round" stroke-linejoin="round" opacity="1" fill="none"></path><path d="M353.98 524.53C356.58 507.11 354.09 497.88 354.09 497.88" stroke="#979797" stroke-width="4" stroke-linecap="round" stroke-linejoin="round" opacity="1" fill="none"></path></g><g><path d="M748.42 974.51C661.91 743.38 457.2 723.56 410.97 723.56 364.74 723.56 169.93 730.17 56.35 974.51L748.42 974.51Z" fill="#ffa0dc" opacity="1" stroke-width="4" stroke="none"></path></g><g><path d="M522.37 974.18C626.72 732.42 834.01 828.38 834.01 828.38 834.01 828.38 968.16 601.99 1233.21 643.92 1512.24 688.63 1534.13 974.18 1534.13 974.18L522.37 974.18Z" fill="#ffa0dc" opacity="1" stroke-width="4" stroke="none"></path><path d="M834.01 828.38C862.89 843.75 902.02 878.22 919.72 904.77" stroke="#080607" stroke-width="4" stroke-linecap="round" stroke-linejoin="round" opacity="1" fill="none"></path><path d="M1413.02 974.18C1361.78 834.43 1240.67 820.46 1184.77 853.07 1112.57 894.99 1086.95 974.18 1086.95 974.18L1413.02 974.18Z" fill="#d23698" opacity="1" stroke-width="4" stroke="none"></path></g><g><path d="M1159.51 802.9V746.09H1110.53V705.19H1053.73V746.09H545.7V705.19H488.89V746.09H440.15V802.9H488.89V877.45H439.92V934.26H488.89V975.16H545.7V934.26H1053.73V975.16H1110.53V934.26H1159.28V877.45H1110.53V802.9H1159.51ZM1053.73 877.45H545.7V802.9H1053.73V877.45 877.45Z" fill="#9e76dd" opacity="1" stroke-width="4" stroke="none"></path><path d="M1110.53 824.21V802.9H1053.73V812.69L1110.53 824.21Z" fill="#000000" opacity="0.3" stroke-width="4" stroke="none"></path><path d="M1110.53 955.57V934.26H1053.73V944.05L1110.53 955.57Z" fill="#000000" opacity="0.3" stroke-width="4" stroke="none"></path><path d="M545.7 824.21V802.9H488.89V812.69L545.7 824.21Z" fill="#000000" opacity="0.3" stroke-width="4" stroke="none"></path><path d="M545.7 955.57V934.26L489.12 934.83 488.89 944.05 545.7 955.57Z" fill="#000000" opacity="0.3" stroke-width="4" stroke="none"></path><path d="M1110.53 802.9H1053.73" stroke="#000000" stroke-width="4" stroke-linecap="round" stroke-linejoin="round" opacity="1" fill="none"></path><path d="M1110.53 934.26H1053.73" stroke="#000000" stroke-width="4" stroke-linecap="round" stroke-linejoin="round" opacity="1" fill="none"></path><path d="M1110.53 877.22H1053.73" stroke="#000000" stroke-width="4" stroke-linecap="round" stroke-linejoin="round" opacity="1" fill="none"></path><path d="M1110.53 746.09H1053.73" stroke="#000000" stroke-width="4" stroke-linecap="round" stroke-linejoin="round" opacity="1" fill="none"></path><path d="M545.93 802.9H489.12" stroke="#000000" stroke-width="4" stroke-linecap="round" stroke-linejoin="round" opacity="1" fill="none"></path><path d="M545.7 934.26L489.12 934.83" stroke="#000000" stroke-width="4" stroke-linecap="round" stroke-linejoin="round" opacity="1" fill="none"></path><path d="M545.93 877.22H489.12" stroke="#000000" stroke-width="4" stroke-linecap="round" stroke-linejoin="round" opacity="1" fill="none"></path><path d="M545.7 746.09H488.89" stroke="#000000" stroke-width="4" stroke-linecap="round" stroke-linejoin="round" opacity="1" fill="none"></path><path d="M1081.73 779.28C1084.27 779.28 1086.34 777.21 1086.34 774.67 1086.34 772.12 1084.27 770.06 1081.73 770.06 1079.18 770.06 1077.12 772.12 1077.12 774.67 1077.12 777.21 1079.18 779.28 1081.73 779.28Z" fill="#000000" opacity="1" stroke-width="4" stroke="none"></path><path d="M1081.73 910.63C1084.27 910.63 1086.34 908.57 1086.34 906.02 1086.34 903.48 1084.27 901.42 1081.73 901.42 1079.18 901.42 1077.12 903.48 1077.12 906.02 1077.12 908.57 1079.18 910.63 1081.73 910.63Z" fill="#000000" opacity="1" stroke-width="4" stroke="none"></path><path d="M517.12 779.28C519.67 779.28 521.73 777.21 521.73 774.67 521.73 772.12 519.67 770.06 517.12 770.06 514.57 770.06 512.51 772.12 512.51 774.67 512.51 777.21 514.57 779.28 517.12 779.28Z" fill="#000000" opacity="1" stroke-width="4" stroke="none"></path><path d="M517.12 910.63C519.67 910.63 521.73 908.57 521.73 906.02 521.73 903.48 519.67 901.42 517.12 901.42 514.57 901.42 512.51 903.48 512.51 906.02 512.51 908.57 514.57 910.63 517.12 910.63Z" fill="#000000" opacity="1" stroke-width="4" stroke="none"></path></g><g><path d="M1041.89 756.85C1040.84 756.85 1039.78 756.85 1038.73 756.73 1014.48 755.09 995.26 741.97 970.31 708.11L972.07 695.46 1022.68 659.03 1028.65 661.02C1036.27 672.62 1042.24 679.76 1043.41 681.17L1096.25 633.84C1123.78 608.65 1140.77 596.47 1147.92 596.47 1148.74 596.47 1149.44 596.58 1150.14 597.05 1154.36 599.75 1152.13 609 1151.55 610.99 1153.42 610.64 1155.3 610.41 1157.29 610.41 1161.27 610.41 1166.54 611.35 1169 615.8 1171.7 620.84 1169.12 626.69 1168.53 627.75 1169.59 628.57 1175.21 633.61 1168.77 644.15 1169.47 645.09 1173.22 651.53 1165.96 658.21 1166.43 659.26 1168.3 664.42 1162.09 668.99 1158.11 671.8 1153.54 673.55 1149.91 673.55 1147.8 673.67 1145.69 672.85 1144.28 671.21 1143.93 671.68 1143.11 672.85 1142.06 674.49 1117.34 712.1 1079.85 756.85 1041.89 756.85Z" fill="#c65a42" opacity="1" stroke-width="4" stroke="none"></path><path d="M1152.25 620.25C1147.33 626.22 1141.71 633.49 1147.68 639.46 1139.48 648.84 1146.51 653.52 1146.51 653.52 1146.51 653.52 1140.65 658.21 1145.34 665.24 1143.46 666.41 1142.88 668.87 1144.05 670.74 1144.05 670.86 1144.17 670.86 1144.17 670.98" stroke="#000000" stroke-width="4" stroke-linecap="round" stroke-linejoin="round" opacity="1" fill="none"></path><path d="M969.49 706.94C963.16 698.27 956.6 688.78 949.57 678.71 943.25 669.57 936.69 660.08 929.54 650.12 920.17 637.12 917.36 624.94 921.34 613.81 925.79 601.04 938.33 592.13 948.17 586.86 954.61 583.35 961.41 580.53 968.44 578.43 975.93 579.95 1000.18 617.09 1019.52 647.08 1022.33 651.41 1025.02 655.63 1027.6 659.38L1028.65 661.02 970.31 708.11 969.49 706.94Z" fill="#ffc930" opacity="1" stroke-width="4" stroke="none"></path><path d="M939.73 543.98C948.87 537.3 961.64 532.38 970.31 519.15 974.88 512.12 979.33 505.44 983.08 500.75 991.52 490.33 1004.17 484.23 1017.64 484.12 1022.68 484.12 1027.72 485.05 1032.4 486.81 1051.97 494.43 1060.99 496.3 1068.25 515.4 1072.35 526.18 1072.59 535.2 1069.19 544.8 1066.38 552.3 1063.1 559.45 1059.23 566.48 1059.82 567.41 1063.57 573.15 1062.28 576.67 1060.75 581.24 1051.73 582.06 1050.44 582.17 1041.89 596.58 1033.34 603.97 1023.38 605.61 1022.33 605.72 1021.27 605.84 1020.22 605.84 1006.28 605.84 993.51 591.31 991.75 589.32 983.78 600.1 979.1 611.93 974.06 624.47 971.6 630.44 970.08 636.42 966.56 642.86L946.76 659.61 939.73 543.98Z" fill="#c65a42" opacity="1" stroke-width="4" stroke="none"></path><path d="M983.43 574.91L983.67 574.44 983.9 574.91C987.77 583.58 990.58 587.8 991.52 588.97 991.63 589.2 991.63 589.44 991.52 589.67 990.23 591.55 986.01 597.4 982.85 604.2 982.85 604.2 981.09 579.6 983.43 574.91Z" fill="#000000" opacity="0.3" stroke-width="4" stroke="none"></path><path d="M973.24 557.92C953.56 557.92 939.85 544.33 939.73 544.22L939.5 543.98 939.73 543.87C948.75 537.19 958.6 522.19 967.26 509.07 971.83 502.04 976.29 495.36 980.03 490.68 988.47 480.25 1001.12 474.16 1014.59 474.04 1019.63 474.04 1024.67 474.98 1029.36 476.74 1048.92 484.35 1060.87 496.3 1068.13 515.4 1072.12 525.71 1072.7 534.38 1069.66 543.51L1069.54 543.75H1069.07C1068.72 543.75 1059.35 542.23 1052.44 523.95 1047.75 532.15 1042.95 536.37 1038.26 536.37 1030.76 536.37 1025.84 526.18 1024.55 523.13 1024.08 526.41 1021.51 538.12 1010.38 541.17H1010.14L1010.03 540.94C1009.91 540.7 1000.77 520.08 988.82 520.08 986.48 520.08 984.13 520.9 982.26 522.19 968.55 531.33 977.57 556.75 977.69 557.1 977.69 557.1 974.76 557.92 973.24 557.92Z" fill="#231f20" opacity="1" stroke-width="4" stroke="none"></path><path d="M829.73 526.18C821.64 517.04 816.14 511.06 812.86 507.43L726.63 512C723.7 512.59 719.48 513.64 714.56 514.69 695.94 519.03 667.7 525.59 655.87 525.59 652.47 525.59 650.6 525 650.25 523.95 648.26 518.44 653.88 514.93 660.44 510.83 663.95 508.84 667.23 506.38 670.16 503.68 670.63 503.21 670.75 502.74 670.63 502.39 669.81 500.28 660.67 499 650.95 497.82 637.48 496.07 620.72 493.84 615.57 488.22 613.81 486.34 613.11 484.47 613.46 482.71 614.05 479.9 616.86 478.03 617.91 477.44 616.98 476.62 614.05 473.57 614.87 470.41 615.92 466.08 621.19 464.9 622.48 464.67 622.13 463.03 622.6 461.39 623.65 460.1 626.7 456.47 634.67 455.65 640.87 455.65 643.8 455.65 646.26 455.77 647.55 455.88 642.4 452.49 639.59 449.56 639.23 446.98 639 445.92 639.35 444.87 640.05 444.05 640.87 443.35 642.05 443.11 643.1 443.23 647.55 443.23 656.22 445.46 665.36 447.92 669.34 448.97 673.44 450.03 677.31 450.96 688.67 453.42 700.15 454.83 711.64 455.3 734.01 449.67 777.01 440.3 811.92 440.3 824.1 440.3 834.3 441.47 842.14 443.82 853.98 447.33 869.09 456.47 887.01 471.46L887.48 474.28 835.35 527.11 829.73 526.18Z" fill="#c65a42" opacity="1" stroke-width="4" stroke="none"></path><path d="M824.45 603.73C825.16 603.26 825.86 601.62 826.56 601.15 849.53 586.27 864.87 571.87 866.51 570.34 857.49 558.51 845.54 544.1 831.02 527.58L829.73 526.18 887.01 471.46C919.11 498.29 952.27 536.95 956.96 547.97 965.86 569.17 962.93 586.51 960.47 601.86 959.3 608.77 958.24 615.33 958.24 621.89 958.24 637.94 966.21 642.74 966.33 642.74L966.56 642.86 966.44 643.09C959.18 658.68 951.92 671.09 939.38 680.7 928.72 688.9 913.96 693.7 896.15 699.21L892.05 698.27 824.45 603.73Z" fill="#ffc930" opacity="1" stroke-width="4" stroke="none"></path><path d="M946.53 674.37C954.85 665.82 961.06 654.81 966.56 642.86" stroke="#000000" stroke-width="4" stroke-linecap="round" stroke-linejoin="round" opacity="1" fill="none"></path><path d="M620.49 798.56C630.21 782.16 639 764.23 647.55 747.13 654.35 733.42 660.79 720.42 666.41 710.81 693.13 664.53 730.73 647.78 770.45 629.97 778.88 626.22 787.67 622.24 796.22 618.14 806.53 613.1 816.25 607.71 825.98 601.5L826.56 601.15 896.15 699.21C888.54 701.55 878.23 704.72 870.73 707.53 900.6 727.45 920.64 742.91 932.35 752.28L933.52 753.8 854.45 829.37H845.43C819.07 819.29 796.45 809.8 769.16 792.93 744.32 824.92 723.59 850.46 701.33 872.13L700.27 872.48 620.61 800.67 620.49 798.56Z" fill="#3c2c5b" opacity="1" stroke-width="4" stroke="none"></path><path d="M768.81 792.82C730.61 770.67 715.38 739.04 715.38 713.27" stroke="#0b0b0b" stroke-width="4" stroke-linecap="round" stroke-linejoin="round" opacity="1" fill="none"></path><path d="M870.73 707.53L847.65 692.3" stroke="#0b0b0b" stroke-width="4" stroke-linecap="round" stroke-linejoin="round" opacity="1" fill="none"></path><path d="M866.51 570.34L878.23 584.63" stroke="#000000" stroke-width="4" stroke-linecap="round" stroke-linejoin="round" opacity="1" fill="none"></path><path d="M812.86 507.2L821.99 490.68" stroke="#000000" stroke-width="4" stroke-linecap="round" stroke-linejoin="round" opacity="1" fill="none"></path><path d="M618.15 477.32C639.23 477.79 670.87 482.48 670.87 482.48" stroke="#000000" stroke-width="4" stroke-linecap="round" stroke-linejoin="round" opacity="1" fill="none"></path><path d="M622.48 464.67C645.09 464.9 674.38 469.59 674.38 469.59" stroke="#000000" stroke-width="4" stroke-linecap="round" stroke-linejoin="round" opacity="1" fill="none"></path><path d="M647.55 455.88L676.72 459.05" stroke="#000000" stroke-width="4" stroke-linecap="round" stroke-linejoin="round" opacity="1" fill="none"></path><path d="M994.21 548.08L990.7 539.88" stroke="#000000" stroke-width="4" stroke-linecap="round" stroke-linejoin="round" opacity="1" fill="none"></path><path d="M991.75 589.32C988.24 585.81 984.84 577.37 984.84 577.37" stroke="#000000" stroke-width="4" stroke-linecap="round" stroke-linejoin="round" opacity="1" fill="none"></path><path d="M1035.21 571.51C1034.04 575.03 1035.21 579.71 1037.56 580.89" stroke="#000000" stroke-width="4" stroke-linecap="round" stroke-linejoin="round" opacity="1" fill="none"></path><path d="M896.15 699.09L826.33 601.5" stroke="#0b0b0b" stroke-width="4" stroke-linecap="round" stroke-linejoin="round" opacity="1" fill="none"></path><path d="M370.95 968.66L371.07 968.55C375.52 963.74 380.09 958.82 384.78 954.14L390.75 954.84 478.03 1072.23 478.15 1075.63C476.27 1082.54 472.06 1088.63 466.43 1093.08L466.2 1093.2 370.95 968.66Z" fill="#000000" opacity="1" stroke-width="4" stroke="none"></path><path d="M756.04 1014.47C758.03 1008.5 760.02 1003.11 762.48 997.02L764.24 996.31 892.52 1072.93 892.76 1073.4C893.46 1084.88 889.24 1091.56 888.65 1092.73 888.65 1092.85 888.54 1092.85 888.42 1092.85L756.04 1014.47Z" fill="#000000" opacity="1" stroke-width="4" stroke="none"></path><path d="M821.99 895.68L822.11 894.86C848.82 861.7 872.25 843.31 875.3 840.97L872.72 840.03C865.11 837.22 857.96 834.52 850.58 831.71L845.31 829.37 932 752.28C932.12 752.16 932.24 752.16 932.35 752.28 939.97 758.37 947.47 764.82 954.5 771.73 985.89 803.95 990.23 838.39 967.38 873.89 955.32 892.75 937.39 912.55 920.05 931.76 915.72 936.56 912.2 940.08 908.22 944.65L906.58 945.59 821.99 895.68Z" fill="#c65a42" opacity="1" stroke-width="4" stroke="none"></path><path d="M877.41 592.95C874.01 592.95 870.61 591.78 866.63 590.26 861.59 588.5 854.45 587.1 846.95 586.74 846.95 586.74 860.89 575.61 866.63 570.11L883.38 590.49C881.63 591.43 879.4 592.95 877.41 592.95Z" fill="#000000" opacity="0.3" stroke-width="4" stroke="none"></path><path d="M844.84 690.54C842.96 689.25 842.38 686.79 843.67 684.8 844.37 683.63 845.66 682.93 847.07 682.93L884.44 682.81 896.04 699.21 893.81 699.91C883.27 702.96 870.61 707.53 870.61 707.53L844.84 690.54Z" fill="#0b0b0b" opacity="0.3" stroke-width="4" stroke="none"></path><path d="M688.09 861.59L688.2 861.47C688.32 861.23 703.79 841.55 711.64 808.16 714.21 796.92 716.2 785.08 717.96 774.66 721.01 756.38 721.71 743.26 722.06 743.61 735.77 776.77 768.57 792.47 768.92 792.7L769.16 792.82 769.04 793.05C744.09 825.15 723.47 850.46 701.21 872.13L700.15 872.6 688.09 861.59Z" fill="#0b0b0b" opacity="0.3" stroke-width="4" stroke="none"></path><path d="M840.39 873.89C840.27 873.89 840.27 873.77 840.39 873.89 860.07 852.45 875.42 840.97 875.53 840.85L875.65 840.73 905.17 836.28C905.17 836.28 914.08 840.5 881.27 864.4 879.87 865.33 878.46 866.16 876.82 866.74 862.76 872.01 842.73 873.65 840.39 873.89Z" fill="#000000" opacity="0.3" stroke-width="4" stroke="none"></path><path d="M762.48 997.02L762.71 996.43C768.69 981.32 775.6 966.91 783.45 952.61L784.62 952.15 828.91 978.86 836.52 961.4C839.33 955.07 846.6 952.26 852.92 954.96 853.39 955.19 853.86 955.43 854.33 955.66L883.85 972.41 883.62 975.34C882.56 976.87 881.63 978.27 880.81 979.56 867.92 1000.41 870.5 1017.75 887.13 1052.78 890.29 1059.11 893.11 1065.2 892.76 1073.4L762.48 997.02Z" fill="#ffc930" opacity="1" stroke-width="4" stroke="none"></path><path d="M783.45 952.61L783.57 952.38C794.7 932.23 807.58 913.02 821.99 894.97L822.11 894.86 908.22 944.65C900.84 952.97 891 964.45 884.67 973.82L883.62 975.34 853.74 956.13C848 952.73 840.62 954.61 837.34 960.35 837.11 960.82 836.87 961.17 836.64 961.64L828.79 979.56 783.45 952.61Z" fill="#e6e6e6" opacity="1" stroke-width="4" stroke="none"></path><path d="M475.81 887.24L475.92 883.14C517.04 859.24 551.84 848.82 572.81 842.49 583 839.44 590.38 837.22 593.43 834.88 601.16 828.2 609.71 816.83 619.67 799.96L620.49 798.56 701.21 871.9C701.33 872.01 701.33 872.01 701.21 872.13 680.47 892.16 659.85 907.39 639.7 917.23 621.43 926.25 599.87 935.98 578.9 945.35 564.84 951.68 550.78 958.12 537.78 964.21L534.5 964.8 475.81 887.24Z" fill="#c65a42" opacity="1" stroke-width="4" stroke="none"></path><path d="M483.19 961.17C475.22 950.74 464.44 945.12 454.01 953.08 452.37 954.37 451.79 958.82 450.5 960.46L449.33 960.58 420.74 923.56 421.56 920.87C438.55 907.04 456.83 894.27 475.69 883.26L475.92 883.14 537.78 964.21 537.55 964.33C523.84 970.77 514.7 975.34 506.5 979.79L500.88 980.85 483.19 961.17Z" fill="#e6e6e6" opacity="1" stroke-width="4" stroke="none"></path><path d="M384.78 954.14L384.89 954.02C396.49 942.3 408.68 931.29 421.33 920.98L421.56 920.87 449.33 957.18 456.59 947.69C461.51 941.13 470.88 939.96 477.33 944.88 478.38 945.7 479.32 946.64 480.14 947.69L506.5 979.79 504.98 980.61C499.24 983.78 494.67 986.47 490.92 988.93 473.81 1000.41 475.45 1019.27 477.91 1045.52 478.38 1051.37 478.97 1057.35 479.32 1063.79 479.55 1067.89 480.14 1070.47 478.15 1075.63L384.78 954.14Z" fill="#ffc930" opacity="1" stroke-width="4" stroke="none"></path><path d="M875.88 840.97L905.17 836.28" stroke="#000000" stroke-width="4" stroke-linecap="round" stroke-linejoin="round" opacity="1" fill="none"></path><path d="M1048.69 563.31C1050.3 563.31 1051.62 562 1051.62 560.38 1051.62 558.77 1050.3 557.46 1048.69 557.46 1047.07 557.46 1045.76 558.77 1045.76 560.38 1045.76 562 1047.07 563.31 1048.69 563.31Z" fill="#231f20" opacity="1" stroke-width="4" stroke="none"></path><path d="M874.24 997.6H853.98" stroke="#000000" stroke-width="4" stroke-linecap="round" stroke-linejoin="round" opacity="1" fill="none"></path><path d="M874.24 1015.64L857.14 1020.21" stroke="#000000" stroke-width="4" stroke-linecap="round" stroke-linejoin="round" opacity="1" fill="none"></path><path d="M828.91 979.21L813.21 1026.3" stroke="#000000" stroke-width="4" stroke-linecap="round" stroke-linejoin="round" opacity="1" fill="none"></path><path d="M449.33 957.42L421.45 1001.82" stroke="#000000" stroke-width="4" stroke-linecap="round" stroke-linejoin="round" opacity="1" fill="none"></path><path d="M480.96 997.25L463.5 988.58" stroke="#000000" stroke-width="4" stroke-linecap="round" stroke-linejoin="round" opacity="1" fill="none"></path><path d="M476.27 1015.64L458.82 1014.35" stroke="#000000" stroke-width="4" stroke-linecap="round" stroke-linejoin="round" opacity="1" fill="none"></path><path d="M932.12 752.28L845.31 829.37" stroke="#0b0b0b" stroke-width="4" stroke-linecap="round" stroke-linejoin="round" opacity="1" fill="none"></path><path d="M620.49 798.56L701.21 871.78" stroke="#0b0b0b" stroke-width="4" stroke-linecap="round" stroke-linejoin="round" opacity="1" fill="none"></path><path d="M847.77 632.67C792.71 655.86 771.62 673.44 776.3 706.24 781.93 745.96 867.33 773.84 889.24 790.36" stroke="#0b0b0b" stroke-width="4" stroke-linecap="round" stroke-linejoin="round" opacity="1" fill="none"></path><path d="M1043.41 681.52L1042.48 706.83" stroke="#000000" stroke-width="4" stroke-linecap="round" stroke-linejoin="round" opacity="1" fill="none"></path><path d="M1147.68 639.46C1147.68 639.46 1162.09 637 1168.53 627.75" stroke="#000000" stroke-width="4" stroke-linecap="round" stroke-linejoin="round" opacity="1" fill="none"></path><path d="M1146.51 653.52C1153.54 652.35 1162.21 650.01 1168.42 644.15" stroke="#000000" stroke-width="4" stroke-linecap="round" stroke-linejoin="round" opacity="1" fill="none"></path><path d="M1145.34 665.24C1159.4 662.89 1165.61 658.21 1165.61 658.21" stroke="#000000" stroke-width="4" stroke-linecap="round" stroke-linejoin="round" opacity="1" fill="none"></path><path d="M1138.31 631.26C1138.31 631.26 1135.97 647.66 1132.45 655.86" stroke="#000000" stroke-width="4" stroke-linecap="round" stroke-linejoin="round" opacity="1" fill="none"></path></g></svg>