<svg xmlns="http://www.w3.org/2000/svg" height="1200" width="1600" version="1.1" xmlns:xlink="http://www.w3.org/1999/xlink" xmlns:svgjs="http://svgjs.com/svgjs"><rect fill="#e9eef3" width="1600" height="1200"></rect><g><path d="M570.1 672.6V763.5C570.1 776.5 559.6 787 546.6 787H531.3C518.3 787 507.8 797.5 507.8 810.5V846.1C507.8 859.1 518.3 869.6 531.3 869.6H900.7C913.7 869.6 924.2 880.1 924.2 893.1V922.8C924.2 935.8 934.7 946.3 947.7 946.3H966.5C979.5 946.3 990 935.8 990 922.8V857.5C990 844.5 1000.5 834 1013.5 834H1316.5C1329.5 834 1340 823.5 1340 810.5V703.9" stroke="#1f2123" stroke-width="4" stroke-linecap="round" stroke-linejoin="round" opacity="1" fill="none"></path></g><g><path d="M318.88 243H349.74C359.89 243 368.15 251.26 368.15 261.4V336.98C368.15 347.13 359.89 355.39 349.74 355.39H318.88C308.74 355.39 300.47 347.13 300.47 336.98V261.4C300.47 251.26 308.74 243 318.88 243Z" fill="#a0cdff" opacity="1" stroke-width="4" stroke="none"></path><path d="M317.79 284.92L334.37 268.39 350.9 284.92" stroke="#5b422c" stroke-width="4" stroke-linecap="round" stroke-linejoin="round" opacity="1" fill="none"></path><path d="M350.9 313.47L334.37 329.99 317.79 313.47" stroke="#5b422c" stroke-width="4" stroke-linecap="round" stroke-linejoin="round" opacity="1" fill="none"></path></g><g><path d="M707.21 418.08L645.1 398.65V367.99H624.06L515.35 464.97 624.06 574.38H645.1V543.72L707.21 524.29V418.08Z" fill="#5b422c" opacity="1" stroke-width="4" stroke="none"></path><path d="M652.21 400.85L645.1 398.65V543.72L669.44 536.11 652.21 400.85Z" fill="#000000" opacity="0.3" stroke-width="4" stroke="none"></path><path d="M581.98 553.34H474.77V626.48H581.98V553.34Z" fill="#f3eee9" opacity="1" stroke-width="4" stroke="none"></path><path d="M552.92 553.34H445.72V626.48H552.92V553.34Z" fill="#5b422c" opacity="1" stroke-width="4" stroke="none"></path><path d="M604.02 612.45H709.22V681.58H604.02L538.69 650.52 604.02 612.45Z" fill="#5b422c" opacity="1" stroke-width="4" stroke="none"></path><path d="M604.02 612.45H354.55V681.58H604.02V612.45Z" fill="#001935" opacity="1" stroke-width="4" stroke="none"></path><path d="M624.06 367.99H374.58V574.38H624.06V367.99Z" fill="#001935" opacity="1" stroke-width="4" stroke="none"></path><path d="M594 398.05H404.64V544.32H594V398.05Z" fill="#f3eee9" opacity="1" stroke-width="4" stroke="none"></path><path d="M588.99 627.48H502.83V645.51H588.99V627.48Z" fill="#000000" opacity="1" stroke-width="4" stroke="none"></path><path d="M645.1 398.65V543.72" stroke="#000000" stroke-width="4" stroke-linecap="round" stroke-linejoin="round" opacity="1" fill="none"></path><path d="M431.69 427.1H499.82" stroke="#001935" stroke-width="4" stroke-linecap="round" stroke-linejoin="round" opacity="1" fill="none"></path><path d="M431.69 447.14H463.75" stroke="#001935" stroke-width="4" stroke-linecap="round" stroke-linejoin="round" opacity="1" fill="none"></path><path d="M431.69 477.2H481.79" stroke="#001935" stroke-width="4" stroke-linecap="round" stroke-linejoin="round" opacity="1" fill="none"></path></g><g><path d="M1415.57 248.64L1457.78 670.72C1461.03 703.28 1431.09 729.73 1390.7 729.84L781.22 731.43C740.98 731.53 705.76 705.25 702.51 672.69L660.3 250.61C657.04 218.05 686.99 191.6 727.23 191.5L1336.7 189.91C1376.94 189.8 1412.31 216.08 1415.57 248.64Z" fill="#ffffff" opacity="1" stroke-width="4" stroke="none"></path></g><g><path d="M769.43 281.91H984.56C998.24 281.91 1010.61 293.05 1012.12 306.73 1013.63 320.41 1003.72 331.56 990.04 331.56H774.91C761.23 331.56 748.86 320.41 747.34 306.73 745.83 293.05 755.75 281.91 769.43 281.91Z" fill="#a0cdff" opacity="1" stroke-width="4" stroke="none"></path><path d="M780.76 384.51H906.53C920.21 384.51 932.58 395.65 934.09 409.33 935.6 423.01 925.69 434.16 912.01 434.16H786.24C772.56 434.16 760.19 423.01 758.68 409.33 757.17 395.65 767.08 384.51 780.76 384.51Z" fill="#dbe5f0" opacity="1" stroke-width="4" stroke="none"></path><path d="M989.27 384.51H1028.98C1042.66 384.51 1055.04 395.65 1056.55 409.33 1058.06 423.01 1048.15 434.16 1034.47 434.16H994.75C981.07 434.16 968.7 423.01 967.19 409.33 965.68 395.65 975.59 384.51 989.27 384.51Z" fill="#5b422c" opacity="1" stroke-width="4" stroke="none"></path><path d="M792.09 487.11H822.98C836.66 487.11 849.03 498.25 850.54 511.93 852.05 525.61 842.14 536.76 828.46 536.76H797.57C783.89 536.76 771.52 525.61 770.01 511.93 768.5 498.25 778.41 487.11 792.09 487.11Z" fill="#dbe5f0" opacity="1" stroke-width="4" stroke="none"></path><path d="M905.72 487.11H1091.07C1104.75 487.11 1117.12 498.25 1118.63 511.93 1120.14 525.61 1110.23 536.76 1096.55 536.76H911.21C897.53 536.76 885.15 525.61 883.64 511.93 882.13 498.25 892.04 487.11 905.72 487.11Z" fill="#5b422c" opacity="1" stroke-width="4" stroke="none"></path><path d="M1173.81 487.11H1332.67C1346.35 487.11 1358.73 498.25 1360.24 511.93 1361.75 525.61 1351.84 536.76 1338.16 536.76H1179.29C1165.61 536.76 1153.24 525.61 1151.73 511.93 1150.22 498.25 1160.13 487.11 1173.81 487.11Z" fill="#ffffff" opacity="1" stroke-width="4" stroke="none"></path><path d="M803.42 589.71H902.71C916.39 589.71 928.77 600.85 930.28 614.53 931.79 628.21 921.87 639.36 908.19 639.36H808.9C795.22 639.36 782.85 628.21 781.34 614.53 779.83 600.85 789.74 589.71 803.42 589.71Z" fill="#030303" opacity="1" stroke-width="4" stroke="none"></path><path d="M985.45 589.71H1007.52C1021.2 589.71 1033.57 600.85 1035.08 614.53 1036.59 628.21 1026.68 639.36 1013 639.36H990.94C977.26 639.36 964.88 628.21 963.37 614.53 961.86 600.85 971.77 589.71 985.45 589.71Z" fill="#dbe5f0" opacity="1" stroke-width="4" stroke="none"></path><path d="M1090.26 589.71H1221.55C1235.23 589.71 1247.6 600.85 1249.11 614.53 1250.62 628.21 1240.71 639.36 1227.03 639.36H1095.74C1082.06 639.36 1069.69 628.21 1068.18 614.53 1066.67 600.85 1076.58 589.71 1090.26 589.71Z" fill="#a0cdff" opacity="1" stroke-width="4" stroke="none"></path></g><g><path d="M1128.54 969.33C1128.54 964.12 1128.09 955.8 1127.45 945.11L1174.99 883.75 1208.09 945.2C1207.08 963.12 1204.8 980.67 1201.05 998.78L1159.72 1011.3 1128.54 969.33Z" fill="#cea482" opacity="1" stroke-width="4" stroke="none"></path><path d="M1295.32 539.06C1297.88 542.17 1300.35 545.09 1302.27 547.38L1351.74 510.44C1335.46 484.75 1313.52 463.35 1302.91 454.67 1298.07 450.73 1291.94 446.53 1282.43 444.15 1277.31 442.87 1268.17 440.77 1259.76 440.77H1199.41C1199.32 440.77 1185.88 442.14 1174.73 446.07V445.98C1170.43 447.44 1167.05 449.55 1164.49 451.83 1150.04 464.72 1133.31 489.04 1110.17 530.65L1159.55 569.5C1167.87 557.62 1173.26 547.47 1173.99 546.19 1174.18 549.57 1173.81 553.14 1173.54 556.43 1172.62 566.21 1171.71 575.45 1183.5 580.93L1183.59 581.3 1296.51 581.12 1296.79 580.84C1305.75 571.24 1303.1 563.84 1299.62 554.33 1297.98 549.85 1296.24 544.91 1295.32 539.06Z" fill="#f49038" opacity="1" stroke-width="4" stroke="none"></path><path d="M1164.84 561.46C1164.84 561.09 1166.58 526.17 1172.89 516.11 1173.44 515.19 1173.89 514.83 1174.35 514.83 1174.53 514.83 1174.72 514.92 1174.81 515.1 1177.28 517.94 1174.17 544.91 1174.08 546.1 1173.99 546.19 1170.6 552.59 1164.84 561.46Z" fill="#4a3b2e" opacity="0.2" stroke-width="4" stroke="none"></path><path d="M1110.53 530.01C1106.69 536.95 1101.85 545.55 1097.64 553.5 1097.18 554.33 1089.23 558.62 1078.16 564.57 1053.11 578.01 1011.24 600.41 991.85 617.05 983.9 623.81 962.41 646.58 965.34 652.52 965.8 653.35 966.71 653.71 968.26 653.71 968.63 653.71 969 653.71 969.45 653.62 958.48 665.51 963.33 673.55 963.42 673.64 962.5 675.47 961.59 677.3 961.59 679.5 961.5 681.05 961.95 682.33 962.87 683.25 964.33 684.71 966.62 684.98 968.36 684.98 970.18 684.98 971.65 684.62 971.65 684.62 972.29 688 974.02 689.74 976.77 689.74 982.98 689.74 992.49 680.69 993.04 680.04 989.11 684.71 986.92 690.29 987.83 692.94 988.2 693.85 988.84 694.49 989.93 694.67 990.12 694.67 990.21 694.67 990.39 694.67 997.61 694.67 1022.57 665.51 1022.85 665.51 1045.61 656 1055.76 641.55 1059.79 633.6H1059.88C1082.74 628.29 1101.11 620.43 1119.95 609.64 1135.86 600.68 1150.67 582.3 1159.9 569.05L1110.53 530.01Z" fill="#cea482" opacity="1" stroke-width="4" stroke="none"></path><path d="M993.04 679.95C999.08 673.55 1010.96 660.75 1010.96 660.75" stroke="#191919" stroke-width="4" stroke-linecap="round" stroke-linejoin="round" opacity="1" fill="none"></path><path d="M971.66 684.43C977.14 678.95 1002.74 653.35 1002.74 653.35" stroke="#191919" stroke-width="4" stroke-linecap="round" stroke-linejoin="round" opacity="1" fill="none"></path><path d="M963.51 673.46C968.08 668.89 981.8 656.64 981.8 656.64" stroke="#191919" stroke-width="4" stroke-linecap="round" stroke-linejoin="round" opacity="1" fill="none"></path><path d="M1314.06 968.97C1312.69 964.21 1309.67 955.62 1305.01 944.56L1341.21 877.45 1385.28 944.28C1387.11 961.75 1387.48 980.67 1386.38 998.68L1337.28 1007 1314.06 968.97Z" fill="#cea482" opacity="1" stroke-width="4" stroke="none"></path><path d="M1354.11 845.63C1329.42 803.66 1326.58 770.84 1322.38 700.62 1318.26 630.58 1297.24 599.22 1296.96 598.95L1222.72 598.03 1183.86 598.58C1147.93 654.54 1123.33 737.74 1120.13 815 1119.49 832.64 1122.42 872.23 1124.98 907.25 1126.07 921.06 1126.99 934.13 1127.72 945.2H1163.29L1176.18 893.36 1188.89 945.2 1208.36 945.29C1210.1 912.83 1207.27 882.75 1203.88 847.91 1200.41 812.99 1211.38 781.17 1224.09 744.41 1226.28 738.01 1228.57 731.52 1230.76 724.85 1234.6 751.82 1240.09 779.8 1248.32 805.4 1258.1 835.94 1276.57 878.54 1291.38 912.83 1296.5 924.72 1301.35 935.87 1305.28 945.2H1338.56L1341.4 893.36 1367.45 945.2 1385.56 945.11C1380.44 898.48 1365.63 865.29 1354.11 845.63Z" fill="#ffab61" opacity="1" stroke-width="4" stroke="none"></path><path d="M1216.97 764.53C1206.27 731.7 1220.9 714.15 1226.2 684.53L1231.23 723.66C1231.23 723.66 1232.24 720.27 1223.64 745.05 1221.45 751.64 1219.07 758.04 1216.97 764.53Z" fill="#3b342d" opacity="0.2" stroke-width="4" stroke="none"></path><path d="M1225.92 682.88C1227.11 695.77 1228.66 710.77 1230.67 724.76" stroke="#3b342d" stroke-width="4" stroke-linecap="round" stroke-linejoin="round" opacity="1" fill="none"></path><path d="M1086.58 1020.26C1089.14 1015.33 1092.43 1011.58 1096.73 1008.56 1097.82 1007.83 1098.83 1007.1 1099.93 1006.36 1112.91 997.5 1127.54 987.44 1128.45 971.53 1128.54 970.8 1128.54 969.88 1128.54 968.88H1151.4C1155.15 968.88 1158.72 970.52 1161.18 973.45 1163.56 976.38 1164.66 980.12 1163.93 983.87L1161.28 998.59H1200.96C1201.05 998.59 1201.05 998.68 1201.05 998.68 1199.59 1005.72 1197.85 1012.95 1195.84 1020.26L1193.28 1022.55H1086.58V1020.26Z" fill="#ffab61" opacity="1" stroke-width="4" stroke="none"></path><path d="M1277.12 1020.26C1279.68 1015.33 1282.97 1011.58 1287.27 1008.56L1289.55 1007C1302.81 997.86 1317.99 989.27 1314.97 973.27 1314.88 972.63 1314.88 971.9 1314.7 970.98L1314.06 968.97 1331.43 968.88C1335.18 968.88 1338.75 970.52 1341.21 973.45 1343.59 976.38 1344.69 980.12 1343.96 983.87L1341.31 998.59 1386.38 998.68C1385.92 1006.46 1385.28 1013.4 1384.46 1020.26L1384.28 1020.45 1278.03 1021.73 1277.12 1020.26Z" fill="#ffab61" opacity="1" stroke-width="4" stroke="none"></path><path d="M1273.46 1034.07C1273.46 1033.98 1273.46 1026.02 1277.67 1019.17L1384.46 1020.26C1383.91 1024.74 1383.36 1029.31 1382.54 1034.07H1273.46Z" fill="#90531c" opacity="1" stroke-width="4" stroke="none"></path><path d="M1310.87 984.33L1323.76 992.56" stroke="#90531c" stroke-width="4" stroke-linecap="round" stroke-linejoin="round" opacity="1" fill="none"></path><path d="M1305.46 992.56L1313.6 1002.62" stroke="#90531c" stroke-width="4" stroke-linecap="round" stroke-linejoin="round" opacity="1" fill="none"></path><path d="M1120.69 985.24L1133.58 993.47" stroke="#90531c" stroke-width="4" stroke-linecap="round" stroke-linejoin="round" opacity="1" fill="none"></path><path d="M1115.29 992.56L1123.42 1002.62" stroke="#90531c" stroke-width="4" stroke-linecap="round" stroke-linejoin="round" opacity="1" fill="none"></path><path d="M1183.49 599.04V580.93H1296.69V599.04H1183.49Z" fill="#3b342d" opacity="1" stroke-width="4" stroke="none"></path><path d="M1214.86 599.04V580.93H1241.93V599.04H1214.86Z" fill="#fefefe" opacity="1" stroke-width="4" stroke="none"></path><path d="M1296.78 581.02C1296.6 568.86 1292.3 560.45 1288.09 552.31 1283.06 542.44 1276.3 533.85 1279.5 519.03 1279.77 517.66 1281.6 517.39 1282.33 518.58L1286.63 526.26C1286.63 526.35 1286.72 526.35 1286.72 526.44 1287.54 527.54 1288.64 528.63 1295.31 539.06 1295.86 543.63 1297.42 548.02 1299.7 554.42 1303.09 563.93 1305.92 571.42 1296.78 581.02Z" fill="#4a3b2e" opacity="0.2" stroke-width="4" stroke="none"></path><path d="M1223.54 466.46C1215.86 466.46 1209.83 464.27 1205.62 459.88 1198.76 452.75 1199.22 440.77 1199.22 440.77L1199.49 427.51C1197.94 427.78 1196.2 427.88 1194.56 427.88 1188.52 427.88 1180.2 426.32 1175.17 419.1 1169.05 410.32 1169.96 395.51 1171.88 384.81 1172.43 381.98 1172.8 378.14 1173.25 373.66 1174.44 361.59 1176 347.14 1181.39 338.91 1189.62 326.48 1202.6 338 1223.82 338 1244.84 338 1260.57 339.83 1260.57 359.85 1260.57 373.57 1262.31 395.14 1261.03 416.08 1260.48 425.04 1259.93 433.73 1259.57 440.77 1259.57 443.79 1248.78 466.46 1223.54 466.46Z" fill="#cea482" opacity="1" stroke-width="4" stroke="none"></path><path d="M1199.59 427.42C1199.68 427.42 1207.91 424.95 1217.87 420.38 1210.28 428.42 1199.4 436.93 1199.4 436.93L1199.59 427.42Z" fill="#191919" opacity="0.2" stroke-width="4" stroke="none"></path><path d="M1199.78 427.42C1204.81 425.77 1208.83 424.04 1211.57 422.66" stroke="#191919" stroke-width="4" stroke-linecap="round" stroke-linejoin="round" opacity="1" fill="none"></path><path d="M1238.63 391.49L1231.4 394.78" stroke="#191919" stroke-width="4" stroke-linecap="round" stroke-linejoin="round" opacity="1" fill="none"></path><path d="M1187.7 398.62C1192.27 399.44 1195.01 396.79 1196.2 394.69" stroke="#191919" stroke-width="4" stroke-linecap="round" stroke-linejoin="round" opacity="1" fill="none"></path><path d="M1201.51 382.62C1202.87 382.62 1203.97 381.51 1203.97 380.15 1203.97 378.79 1202.87 377.68 1201.51 377.68 1200.14 377.68 1199.04 378.79 1199.04 380.15 1199.04 381.51 1200.14 382.62 1201.51 382.62Z" fill="#191919" opacity="1" stroke-width="4" stroke="none"></path><path d="M1179.93 378.78C1181.29 378.78 1182.4 377.67 1182.4 376.31 1182.4 374.95 1181.29 373.84 1179.93 373.84 1178.57 373.84 1177.46 374.95 1177.46 376.31 1177.46 377.67 1178.57 378.78 1179.93 378.78Z" fill="#191919" opacity="1" stroke-width="4" stroke="none"></path><path d="M1187.7 382.62C1186.6 385.45 1185.69 387.65 1188.61 388.74" stroke="#191919" stroke-width="4" stroke-linecap="round" stroke-linejoin="round" opacity="1" fill="none"></path><path d="M1236.52 680.5C1236.34 680.5 1236.16 680.41 1235.98 680.23 1234.51 678.31 1237.62 666.6 1238.99 661.58 1239.18 661.03 1238.44 660.75 1238.17 661.12 1234.33 665.6 1224 676.75 1216.32 676.75 1214.31 676.75 1212.57 675.93 1211.2 674.47 1211.11 674.28 1210.92 674.28 1210.74 674.28 1210.19 674.47 1208.82 674.74 1207.27 674.74 1204.16 674.74 1200.41 673.55 1200.41 667.88 1200.41 667.88 1199.22 667.34 1198.49 665.69 1197.76 663.86 1197.48 660.39 1200.41 654.08 1203.97 646.31 1217.32 627.65 1229.03 621.25 1240 615.31 1258.65 612.11 1260.57 611.75 1260.66 611.75 1260.75 611.65 1260.85 611.56L1310.13 556.98C1310.31 556.8 1310.31 556.52 1310.13 556.34 1309.12 555.24 1305.65 551.4 1302.36 547.56 1302.17 547.38 1302.17 547.01 1302.45 546.83L1351.18 510.53C1351.45 510.35 1351.73 510.44 1351.91 510.62 1363.71 529.27 1370.01 545.91 1370.75 559.81 1372.85 598.85 1289.92 640.55 1286.17 642.28 1286.08 642.28 1285.99 642.38 1285.99 642.47 1285.17 643.75 1278.22 654.9 1256.82 655.08 1256.64 655.08 1256.46 655.18 1256.37 655.36 1255.18 658.38 1244.48 680.5 1236.52 680.5Z" fill="#cea482" opacity="1" stroke-width="4" stroke="none"></path><path d="M1211.01 674.19C1224 656.18 1231.31 649.78 1237.71 644.3" stroke="#191919" stroke-width="4" stroke-linecap="round" stroke-linejoin="round" opacity="1" fill="none"></path><path d="M1200.41 667.88C1204.89 661.67 1217.69 644.3 1229.39 636.25" stroke="#191919" stroke-width="4" stroke-linecap="round" stroke-linejoin="round" opacity="1" fill="none"></path><path d="M1295.32 539.06C1291.58 534.3 1289.29 530.83 1286.64 526.44" stroke="#4a3b2e" stroke-width="4" stroke-linecap="round" stroke-linejoin="round" opacity="1" fill="none"></path><path d="M1174.08 546.1C1173.89 539.97 1175.72 511.63 1175.72 511.63" stroke="#4a3b2e" stroke-width="4" stroke-linecap="round" stroke-linejoin="round" opacity="1" fill="none"></path><path d="M1256.64 423.03C1254.45 422.76 1243.11 422.21 1235.61 413.25 1234.88 412.42 1235.15 411.05 1236.16 410.6 1241.55 407.67 1256.73 398.25 1253.35 386.18 1251.7 380.42 1247.22 377.5 1240.18 377.5 1234.79 377.5 1229.12 379.23 1226.47 380.24 1225.55 380.61 1224.46 380.06 1224.18 379.14 1222.72 374.66 1222.9 370.09 1223.27 367.44 1223.45 366.25 1222.44 365.34 1221.35 365.43 1220.71 365.52 1219.98 365.52 1219.15 365.52 1216.23 365.52 1212.3 364.88 1210.19 361.77 1208.36 359.03 1208.27 354.73 1210.01 349.15 1210.47 347.78 1209.19 346.5 1207.81 346.87 1201.51 348.51 1195.38 349.43 1189.62 349.43 1184.68 349.43 1181.21 348.79 1179.2 348.33 1178.19 348.06 1177.55 347.05 1177.92 346.04 1178.83 343.21 1180.02 340.65 1181.3 338.64 1189.62 326.2 1202.88 320.72 1224 320.72 1245.67 320.72 1264.05 337.54 1264.05 357.66 1264.05 368.9 1262.95 387.28 1261.85 404.65 1261.49 411.05 1261.12 417.36 1260.85 423.4 1260.85 423.4 1259.66 423.4 1256.64 423.03Z" fill="#191919" opacity="1" stroke-width="4" stroke="none"></path><path d="M1082.83 1034.07C1082.83 1033.98 1082.92 1027.49 1086.48 1020.45 1086.58 1020.35 1086.67 1020.26 1086.76 1020.26H1195.84C1194.83 1024.29 1193.64 1028.22 1192.45 1032.33L1191.91 1034.16 1082.83 1034.07Z" fill="#90531c" opacity="1" stroke-width="4" stroke="none"></path><path d="M1063.17 632.77C1058.6 632.32 1057.96 636.89 1057.96 636.89Z" fill="#cea482" opacity="1" stroke-width="4" stroke="none"></path><path d="M1238.18 661.12C1242.29 655.63 1242.57 655.08 1246.5 650.06" stroke="#191919" stroke-width="4" stroke-linecap="round" stroke-linejoin="round" opacity="1" fill="none"></path><path d="M969.45 653.62C981.61 651.7 991.85 642.47 991.85 642.47" stroke="#191919" stroke-width="4" stroke-linecap="round" stroke-linejoin="round" opacity="1" fill="none"></path><path d="M991.85 642.47C1008.22 644.48 1024.68 632.96 1024.68 632.96" stroke="#191919" stroke-width="4" stroke-linecap="round" stroke-linejoin="round" opacity="1" fill="none"></path></g><g><path d="M709.1 761H894.4V1032H709.1L684.9 906.6 709.1 761Z" fill="#f49038" opacity="1" stroke-width="4" stroke="none"></path><path d="M709.1 761H605V1032H709.1V761Z" fill="#001935" opacity="1" stroke-width="4" stroke="none"></path><path d="M688.5 790.3H625.6V817H688.5V790.3Z" fill="#5b422c" opacity="1" stroke-width="4" stroke="none"></path><path d="M657.6 975.7C660.91 975.7 663.6 973.01 663.6 969.7 663.6 966.39 660.91 963.7 657.6 963.7 654.29 963.7 651.6 966.39 651.6 969.7 651.6 973.01 654.29 975.7 657.6 975.7Z" fill="#000000" opacity="1" stroke-width="4" stroke="none"></path><path d="M657.6 999.5C660.91 999.5 663.6 996.81 663.6 993.5 663.6 990.19 660.91 987.5 657.6 987.5 654.29 987.5 651.6 990.19 651.6 993.5 651.6 996.81 654.29 999.5 657.6 999.5Z" fill="#000000" opacity="1" stroke-width="4" stroke="none"></path><path d="M672.8 834.9V849.6" stroke="#000000" stroke-width="4" stroke-linecap="round" stroke-linejoin="round" opacity="1" fill="none"></path><path d="M657 834.9V849.6" stroke="#000000" stroke-width="4" stroke-linecap="round" stroke-linejoin="round" opacity="1" fill="none"></path><path d="M641.3 834.9V849.6" stroke="#000000" stroke-width="4" stroke-linecap="round" stroke-linejoin="round" opacity="1" fill="none"></path><path d="M796 953H863.5" stroke="#000000" stroke-width="4" stroke-linecap="round" stroke-linejoin="round" opacity="1" fill="none"></path><path d="M796 975H863.5" stroke="#000000" stroke-width="4" stroke-linecap="round" stroke-linejoin="round" opacity="1" fill="none"></path><path d="M796 997H863.5" stroke="#000000" stroke-width="4" stroke-linecap="round" stroke-linejoin="round" opacity="1" fill="none"></path><path d="M657.6 946.3C666.27 946.3 673.3 939.27 673.3 930.6 673.3 921.93 666.27 914.9 657.6 914.9 648.93 914.9 641.9 921.93 641.9 930.6 641.9 939.27 648.93 946.3 657.6 946.3Z" fill="#5b422c" opacity="1" stroke-width="4" stroke="none"></path></g><g><path d="M1468.13 761.01H1462.27V753.95C1462.27 749.05 1458.28 745.07 1453.38 745.07H1439.32C1434.42 745.07 1430.43 749.05 1430.38 753.95V761.01H1424.68C1416.54 761.01 1409.93 767.61 1409.93 775.76V871.59C1409.93 879.73 1416.54 886.34 1424.68 886.34H1468.13C1476.27 886.34 1482.88 879.73 1482.88 871.59V775.76C1482.88 767.61 1476.27 761.01 1468.13 761.01Z" fill="#001935" opacity="1" stroke-width="4" stroke="none"></path><path d="M1429.86 814.54H1462.89C1467.28 814.54 1470.86 818.12 1470.86 822.51V866.64C1470.86 871.02 1467.28 874.61 1462.89 874.61H1429.86C1425.48 874.61 1421.89 871.02 1421.89 866.64V822.51C1421.89 818.12 1425.48 814.54 1429.86 814.54Z" fill="#5b422c" opacity="1" stroke-width="4" stroke="none"></path><path d="M1430.38 761.01H1462.32" stroke="#000000" stroke-width="4" stroke-linecap="round" stroke-linejoin="round" opacity="1" fill="none"></path></g><g><path d="M407.99 1014.56C406.35 1005.2 404.61 994.86 403.83 985.11H451.84C451.4 982.68 450.09 974.87 450.19 973.52 450.19 967.53 455.02 962.7 461.01 962.7L476.85 961.74C477.91 964.83 479.07 967.82 480.9 970.62 488.82 982.4 496.36 987.91 503.7 993.12 508.81 996.79 513.74 1000.37 518.09 1005.78 520.02 1008.29 521.56 1010.41 522.82 1013.31 522.82 1013.31 522.72 1013.89 521.95 1013.89 509.68 1013.98 407.99 1014.56 407.99 1014.56Z" fill="#cecece" opacity="1" stroke-width="4" stroke="none"></path><path d="M411.17 1029.44C410.02 1024.42 408.86 1019.2 407.89 1013.79V1013.6L522.82 1013.31 523.2 1013.98C526.78 1021.81 525.91 1028.18 525.71 1029.44 525.71 1029.63 525.52 1029.44 525.42 1029.44H411.17Z" fill="#323232" opacity="1" stroke-width="4" stroke="none"></path><path d="M492.2 741.15C484.57 741.15 470.67 733.33 467.58 731.59 469.41 734.59 470.57 740.48 464.48 740.19 449.42 739.13 413.97 717.69 413.11 717.49 412.91 717.59 427.69 680.12 427.98 680.79 432.42 683.21 438.02 681.76 443.91 681.18 462.07 688.91 481.39 702.14 493.55 712.18 500.8 718.36 503.31 722.61 501.47 725.99 503.21 728.7 503.7 731.01 502.92 732.95 501.76 735.75 498.29 736.71 497.51 736.9 497.32 739.8 495.49 741.15 492.2 741.15Z" fill="#e59763" opacity="1" stroke-width="4" stroke="none"></path><path d="M403.83 985.49C402.48 970.72 401.9 955.65 402.29 940.78 402.29 941.07 475.78 935.66 475.2 936.53 473.56 945.41 474.24 954.59 477.33 963.09H461.1C457.63 963.09 454.44 964.83 452.51 967.72 450.96 970.04 450.06 971.72 452.69 985.18L451.5 985.19H403.83Z" fill="#e59763" opacity="1" stroke-width="4" stroke="none"></path><path d="M403.83 985.49V985.3C402.48 970.62 426.34 934.5 426.34 934.5L460.33 935.08 430.2 985.69 403.83 985.49Z" fill="#030202" opacity="0.2" stroke-width="4" stroke="none"></path><path d="M487.66 979.51L475.78 985.4" stroke="#323232" stroke-width="4" stroke-linecap="round" stroke-linejoin="round" opacity="1" fill="none"></path><path d="M343.09 985.49C341.64 970.72 341.06 955.65 341.45 940.78 341.45 940.97 432.52 935.85 432.13 936.43 430.39 946.19 428.27 957.97 428.27 962.99H409.24C405.77 962.99 402.58 964.73 400.65 967.63 399.1 969.95 398.52 972.75 399.01 975.45L400.94 985.4C398.52 986.17 344.54 986.56 343.09 985.49Z" fill="#e59763" opacity="1" stroke-width="4" stroke="none"></path><path d="M263.7 543.56C263.02 528.97 262.16 507.44 261.58 493.14 261.58 492.18 261.96 491.21 262.64 490.54 271.81 482.13 273.94 460.02 275.48 446.11 275.68 443.99 277.9 442.63 279.93 443.41 288.23 446.59 294.99 446.79 304.07 446.79 313.44 446.79 324.35 441.57 332.17 445.82 347.43 454.03 348.3 461.37 352.36 481.55 352.55 482.71 353.52 483.78 354.68 484.07 363.18 486.67 361.34 490.63 356.7 496.04 356.03 497.01 355.84 497.78 356.13 499.23 360.37 522.7 355.35 535.83 334.4 536.6 330.73 536.6 326.96 536.02 324.06 534.87 323.77 534.77 323.68 534.96 323.68 535.15 323.68 535.35 323.58 542.59 323.58 543.17 321.36 545.59 267.56 546.84 263.7 543.56Z" fill="#e59763" opacity="1" stroke-width="4" stroke="none"></path><path d="M347.14 1013.79C345.5 1004.52 344.05 995.44 343.18 985.78 343.18 985.59 343.28 985.49 343.47 985.49L400.16 985.11C400.36 985.11 400.45 984.92 400.45 984.82 400.07 982.69 398.33 974.77 398.52 973.52 398.52 967.53 403.35 962.7 409.34 962.7H428.17C428.36 962.7 428.46 962.8 428.46 962.99 428.46 979.12 439.86 986.94 451.16 994.28 459.56 999.69 466.22 1004.71 470.18 1013.21 470.28 1013.41 470.18 1013.6 469.99 1013.6 464.87 1014.27 410.3 1022.1 408.76 1022.29 408.76 1022.29 408.76 1022.29 408.66 1022.29 407.02 1022.1 351.39 1014.66 347.53 1013.98 347.24 1013.98 347.14 1013.89 347.14 1013.79Z" fill="#cecece" opacity="1" stroke-width="4" stroke="none"></path><path d="M341.64 964.34C341.35 956.71 341.25 948.8 341.45 940.97V940.78L413.49 932.67 413.78 939.43 341.64 964.54V964.34Z" fill="#030202" opacity="0.2" stroke-width="4" stroke="none"></path><path d="M492.69 941.17C492.69 940.59 489.69 883.51 485.83 849.13 481.97 814.75 473.66 787.32 445.65 765.4 392.63 728.31 347.24 727.63 305.62 718.46 305.62 718.46 223.62 715.46 223.62 715.66 203.44 758.83 196.77 821.89 266.21 833.29H358.15C356.9 837.06 342.7 882.06 341.45 941.26 358.93 941.94 474.24 941.46 492.69 941.17Z" fill="#f49038" opacity="1" stroke-width="4" stroke="none"></path><path d="M447.68 941.36C447.58 941.36 446.71 941.36 445.27 941.36 455.6 941.36 463.81 941.36 464 941.36 463.91 941.07 455.41 918.66 461.1 856.66 463.33 830.87 457.63 801.13 438.89 790.6 447.87 808.28 448.26 828.56 448.65 845.84 449.61 891.33 447.68 940.88 447.68 941.36Z" fill="#1e0e00" opacity="0.2" stroke-width="4" stroke="none"></path><path d="M352.94 809.72C363.46 800.74 368.29 801.42 369.55 802.09 369.74 802.19 369.84 802.48 369.74 802.67 363.08 818.9 358.25 833 358.15 833.29H309.86C309.86 833.29 344.05 816.87 352.94 809.72Z" fill="#1e0e00" opacity="0.2" stroke-width="4" stroke="none"></path><path d="M447.49 941.07C447.49 941.07 449.42 891.52 448.45 845.55 447.97 822.09 447.49 792.73 424.98 772.16 416.39 764.33 405.28 757.19 393.31 750.91" stroke="#1e0e00" stroke-width="4" stroke-linecap="round" stroke-linejoin="round" opacity="1" fill="none"></path><path d="M340.77 503.19C341.93 506.37 346.37 507.44 348.79 506.95" stroke="#030202" stroke-width="4" stroke-linecap="round" stroke-linejoin="round" opacity="1" fill="none"></path><path d="M341.83 488.51C343.22 488.51 344.34 487.39 344.34 486 344.34 484.61 343.22 483.49 341.83 483.49 340.45 483.49 339.32 484.61 339.32 486 339.32 487.39 340.45 488.51 341.83 488.51Z" fill="#010005" opacity="1" stroke-width="4" stroke="none"></path><path d="M309.38 529.17C309.38 529.17 318.07 532.55 324.06 534.87" stroke="#030202" stroke-width="4" stroke-linecap="round" stroke-linejoin="round" opacity="1" fill="none"></path><path d="M358.15 833.1C361.44 822.86 369.74 802.67 369.74 802.67" stroke="#1e0e00" stroke-width="4" stroke-linecap="round" stroke-linejoin="round" opacity="1" fill="none"></path><path d="M330.73 741.06C300.88 741.54 279.06 734.78 262.73 720.68 262.64 720.68 262.64 720.58 262.54 720.58 260.51 720.58 225.17 720.49 221.69 720.49 221.5 720.49 221.4 720.39 221.4 720.2V703.01C221.4 702.91 221.3 702.81 221.3 702.81 204.02 692.29 210.49 671.81 214.83 658.48 216.67 652.88 218.02 648.54 217.44 646.12 203.34 586.15 222.46 559.01 263.51 553.21 263.6 553.21 263.7 553.12 263.7 552.93 263.7 551.57 263.7 544.81 263.7 543.36 263.7 543.17 263.8 543.07 263.99 543.07H323.29C323.48 543.07 323.58 543.17 323.58 543.36V552.73C323.58 552.83 323.68 552.93 323.77 553.02 330.15 554.86 336.23 557.46 341.93 560.75 357.09 569.44 367.04 582.86 377.28 608.75 389.93 640.81 395.14 653.17 395.82 654.52 395.82 654.62 395.91 654.62 395.91 654.62 398.04 655.78 424.98 670.75 443.72 680.89 443.82 680.99 443.91 681.08 443.82 681.28L421.41 724.25C421.31 724.35 421.22 724.45 421.12 724.45L389.25 722.51C389.06 722.51 388.96 722.61 388.96 722.71 388.77 724.35 388.29 733.52 388 734.88 388 734.97 387.9 735.07 387.8 735.07 385.68 735.65 359.12 741.06 330.73 741.06Z" fill="#ffab61" opacity="1" stroke-width="4" stroke="none"></path><path d="M221.4 720.49V703.1C221.4 703.01 221.3 702.91 221.3 702.91 204.11 692.77 210.58 671.91 214.83 658.58 216.38 654.04 217.44 650.56 217.54 648.05 217.54 647.76 217.92 647.67 218.02 647.96 235.11 695.86 262.54 720.68 262.54 720.68L221.4 720.49Z" fill="#bf8451" opacity="0.2" stroke-width="4" stroke="none"></path><path d="M458.5 765.49C448.74 765.49 438.22 750.91 434.74 745.6 437.93 758.54 431.65 772.83 422.76 752.74 412.04 729.56 405.38 733.43 382.2 736.52L378.14 737 379.59 679.92C393.5 679.92 414.46 683.3 424.31 685.62 443.82 690.84 472.69 700.78 471.25 709.96 470.18 713.53 462.18 715.39 462.46 715.46 468.44 721.94 475.78 734.49 478.59 739.22 483.61 746.85 483.8 754.67 475.98 755.64 476.07 759.31 475.4 761.92 473.95 763.46 471.73 766.36 465.64 764.62 464.1 763.56 462.46 764.82 460.53 765.49 458.5 765.49Z" fill="#e59763" opacity="1" stroke-width="4" stroke="none"></path><path d="M475.88 755.54C463.52 734.01 446.52 716.43 446.52 716.43" stroke="#030202" stroke-width="4" stroke-linecap="round" stroke-linejoin="round" opacity="1" fill="none"></path><path d="M464.1 763.37C450.87 742.89 435.7 724.25 435.7 724.25" stroke="#030202" stroke-width="4" stroke-linecap="round" stroke-linejoin="round" opacity="1" fill="none"></path><path d="M434.74 745.6L426.72 731.5" stroke="#030202" stroke-width="4" stroke-linecap="round" stroke-linejoin="round" opacity="1" fill="none"></path><path d="M263.99 532.06C263.6 532.06 263.22 532.35 263.22 532.35L261.58 491.79C260.71 478.46 260.42 453.06 275.68 441.86 275.77 441.76 275.97 441.76 276.06 441.86 283.6 448.81 293.64 446.88 303.97 446.88 313.34 446.88 320.49 441.09 328.31 445.34 336.13 449.68 343.28 450.26 346.47 459.34 346.47 459.44 346.47 459.53 346.47 459.63 345.5 460.79 338.16 469.87 322.61 470.16 322.42 470.16 322.32 470.26 322.32 470.45 323 486.09 315.76 492.56 314.5 493.63 314.4 493.72 314.21 493.72 314.11 493.63 310.79 491.95 297.12 476.82 284.18 490.73 272.59 503.09 289.87 520.67 292 522.79 292.09 522.89 292.09 523.08 292 523.18 281.57 531.39 266.89 532.16 263.99 532.06Z" fill="#010005" opacity="1" stroke-width="4" stroke="none"></path><path d="M296.83 505.12L303.97 510.82" stroke="#030202" stroke-width="4" stroke-linecap="round" stroke-linejoin="round" opacity="1" fill="none"></path><path d="M439.47 985.59L427.59 991.48" stroke="#323232" stroke-width="4" stroke-linecap="round" stroke-linejoin="round" opacity="1" fill="none"></path><path d="M217.63 645.93C222.56 664.47 242.07 701.65 262.64 720.29" stroke="#bf8451" stroke-width="4" stroke-linecap="round" stroke-linejoin="round" opacity="1" fill="none"></path><path d="M221.5 702.72H245.93" stroke="#bf8451" stroke-width="4" stroke-linecap="round" stroke-linejoin="round" opacity="1" fill="none"></path><path d="M235.21 720.29V702.72" stroke="#bf8451" stroke-width="4" stroke-linecap="round" stroke-linejoin="round" opacity="1" fill="none"></path><path d="M379.59 679.92C357.19 679.05 311.89 677.03 311.89 677.03" stroke="#bf8451" stroke-width="4" stroke-linecap="round" stroke-linejoin="round" opacity="1" fill="none"></path><path d="M311.89 677.03L289.39 626.23" stroke="#bf8451" stroke-width="4" stroke-linecap="round" stroke-linejoin="round" opacity="1" fill="none"></path><path d="M351.01 678.48L353.9 652.3" stroke="#bf8451" stroke-width="4" stroke-linecap="round" stroke-linejoin="round" opacity="1" fill="none"></path><path d="M263.7 553.21C263.7 553.21 258.58 553.7 253.08 555.34" stroke="#bf8451" stroke-width="4" stroke-linecap="round" stroke-linejoin="round" opacity="1" fill="none"></path><path d="M261.29 491.5C261.29 490.73 261.38 489.09 261.38 488.51 261.38 488.41 261.48 488.31 261.58 488.31 263.51 487.54 278.09 480.59 279.93 479.72 280.02 479.62 280.12 479.53 280.12 479.43 279.06 473.64 274.9 459.34 264.96 459.44 264.57 459.34 264.38 459.05 264.47 458.67L265.63 455.29C269.21 447.46 270.75 445.14 275.97 441.47 283.69 436.16 293.64 433.27 304.07 433.27 325.7 433.27 344.44 444.28 348.98 465.81 348.98 465.91 348.98 466.1 348.88 466.1 345.98 467.65 307.45 488.41 307.45 488.41 307.16 488.51 306.87 488.6 306.68 488.41 303.68 486.96 300.21 485.8 296.83 485.9 289.1 485.61 283.69 488.8 280.6 497.88L262.83 506.57C262.54 506.76 262.16 506.57 262.16 506.18 261.87 503.77 261.38 495.08 261.29 491.5Z" fill="#cecece" opacity="1" stroke-width="4" stroke="none"></path><path d="M309.38 529.17C314.11 531.39 318.56 533.61 323.48 535.15 323.58 535.15 323.68 535.25 323.68 535.44 323.68 536.31 323.58 539.98 323.58 543.27 323.58 545.1 323.58 546.74 323.58 547.71 323.58 548 323.29 548.1 323.1 547.9L309 529.75C308.8 529.36 309.09 529.07 309.38 529.17Z" fill="#030202" opacity="0.2" stroke-width="4" stroke="none"></path><path d="M311.89 677.03L289.58 626.61C289.49 626.42 289.68 626.23 289.87 626.23 291.71 626.32 299.63 628.16 311.22 647.47 316.43 656.17 322.42 663.51 329.66 663.99 337.39 664.47 342.99 659.74 347.34 655.39 349.85 652.98 352.74 652.4 353.71 652.3 353.9 652.3 354 652.4 354 652.59L351.01 678.96 311.89 677.03Z" fill="#bf8451" opacity="0.2" stroke-width="4" stroke="none"></path><path d="M308.61 487.74L364.24 457.89" stroke="#cecece" stroke-width="4" stroke-linecap="round" stroke-linejoin="round" opacity="1" fill="none"></path><path d="M350.43 1029.44C349.36 1024.61 348.21 1019.49 347.24 1014.37 347.24 1014.18 347.34 1014.08 347.53 1014.08L470.09 1013.7C470.18 1013.7 470.28 1013.79 470.38 1013.89 473.85 1021.71 473.08 1028.28 472.98 1029.53 472.98 1029.63 472.89 1029.53 472.69 1029.53 466.9 1029.53 356.41 1029.53 350.81 1029.53 350.52 1029.44 350.43 1029.53 350.43 1029.44Z" fill="#323232" opacity="1" stroke-width="4" stroke="none"></path><path d="M466.8 702.14C469.7 704.36 471.53 706.87 471.44 709.38 471.15 714.6 462.55 715.46 462.55 715.46 462.55 715.46 471.63 726.28 477.04 736.42" stroke="#030202" stroke-width="4" stroke-linecap="round" stroke-linejoin="round" opacity="1" fill="none"></path><path d="M501.47 725.99L484.86 718.46" stroke="#030202" stroke-width="4" stroke-linecap="round" stroke-linejoin="round" opacity="1" fill="none"></path><path d="M497.13 736.42L480.61 728.99" stroke="#030202" stroke-width="4" stroke-linecap="round" stroke-linejoin="round" opacity="1" fill="none"></path></g><g><path d="M252.65 855.22C258 855.22 262.4 859.55 262.4 864.9L262.33 890.23V995.03C262.33 1000.38 258 1004.71 252.65 1004.71 247.3 1004.71 242.97 1000.38 242.97 995.03V864.9C242.89 859.55 247.22 855.22 252.65 855.22Z" fill="#ffffff" opacity="1" stroke-width="4" stroke="none"></path><path d="M252.65 855.22C247.22 855.22 242.89 859.55 242.97 864.9V899.04L262.33 890.23 262.4 864.9C262.33 859.55 258 855.22 252.65 855.22Z" fill="#2c2c2c" opacity="0.2" stroke-width="4" stroke="none"></path><path d="M320.55 1017.69C319.21 1016.51 253.2 958.84 253.2 958.84H252.02C252.02 958.84 186.01 1016.51 184.67 1017.69 183.02 1018.63 181.21 1023.27 183.81 1026.26 185.85 1028.78 189.47 1029.41 192.23 1027.6 192.38 1027.52 228.5 1002.74 250.13 987.87 251.63 986.85 253.51 986.85 255.01 987.87 276.64 1002.74 312.84 1027.52 312.91 1027.6 315.75 1029.41 319.44 1028.7 321.33 1026.26 324.01 1023.19 322.2 1018.63 320.55 1017.69Z" fill="#001935" opacity="1" stroke-width="4" stroke="none"></path><path d="M236.91 955.06H268.3C270.19 955.06 271.69 956.56 271.69 958.44V975.28H233.45V958.44C233.53 956.56 235.03 955.06 236.91 955.06Z" fill="#5b422c" opacity="1" stroke-width="4" stroke="none"></path><path d="M233.53 849.09H271.77V875.28C271.77 876.62 270.67 877.8 269.25 877.8H235.97C234.63 877.8 233.53 876.7 233.53 875.28V849.09Z" fill="#5b422c" opacity="1" stroke-width="4" stroke="none"></path><path d="M196.08 833.51H309.14C316.69 833.51 322.75 839.64 322.75 847.12 322.75 854.67 316.61 860.73 309.14 860.73H196.08C188.53 860.73 182.47 854.59 182.47 847.12 182.47 839.64 188.61 833.51 196.08 833.51Z" fill="#001935" opacity="1" stroke-width="4" stroke="none"></path></g></svg>