<svg width="52" height="41" viewBox="0 0 52 41" fill="none" xmlns="http://www.w3.org/2000/svg">
<path d="M39.8139 9.28784C45.9718 10.1871 51.5732 16.5504 51.9196 23.0294C52.3659 31.4857 47.7199 38.0119 39.4465 39.8263C37.1293 40.3949 34.708 40.3813 32.3973 39.7869C30.0868 39.1924 27.9585 38.0353 26.2017 36.4185L26.5377 36.0452C27.1469 36.0209 27.7529 35.9435 28.3487 35.8137C32.1653 34.7094 34.7901 32.0274 36.8112 28.83C40.6381 22.7927 42.2551 16.3295 39.8139 9.28784Z" fill="#FE9E60"/>
<path d="M19.8858 39.4942C14.6362 41.1298 9.84329 39.9675 5.71183 36.5651C-3.31228 29.15 -1.30168 14.8352 9.33932 10.0707C9.82458 9.88746 10.3208 9.73466 10.825 9.61316C9.72348 12.61 9.47628 15.8549 10.111 18.9846C11.2607 25.1269 14.064 30.4174 19.2611 34.1827C19.4711 35.9603 19.6759 37.7272 19.8858 39.4942Z" fill="#49C9FA"/>
<path d="M19.2611 34.1827C14.064 30.4016 11.2607 25.1111 10.111 18.9687C9.47627 15.839 9.72347 12.5942 10.825 9.59732L11.2502 9.15557C12.3316 9.07143 13.4183 9.00306 14.4996 8.89789C18.7466 8.49296 22.4896 9.60784 25.6289 12.5791C25.3517 13.0625 25.0319 13.52 24.6734 13.9464C20.353 18.3271 19.7546 26.3365 22.1851 31.0536C23.0775 32.7733 24.2535 34.351 25.3034 35.9971C23.0304 36.2862 21.1404 35.2344 19.2611 34.1827Z" fill="#8770EE"/>
<path d="M39.8127 9.28795C42.2537 16.3296 40.6368 22.7928 36.8098 28.83C34.7887 32.0274 32.1639 34.7095 28.3475 35.8139C27.7464 35.9445 27.1351 36.0219 26.5206 36.0453C27.014 35.3878 27.5127 34.7305 28.0063 34.068C29.4656 32.1775 30.4747 29.9783 30.9569 27.6379C31.439 25.2976 31.3815 22.8778 30.7885 20.563C30.0904 17.455 28.3054 14.9255 26.2476 12.5852C29.1664 9.89272 32.6679 8.80414 36.5788 8.83042C37.5133 8.83042 38.4478 8.83042 39.3821 8.83042L39.8127 9.28795Z" fill="#B96BD2"/>
<path d="M39.3721 8.83004C38.4377 8.83004 37.5033 8.83004 36.5688 8.83004C32.6579 8.80375 29.1564 9.88182 26.2376 12.5849H25.6443C22.4946 9.63465 18.762 8.51977 14.5152 8.90367C13.4337 9.00884 12.3471 9.07722 11.2656 9.16135C13.6804 3.15569 20.7517 -0.84634 27.298 0.152852C32.7786 0.994276 36.9206 3.7289 39.3721 8.83004Z" fill="#BA93F8"/>
<path d="M25.6294 12.5741H26.2225C28.3225 14.9143 30.0916 17.4439 30.8054 20.5519C31.3984 22.8666 31.4561 25.2863 30.9738 27.6268C30.4917 29.9672 29.4825 32.1664 28.0232 34.0567C27.5298 34.7194 27.0311 35.3767 26.5375 36.0342L26.2016 36.4075L25.8813 36.3497L25.3091 35.9868C24.2592 34.3408 23.0833 32.7631 22.1908 31.0434C19.7603 26.3104 20.3587 18.3169 24.6792 13.9362C25.0355 13.5112 25.3536 13.0554 25.6294 12.5741Z" fill="#AA5ED1"/>
<path d="M25.3083 35.9975L25.8805 36.3605L19.8854 39.5158C19.6755 37.7487 19.4707 35.9817 19.2607 34.2201C21.1401 35.235 23.0299 36.2868 25.3083 35.9975Z" fill="#4C83DC"/>
</svg>
