<svg id="svg" version="1.1" xmlns="http://www.w3.org/2000/svg" xmlns:xlink="http://www.w3.org/1999/xlink" width="400" height="71.64179104477613" viewBox="0, 0, 400,71.64179104477613"><g id="svgg"><path id="path0" d="M31.453 8.015 C 30.124 8.328,29.485 8.887,28.993 10.167 C 28.815 10.630,28.748 13.529,28.668 24.250 C 28.554 39.589,28.634 38.724,27.170 40.397 C 25.588 42.204,25.890 43.308,29.586 49.246 C 31.829 52.849,32.787 53.730,33.764 53.089 C 34.816 52.400,34.750 53.883,34.750 30.833 L 34.750 9.917 34.367 9.140 C 33.816 8.021,32.911 7.672,31.453 8.015 M270.294 8.761 C 269.338 9.279,269.272 9.635,269.144 14.917 C 269.079 17.575,268.956 19.977,268.869 20.255 C 268.612 21.076,268.062 22.060,267.660 22.417 C 266.234 23.683,266.088 24.414,267.053 25.465 C 269.147 27.747,269.039 26.965,269.153 40.667 C 269.261 53.546,269.195 52.844,270.387 53.733 C 271.061 54.235,272.939 54.235,273.613 53.733 C 274.806 52.843,274.740 53.538,274.838 40.750 C 274.946 26.572,274.822 27.200,277.972 24.833 C 278.602 24.360,278.575 24.049,277.870 23.629 C 275.297 22.096,274.849 20.727,274.829 14.333 C 274.816 10.201,274.624 9.577,273.132 8.816 C 272.385 8.434,270.947 8.407,270.294 8.761 M84.885 9.158 C 83.333 9.862,82.616 11.635,83.189 13.350 C 84.207 16.395,89.115 16.147,89.929 13.010 C 90.656 10.209,87.641 7.907,84.885 9.158 M317.965 8.998 C 316.115 9.556,315.257 11.870,316.187 13.792 C 317.342 16.178,321.236 16.051,322.353 13.590 C 323.606 10.832,320.984 8.088,317.965 8.998 M4.508 9.777 C 3.917 10.529,3.917 10.535,3.917 31.583 L 3.917 52.083 4.294 52.789 C 5.281 54.637,8.123 54.653,9.167 52.817 L 9.583 52.083 9.680 38.583 C 9.741 30.070,9.841 24.860,9.950 24.479 C 10.240 23.462,10.826 22.614,11.704 21.939 L 12.543 21.295 12.450 20.401 C 12.240 18.362,7.562 10.305,6.172 9.586 C 5.442 9.209,4.907 9.270,4.508 9.777 M206.792 23.513 C 206.296 23.802,206.457 24.143,207.719 25.469 C 209.447 27.284,210.022 28.349,210.618 30.833 C 210.832 31.725,210.896 33.703,210.981 42.000 C 211.080 51.798,211.093 52.102,211.431 52.750 C 212.557 54.906,215.914 54.576,216.593 52.242 C 216.985 50.894,216.863 33.524,216.445 31.216 C 215.945 28.451,215.150 26.948,213.442 25.538 C 211.543 23.969,207.908 22.863,206.792 23.513 M375.667 23.523 C 371.881 24.129,369.132 27.760,369.378 31.833 C 369.624 35.934,372.157 38.508,378.387 40.990 C 383.165 42.893,384.433 43.900,385.108 46.327 C 385.632 48.213,384.931 50.486,383.178 52.583 C 381.892 54.121,382.107 54.464,384.245 54.292 C 388.313 53.966,391.391 49.941,390.905 45.583 C 390.428 41.306,388.498 39.491,381.333 36.585 C 376.413 34.589,375.090 33.229,375.085 30.167 C 375.083 28.245,375.561 27.074,377.062 25.333 C 378.115 24.111,378.221 23.722,377.542 23.571 C 376.678 23.379,376.582 23.376,375.667 23.523 M51.384 23.675 C 46.523 24.635,43.624 28.330,43.006 34.355 C 41.862 45.498,44.342 51.523,50.811 53.316 C 54.468 54.329,55.143 53.934,53.092 51.981 C 49.283 48.351,48.762 46.624,48.874 38.000 C 48.974 30.322,49.536 28.686,53.327 25.034 C 54.802 23.613,54.118 23.135,51.384 23.675 M65.125 23.680 C 64.657 23.953,64.755 24.126,66.292 25.740 C 69.757 29.381,70.167 31.019,70.167 41.252 C 70.167 48.577,70.131 48.874,68.992 50.950 C 67.940 52.869,68.026 52.996,70.667 53.432 C 75.937 54.301,75.900 54.366,75.969 44.000 C 76.051 31.678,75.653 29.464,72.847 26.649 C 70.710 24.504,66.493 22.883,65.125 23.680 M84.716 23.827 C 83.525 24.553,83.588 23.773,83.538 38.319 C 83.486 53.001,83.469 52.744,84.598 53.606 C 85.810 54.530,87.824 54.279,88.629 53.103 C 89.285 52.147,89.355 50.556,89.301 37.903 L 89.250 26.083 88.785 25.137 C 88.041 23.621,86.086 22.992,84.716 23.827 M105.667 23.674 C 105.162 23.743,103.599 23.808,102.192 23.817 C 99.124 23.837,98.708 23.972,98.132 25.140 L 97.750 25.917 97.701 38.053 C 97.651 50.545,97.717 52.208,98.293 52.979 C 99.344 54.387,101.574 54.585,102.700 53.371 C 103.555 52.449,103.557 52.418,103.669 42.083 C 103.785 31.321,103.804 31.132,105.030 28.699 C 105.541 27.684,107.528 25.167,107.818 25.167 C 107.897 25.167,108.169 24.893,108.424 24.559 C 109.184 23.562,108.369 23.300,105.667 23.674 M129.153 23.754 C 123.181 25.204,120.597 30.151,120.884 39.583 C 121.133 47.733,123.122 51.428,128.145 53.068 C 132.432 54.468,133.245 54.073,130.888 51.734 C 127.364 48.235,126.833 46.533,126.840 38.750 C 126.848 31.035,127.415 29.167,130.831 25.615 C 132.845 23.521,132.353 22.977,129.153 23.754 M143.033 23.700 C 142.700 24.033,142.775 24.150,144.458 25.907 C 147.841 29.438,148.042 30.213,148.127 40.022 C 148.199 48.471,148.178 48.687,147.061 50.953 C 146.022 53.060,146.380 53.335,150.509 53.608 C 153.936 53.834,154.044 53.603,154.134 45.833 C 154.284 32.852,153.694 29.326,150.912 26.585 C 148.853 24.556,143.967 22.767,143.033 23.700 M182.278 23.611 C 182.021 23.868,182.219 24.255,183.103 25.224 C 186.121 28.531,186.181 28.844,186.314 42.000 C 186.428 53.162,186.400 52.896,187.535 53.725 C 188.184 54.199,189.667 54.292,190.512 53.911 C 192.099 53.196,192.155 52.705,192.162 39.488 C 192.166 30.556,192.208 28.649,192.433 27.342 C 192.779 25.325,192.732 25.270,190.417 25.029 C 189.275 24.910,188.112 24.642,186.724 24.178 C 184.772 23.525,182.637 23.252,182.278 23.611 M232.833 23.748 C 230.152 24.340,227.264 26.391,226.279 28.401 C 223.997 33.063,224.042 44.295,226.362 48.890 C 227.674 51.489,231.606 53.667,234.986 53.667 C 236.337 53.667,236.309 53.470,234.751 51.979 C 230.462 47.876,229.603 42.765,232.749 40.077 C 233.898 39.095,233.908 39.170,232.435 37.761 C 229.390 34.849,230.243 29.734,234.496 25.401 C 235.504 24.374,235.835 23.935,235.702 23.802 C 235.414 23.514,234.016 23.487,232.833 23.748 M246.792 23.615 C 246.251 23.756,246.495 24.254,247.678 25.421 C 251.725 29.415,252.660 34.339,250.031 37.807 C 249.212 38.886,249.267 39.086,250.476 39.452 C 252.723 40.130,255.675 39.814,256.629 38.793 C 257.967 37.360,257.458 30.982,255.776 28.112 C 254.216 25.451,249.259 22.970,246.792 23.615 M299.282 23.607 C 299.223 23.666,297.640 23.760,295.765 23.815 L 292.355 23.917 291.848 24.402 C 290.895 25.315,290.917 24.980,290.917 39.000 L 290.917 51.917 291.309 52.714 C 292.256 54.636,295.195 54.681,296.206 52.789 C 296.581 52.088,296.584 52.024,296.686 42.917 C 296.750 37.256,296.863 33.307,296.982 32.592 C 297.529 29.303,298.148 28.037,300.290 25.818 C 301.890 24.159,302.093 23.775,301.458 23.605 C 300.958 23.471,299.417 23.472,299.282 23.607 M317.715 23.772 C 317.371 23.941,317.042 24.313,316.798 24.809 L 316.417 25.583 316.369 38.138 C 316.320 51.027,316.367 52.177,316.969 52.990 C 318.196 54.645,320.773 54.536,321.706 52.789 L 322.083 52.083 322.130 39.509 C 322.163 30.745,322.121 26.664,321.991 26.041 C 321.573 24.024,319.467 22.907,317.715 23.772 M338.167 23.891 C 335.569 24.665,333.073 26.538,332.118 28.429 C 330.060 32.504,330.009 44.471,332.033 48.667 C 333.336 51.368,337.313 53.667,340.685 53.667 C 342.044 53.667,341.983 53.451,340.101 51.597 C 337.094 48.633,336.342 46.083,336.338 38.833 C 336.333 31.432,337.141 28.667,340.198 25.618 C 341.006 24.812,341.667 24.052,341.667 23.928 C 341.667 23.377,339.950 23.359,338.167 23.891 M163.345 24.282 C 161.805 25.094,161.810 25.040,161.868 39.701 C 161.915 51.699,161.927 52.104,162.250 52.748 C 163.091 54.425,165.653 54.731,166.935 53.308 C 167.726 52.430,167.725 52.440,167.826 39.917 L 167.921 28.083 168.325 26.632 C 168.715 25.233,168.719 25.168,168.432 24.850 C 167.827 24.182,164.285 23.787,163.345 24.282 " stroke="none" fill="#e8eaf2" fill-rule="evenodd"></path><path id="path1" d="M31.224 5.006 C 26.377 5.871,26.170 6.516,26.167 20.833 C 26.164 32.892,26.066 33.887,24.939 33.374 C 24.201 33.037,23.560 32.032,14.868 17.583 C 9.181 8.129,8.968 7.802,7.843 6.791 C 5.609 4.782,2.576 5.190,1.437 7.651 L 1.083 8.417 1.083 31.083 C 1.083 52.787,1.097 53.784,1.394 54.554 C 2.561 57.580,9.564 58.056,11.540 55.244 C 12.465 53.928,12.495 53.574,12.506 43.750 C 12.521 31.052,12.649 29.415,13.619 29.532 C 14.403 29.626,17.108 33.777,24.243 45.833 C 30.096 55.722,30.977 56.736,33.692 56.711 C 35.981 56.689,37.061 55.272,37.346 51.917 C 37.646 48.399,37.465 8.955,37.144 7.881 C 36.402 5.392,34.430 4.435,31.224 5.006 M268.564 5.734 C 266.547 6.673,266.307 7.489,266.183 13.833 C 266.066 19.812,266.125 19.604,264.182 20.904 C 261.304 22.830,261.157 25.591,263.833 27.487 C 266.241 29.192,266.064 28.116,266.171 41.667 C 266.275 54.848,266.208 54.223,267.677 55.693 C 269.597 57.613,274.349 57.618,276.325 55.701 C 277.772 54.298,277.720 54.794,277.825 41.500 L 277.917 29.917 278.298 29.303 C 278.736 28.598,279.482 28.262,281.188 28.002 C 284.469 27.501,286.100 25.270,284.918 22.898 C 284.245 21.548,283.306 21.027,280.895 20.666 C 277.952 20.226,277.947 20.216,277.815 14.417 C 277.696 9.166,277.582 8.597,276.398 7.331 C 274.746 5.565,270.699 4.740,268.564 5.734 M84.214 6.233 C 81.389 7.152,80.271 8.830,80.258 12.167 C 80.235 18.104,86.079 20.818,90.737 17.035 C 94.224 14.203,93.355 8.094,89.238 6.496 C 88.007 6.018,85.308 5.877,84.214 6.233 M317.083 6.233 C 312.638 7.639,311.472 13.880,315.054 17.100 C 320.110 21.646,327.628 16.105,325.173 9.643 C 324.108 6.839,320.275 5.224,317.083 6.233 M34.340 6.708 C 34.942 7.012,35.178 7.273,35.583 8.083 L 36.083 9.083 36.083 30.750 C 36.083 48.690,36.044 52.531,35.854 53.083 C 34.892 55.885,32.302 55.814,30.258 52.929 C 29.233 51.483,26.430 46.830,24.877 44.000 C 23.384 41.277,16.792 30.305,15.398 28.222 C 13.545 25.453,12.299 24.924,11.548 26.589 C 11.273 27.199,11.243 28.225,11.155 39.833 C 11.055 53.047,11.055 53.040,10.283 54.186 C 8.652 56.609,3.620 55.966,2.551 53.198 C 2.160 52.183,2.076 10.657,2.463 9.383 C 2.929 7.846,4.307 6.970,5.683 7.334 C 7.312 7.765,8.645 9.660,14.419 19.750 C 17.202 24.613,22.473 33.337,23.805 35.285 C 25.456 37.699,26.534 37.875,27.127 35.828 C 27.353 35.047,27.405 33.120,27.487 22.333 L 27.583 9.750 28.022 8.816 C 28.990 6.751,32.261 5.660,34.340 6.708 M273.886 7.461 C 274.963 7.965,275.611 8.610,276.020 9.584 C 276.161 9.920,276.264 11.582,276.334 14.667 C 276.481 21.095,276.645 21.408,280.238 22.078 C 284.631 22.897,284.541 25.743,280.096 26.576 C 276.280 27.291,276.451 26.621,276.339 41.250 C 276.241 54.142,276.296 53.519,275.155 54.629 C 273.743 56.005,270.261 56.011,268.859 54.641 C 267.710 53.518,267.767 54.154,267.659 41.250 C 267.592 33.290,267.502 29.409,267.374 29.036 C 267.030 28.032,266.493 27.358,265.434 26.602 C 263.107 24.941,263.142 23.728,265.570 21.904 C 267.522 20.437,267.658 19.917,267.663 13.905 C 267.668 8.959,267.997 7.779,269.575 7.057 C 270.443 6.659,272.606 6.862,273.886 7.461 M88.952 8.011 C 93.425 10.187,91.694 16.966,86.647 17.040 C 82.853 17.096,80.457 13.556,81.918 10.054 C 82.929 7.630,86.209 6.677,88.952 8.011 M321.524 7.860 C 325.305 9.486,324.934 15.443,320.971 16.760 C 317.088 18.049,313.657 14.979,314.491 10.962 C 315.104 8.006,318.442 6.534,321.524 7.860 M56.083 19.611 C 43.504 21.157,39.344 26.889,40.178 41.529 C 40.750 51.570,44.624 55.810,54.617 57.329 C 58.989 57.994,60.782 57.950,65.917 57.049 C 68.467 56.602,69.742 56.539,73.500 56.675 C 76.758 56.792,78.169 55.885,79.040 53.114 C 79.570 51.429,79.622 37.143,79.110 34.083 C 77.654 25.394,73.215 21.182,64.083 19.824 C 62.081 19.526,57.721 19.410,56.083 19.611 M109.583 19.749 C 108.758 19.874,107.371 20.146,106.500 20.351 C 105.223 20.653,104.223 20.744,101.333 20.821 C 96.705 20.945,95.950 21.316,95.043 23.912 C 94.600 25.179,94.593 52.243,95.034 53.667 C 95.925 56.535,99.490 57.890,103.215 56.776 C 106.272 55.861,106.499 54.986,106.503 44.117 C 106.508 28.937,106.880 27.980,113.301 26.672 C 117.275 25.863,118.350 24.967,118.128 22.651 C 117.873 20.001,114.793 18.955,109.583 19.749 M134.167 19.609 C 128.843 20.421,126.586 21.182,123.705 23.141 C 119.687 25.874,118.133 30.176,118.129 38.583 C 118.122 51.001,121.927 55.786,133.083 57.392 C 137.288 57.997,138.649 57.947,144.641 56.967 C 147.832 56.445,147.889 56.441,150.224 56.645 C 154.436 57.014,156.002 56.224,156.788 53.333 C 157.453 50.891,157.158 34.212,156.388 30.750 C 154.802 23.613,147.656 19.432,137.200 19.523 C 135.761 19.535,134.396 19.574,134.167 19.609 M173.500 19.738 C 172.721 19.860,171.108 20.206,169.917 20.507 C 167.912 21.013,167.538 21.055,164.917 21.071 C 158.912 21.106,159.005 20.811,158.951 39.966 L 158.917 52.417 159.288 53.597 C 160.069 56.081,161.563 57.043,164.667 57.060 C 167.911 57.077,169.410 56.232,170.221 53.926 C 170.339 53.591,170.431 49.318,170.492 41.417 L 170.583 29.417 171.000 28.586 C 172.345 25.905,179.616 25.914,181.980 28.600 C 183.450 30.270,183.667 32.250,183.667 43.994 C 183.667 53.764,183.736 54.386,184.977 55.724 C 186.699 57.580,191.568 57.608,193.403 55.772 C 194.784 54.391,194.727 54.967,194.828 41.495 L 194.917 29.574 195.338 28.755 C 196.575 26.353,203.319 25.884,205.966 28.016 C 207.857 29.538,207.877 29.680,208.002 42.250 C 208.112 53.269,208.123 53.444,208.795 54.755 C 210.255 57.602,216.480 58.017,218.628 55.410 C 219.725 54.080,220.149 48.414,219.951 37.750 C 219.732 25.910,216.202 21.207,206.447 19.758 C 201.447 19.016,197.114 19.547,191.583 21.579 C 190.103 22.123,189.518 22.062,186.889 21.091 C 183.037 19.666,177.520 19.109,173.500 19.738 M236.621 19.746 C 230.463 20.624,225.468 23.448,223.789 27.000 C 219.976 35.070,221.055 48.387,225.893 52.963 C 232.514 59.225,249.776 59.328,255.988 53.143 C 258.703 50.439,257.501 46.427,253.986 46.457 C 252.902 46.466,252.397 46.696,249.979 48.280 C 243.182 52.733,234.000 50.762,234.000 44.850 C 234.000 42.838,234.023 42.834,245.532 42.832 C 257.131 42.831,257.931 42.717,259.205 40.899 C 260.704 38.761,260.492 31.093,258.841 27.750 C 255.841 21.673,246.559 18.330,236.621 19.746 M302.552 19.759 C 301.710 19.882,300.360 20.148,299.552 20.349 C 298.369 20.645,297.387 20.737,294.500 20.820 C 290.762 20.928,290.654 20.949,289.539 21.781 C 288.993 22.189,288.327 23.318,288.084 24.250 C 288.012 24.525,287.970 31.076,287.990 38.808 C 288.031 54.077,288.017 53.834,288.960 55.219 C 290.805 57.926,297.382 57.683,298.822 54.854 C 299.523 53.477,299.539 53.238,299.667 42.750 C 299.773 34.073,299.832 32.425,300.069 31.502 C 300.814 28.611,302.551 27.331,306.667 26.641 C 310.417 26.013,311.972 24.531,311.321 22.207 C 310.647 19.799,307.776 18.997,302.552 19.759 M342.198 19.762 C 331.682 21.294,327.612 26.539,327.592 38.583 C 327.575 49.339,330.285 53.965,338.040 56.420 C 348.788 59.822,363.210 56.133,363.244 49.973 C 363.263 46.558,359.966 45.647,356.297 48.053 C 350.095 52.121,342.152 51.549,340.155 46.890 C 338.835 43.810,338.906 33.357,340.269 30.322 C 342.133 26.168,348.842 25.440,355.630 28.655 C 358.768 30.142,360.043 30.168,361.439 28.772 C 366.368 23.843,353.986 18.045,342.198 19.762 M378.084 19.850 C 370.912 20.731,366.500 25.113,366.500 31.355 C 366.500 37.072,369.844 40.707,378.125 43.993 C 381.359 45.276,382.331 46.113,382.333 47.614 C 382.335 50.567,378.750 51.817,374.250 50.431 C 369.810 49.063,366.707 50.920,368.144 54.085 C 369.316 56.664,376.867 58.843,381.768 58.015 C 389.826 56.654,393.375 53.378,393.625 47.068 C 393.872 40.848,391.488 37.710,384.263 34.748 C 379.024 32.599,378.000 31.837,378.000 30.083 C 378.000 27.494,380.584 26.495,385.293 27.265 C 389.798 28.002,392.294 26.101,390.820 23.056 C 389.675 20.691,383.628 19.169,378.084 19.850 M84.372 20.258 C 82.766 20.691,81.614 21.616,81.077 22.905 C 80.333 24.689,79.596 48.247,80.173 51.798 C 80.769 55.475,82.624 57.063,86.333 57.070 C 90.223 57.078,91.832 55.606,92.193 51.708 C 92.478 48.641,92.280 25.597,91.961 24.539 C 91.031 21.461,87.436 19.433,84.372 20.258 M317.655 20.184 C 315.992 20.431,314.488 21.566,313.813 23.083 L 313.443 23.917 313.483 38.333 C 313.532 55.549,313.485 55.189,315.833 56.371 C 319.369 58.151,323.741 56.878,324.788 53.764 C 325.494 51.666,325.263 25.362,324.523 23.638 C 323.597 21.476,320.259 19.798,317.655 20.184 M64.583 21.415 C 71.812 22.522,75.650 25.756,77.047 31.917 C 77.463 33.752,77.698 50.826,77.332 52.590 C 76.919 54.578,75.832 55.264,73.250 55.167 C 69.759 55.036,68.116 55.106,66.333 55.463 C 55.065 57.721,45.536 54.820,42.796 48.297 C 40.793 43.530,41.031 32.558,43.236 28.083 C 45.939 22.595,54.608 19.887,64.583 21.415 M114.786 21.354 C 115.466 21.567,116.167 22.390,116.167 22.976 C 116.167 24.028,115.267 24.603,112.750 25.161 C 108.650 26.070,106.444 27.977,105.557 31.380 C 105.330 32.251,105.268 33.998,105.168 42.333 C 105.036 53.389,105.029 53.460,103.909 54.580 C 102.186 56.303,98.181 55.968,96.968 54.000 C 96.207 52.765,96.139 51.317,96.205 37.667 C 96.284 21.563,96.062 22.222,101.377 22.304 C 103.730 22.341,104.274 22.292,106.608 21.834 C 110.726 21.026,113.264 20.877,114.786 21.354 M140.667 21.178 C 148.635 21.911,153.544 25.243,154.894 30.833 C 155.578 33.663,155.776 51.993,155.137 53.333 C 154.403 54.875,153.594 55.266,151.333 55.172 C 147.930 55.029,146.119 55.104,144.333 55.460 C 133.598 57.602,123.946 54.936,121.241 49.083 C 118.804 43.811,118.858 33.102,121.349 27.884 C 123.669 23.022,131.432 20.327,140.667 21.178 M180.667 21.170 C 183.115 21.424,184.735 21.804,186.914 22.636 C 189.659 23.685,190.470 23.683,193.277 22.620 C 201.831 19.382,212.672 21.140,216.137 26.328 C 218.060 29.208,218.377 31.807,218.302 44.083 C 218.243 53.847,218.271 53.623,216.966 54.741 C 215.390 56.090,211.923 55.945,210.550 54.472 C 209.572 53.425,209.594 53.667,209.484 42.333 C 209.363 29.788,209.226 28.907,207.095 27.050 C 203.445 23.868,195.015 24.653,193.809 28.287 C 193.654 28.757,193.577 31.943,193.509 40.833 C 193.406 54.115,193.454 53.589,192.231 54.724 C 190.638 56.201,186.870 55.898,185.727 54.202 C 185.060 53.212,185.000 52.357,184.998 43.867 C 184.993 29.371,184.645 27.847,180.907 25.954 C 177.803 24.382,171.965 24.875,170.272 26.853 C 169.245 28.053,169.277 27.645,169.176 40.750 C 169.073 54.128,169.123 53.582,167.896 54.729 C 166.374 56.152,162.453 55.906,161.320 54.315 C 160.528 53.203,160.505 52.777,160.503 39.064 C 160.499 21.684,160.215 22.606,165.583 22.562 C 168.144 22.542,168.609 22.491,170.417 22.034 C 174.119 21.097,177.345 20.826,180.667 21.170 M246.301 21.428 C 251.898 22.267,255.951 24.820,257.681 28.598 C 259.204 31.925,259.185 38.649,257.647 40.186 C 256.590 41.243,256.801 41.224,245.167 41.325 C 233.500 41.426,233.876 41.390,232.957 42.482 C 232.093 43.510,232.217 45.555,233.271 47.663 C 235.947 53.012,244.127 53.887,250.842 49.541 C 253.656 47.720,255.148 47.703,255.682 49.487 C 257.116 54.273,243.413 57.906,233.667 55.324 C 225.630 53.195,223.242 49.280,223.255 38.250 C 223.269 26.245,227.001 22.092,238.667 21.099 C 240.034 20.983,244.660 21.182,246.301 21.428 M308.255 21.430 C 310.522 22.506,309.476 24.480,306.324 25.073 C 302.569 25.780,300.310 27.231,299.230 29.630 C 298.377 31.522,298.287 32.661,298.172 43.000 C 298.058 53.195,298.061 53.156,297.217 54.293 C 295.729 56.297,291.339 56.074,290.083 53.930 C 289.408 52.780,289.336 51.315,289.336 38.833 C 289.336 21.789,289.200 22.218,294.558 22.305 C 296.751 22.341,297.328 22.287,299.560 21.840 C 303.930 20.965,306.973 20.822,308.255 21.430 M351.405 21.338 C 357.865 22.258,362.382 25.554,359.967 27.585 C 359.132 28.288,358.078 28.175,355.997 27.157 C 347.857 23.177,340.043 24.998,338.441 31.250 C 337.335 35.566,337.667 44.997,339.024 47.799 C 341.400 52.708,350.002 53.840,355.971 50.030 C 359.157 47.996,360.638 47.790,361.319 49.285 C 362.828 52.598,356.295 55.888,347.750 56.119 C 339.381 56.345,333.035 53.862,330.833 49.500 C 328.477 44.832,328.528 32.235,330.921 27.680 C 333.561 22.656,342.099 20.012,351.405 21.338 M384.346 21.576 C 388.105 22.143,390.019 23.707,388.725 25.156 C 388.087 25.870,387.346 25.949,384.729 25.584 C 379.734 24.886,376.500 26.631,376.500 30.024 C 376.500 32.401,377.768 33.602,382.173 35.395 C 383.407 35.898,384.925 36.537,385.547 36.816 C 395.342 41.217,394.560 53.579,384.333 55.988 C 377.289 57.646,368.163 55.196,370.256 52.209 C 370.811 51.417,371.730 51.395,374.417 52.109 C 379.795 53.539,383.757 51.652,383.747 47.667 C 383.740 45.235,382.703 44.257,378.259 42.497 C 370.168 39.292,367.024 35.304,368.056 29.558 C 369.167 23.377,375.549 20.250,384.346 21.576 M88.182 22.356 C 89.138 22.767,90.033 23.693,90.355 24.603 C 90.541 25.131,90.583 27.793,90.583 39.088 L 90.583 52.926 90.158 53.753 C 88.688 56.608,83.378 56.243,82.306 53.213 C 81.918 52.117,81.985 25.005,82.378 23.987 C 83.144 22.001,85.693 21.285,88.182 22.356 M320.906 22.344 C 322.400 22.903,323.204 24.017,323.503 25.946 C 323.786 27.770,323.647 52.408,323.350 53.167 C 322.051 56.474,316.784 56.633,315.298 53.411 L 314.917 52.583 314.867 39.508 C 314.815 25.559,314.856 24.642,315.598 23.377 C 316.465 21.897,318.601 21.481,320.906 22.344 M57.106 25.431 C 53.671 26.263,51.350 28.658,50.539 32.210 C 49.712 35.830,50.215 45.283,51.354 47.542 C 54.374 53.529,66.677 54.109,68.462 48.348 C 69.179 46.031,68.789 33.397,67.920 30.815 C 66.507 26.617,61.828 24.288,57.106 25.431 M135.167 25.432 C 129.796 26.859,128.250 29.873,128.250 38.917 C 128.250 45.657,128.679 47.319,131.022 49.662 C 135.082 53.722,144.902 53.039,146.457 48.589 C 146.889 47.353,146.885 34.243,146.452 32.339 C 145.258 27.083,140.322 24.063,135.167 25.432 M238.562 25.496 C 234.661 26.519,232.167 29.609,232.167 33.418 C 232.167 36.445,233.007 36.750,241.333 36.750 L 247.583 36.750 248.417 36.333 C 250.309 35.387,250.551 32.573,249.005 29.510 C 247.323 26.179,242.715 24.408,238.562 25.496 M62.319 27.149 C 66.549 28.466,67.434 31.151,67.302 42.271 C 67.219 49.204,66.998 49.672,63.457 50.403 C 57.524 51.629,53.155 49.603,51.899 45.044 C 51.249 42.685,51.430 33.724,52.171 31.571 C 53.526 27.633,57.837 25.754,62.319 27.149 M140.341 27.154 C 144.560 28.464,145.334 30.594,145.332 40.887 C 145.331 49.359,145.191 49.700,141.425 50.420 C 136.260 51.408,132.104 49.954,130.581 46.625 C 129.010 43.190,129.145 33.679,130.812 30.375 C 132.358 27.312,136.425 25.937,140.341 27.154 M242.860 26.903 C 246.141 27.535,248.223 29.647,248.458 32.579 C 248.654 35.015,248.203 35.207,242.083 35.297 C 234.312 35.412,233.321 35.028,233.841 32.102 C 234.543 28.154,238.254 26.014,242.860 26.903 " stroke="none" fill="#727fb6" fill-rule="evenodd"></path><path id="path2" d="M0.000 35.750 L 0.000 71.500 200.000 71.500 L 400.000 71.500 400.000 35.750 L 400.000 0.000 200.000 0.000 L 0.000 0.000 0.000 35.750 M35.237 5.327 C 36.143 5.766,36.760 6.591,37.144 7.881 C 37.465 8.955,37.646 48.399,37.346 51.917 C 37.061 55.272,35.981 56.689,33.692 56.711 C 30.977 56.736,30.096 55.722,24.243 45.833 C 17.108 33.777,14.403 29.626,13.619 29.532 C 12.649 29.415,12.521 31.052,12.506 43.750 C 12.495 53.574,12.465 53.928,11.540 55.244 C 9.564 58.056,2.561 57.580,1.394 54.554 C 1.097 53.784,1.083 52.787,1.083 31.083 L 1.083 8.417 1.437 7.651 C 2.576 5.190,5.609 4.782,7.843 6.791 C 8.968 7.802,9.181 8.129,14.868 17.583 C 23.560 32.032,24.201 33.037,24.939 33.374 C 26.066 33.887,26.164 32.892,26.167 20.833 C 26.170 8.574,26.275 7.731,27.969 6.333 C 29.647 4.950,33.387 4.432,35.237 5.327 M273.063 5.585 C 277.095 6.635,277.663 7.691,277.815 14.417 C 277.947 20.216,277.952 20.226,280.895 20.666 C 286.730 21.539,286.953 27.122,281.188 28.002 C 279.482 28.262,278.736 28.598,278.298 29.303 L 277.917 29.917 277.825 41.500 C 277.720 54.794,277.772 54.298,276.325 55.701 C 274.349 57.618,269.597 57.613,267.677 55.693 C 266.208 54.223,266.275 54.848,266.171 41.667 C 266.064 28.116,266.241 29.192,263.833 27.487 C 261.157 25.591,261.304 22.830,264.182 20.904 C 266.125 19.604,266.066 19.812,266.183 13.833 C 266.290 8.340,266.357 7.906,267.275 6.702 C 268.240 5.437,270.685 4.966,273.063 5.585 M89.238 6.496 C 93.355 8.094,94.224 14.203,90.737 17.035 C 87.819 19.406,84.761 19.368,82.047 16.927 C 79.755 14.866,79.477 10.246,81.506 7.935 C 83.127 6.089,86.549 5.453,89.238 6.496 M321.533 6.344 C 328.170 8.580,326.369 18.329,319.233 18.796 C 314.691 19.094,311.488 13.296,313.740 8.853 C 314.957 6.452,318.483 5.317,321.533 6.344 M64.083 19.824 C 73.215 21.182,77.654 25.394,79.110 34.083 C 79.622 37.143,79.570 51.429,79.040 53.114 C 78.169 55.885,76.758 56.792,73.500 56.675 C 69.742 56.539,68.467 56.602,65.917 57.049 C 60.782 57.950,58.989 57.994,54.617 57.329 C 44.624 55.810,40.750 51.570,40.178 41.529 C 39.344 26.889,43.504 21.157,56.083 19.611 C 57.721 19.410,62.081 19.526,64.083 19.824 M116.217 20.058 C 118.837 21.344,118.810 24.855,116.172 25.961 C 115.848 26.097,114.556 26.417,113.301 26.672 C 106.880 27.980,106.508 28.937,106.503 44.117 C 106.499 54.986,106.272 55.861,103.215 56.776 C 99.490 57.890,95.925 56.535,95.034 53.667 C 94.593 52.243,94.600 25.179,95.043 23.912 C 95.950 21.316,96.705 20.945,101.333 20.821 C 104.223 20.744,105.223 20.653,106.500 20.351 C 110.716 19.356,114.551 19.240,116.217 20.058 M141.717 19.749 C 149.777 20.806,155.058 24.766,156.388 30.750 C 157.158 34.212,157.453 50.891,156.788 53.333 C 156.002 56.224,154.436 57.014,150.224 56.645 C 147.889 56.441,147.832 56.445,144.641 56.967 C 138.649 57.947,137.288 57.997,133.083 57.392 C 121.927 55.786,118.122 51.001,118.129 38.583 C 118.133 30.176,119.687 25.874,123.705 23.141 C 126.586 21.182,128.843 20.421,134.167 19.609 C 135.289 19.438,140.011 19.526,141.717 19.749 M183.238 19.995 C 184.148 20.191,185.791 20.684,186.889 21.091 C 189.518 22.062,190.103 22.123,191.583 21.579 C 197.114 19.547,201.447 19.016,206.447 19.758 C 216.202 21.207,219.732 25.910,219.951 37.750 C 220.149 48.414,219.725 54.080,218.628 55.410 C 216.480 58.017,210.255 57.602,208.795 54.755 C 208.123 53.444,208.112 53.269,208.002 42.250 C 207.877 29.680,207.857 29.538,205.966 28.016 C 203.319 25.884,196.575 26.353,195.338 28.755 L 194.917 29.574 194.828 41.495 C 194.727 54.967,194.784 54.391,193.403 55.772 C 191.568 57.608,186.699 57.580,184.977 55.724 C 183.736 54.386,183.667 53.764,183.667 43.994 C 183.667 32.250,183.450 30.270,181.980 28.600 C 179.616 25.914,172.345 25.905,171.000 28.586 L 170.583 29.417 170.492 41.417 C 170.431 49.318,170.339 53.591,170.221 53.926 C 169.410 56.232,167.911 57.077,164.667 57.060 C 161.563 57.043,160.069 56.081,159.288 53.597 L 158.917 52.417 158.951 39.966 C 159.005 20.811,158.912 21.106,164.917 21.071 C 167.538 21.055,167.912 21.013,169.917 20.507 C 174.304 19.399,179.545 19.197,183.238 19.995 M246.834 19.971 C 252.632 21.007,256.866 23.750,258.841 27.750 C 260.492 31.093,260.704 38.761,259.205 40.899 C 257.931 42.717,257.131 42.831,245.532 42.832 C 234.023 42.834,234.000 42.838,234.000 44.850 C 234.000 50.762,243.182 52.733,249.979 48.280 C 252.397 46.696,252.902 46.466,253.986 46.457 C 257.501 46.427,258.703 50.439,255.988 53.143 C 249.776 59.328,232.514 59.225,225.893 52.963 C 221.055 48.387,219.976 35.070,223.789 27.000 C 226.454 21.361,236.855 18.189,246.834 19.971 M308.819 19.761 C 310.484 20.256,311.716 22.045,311.433 23.557 C 311.125 25.198,309.673 26.138,306.667 26.641 C 302.551 27.331,300.814 28.611,300.069 31.502 C 299.832 32.425,299.773 34.073,299.667 42.750 C 299.539 53.238,299.523 53.477,298.822 54.854 C 297.382 57.683,290.805 57.926,288.960 55.219 C 288.017 53.834,288.031 54.077,287.990 38.808 C 287.970 31.076,288.012 24.525,288.084 24.250 C 288.327 23.318,288.993 22.189,289.539 21.781 C 290.654 20.949,290.762 20.928,294.500 20.820 C 297.387 20.737,298.369 20.645,299.552 20.349 C 302.868 19.521,307.105 19.252,308.819 19.761 M351.328 19.754 C 359.724 20.947,364.766 25.445,361.439 28.772 C 360.043 30.168,358.768 30.142,355.630 28.655 C 348.842 25.440,342.133 26.168,340.269 30.322 C 338.906 33.357,338.835 43.810,340.155 46.890 C 342.152 51.549,350.095 52.121,356.297 48.053 C 362.148 44.216,366.360 49.902,360.761 54.080 C 353.336 59.622,337.060 58.690,331.163 52.386 C 327.353 48.313,326.324 36.457,329.075 28.326 C 331.208 22.019,340.927 18.276,351.328 19.754 M385.534 20.174 C 389.370 20.955,391.167 22.340,391.167 24.514 C 391.167 26.915,389.093 27.886,385.293 27.265 C 380.584 26.495,378.000 27.494,378.000 30.083 C 378.000 31.837,379.024 32.599,384.263 34.748 C 391.488 37.710,393.872 40.848,393.625 47.068 C 393.404 52.654,390.570 55.874,384.524 57.412 C 376.962 59.336,367.864 56.859,367.837 52.870 C 367.819 50.248,370.431 49.255,374.250 50.431 C 378.750 51.817,382.335 50.567,382.333 47.614 C 382.331 46.113,381.359 45.276,378.125 43.993 C 369.844 40.707,366.500 37.072,366.500 31.355 C 366.500 22.945,374.906 18.008,385.534 20.174 M86.923 20.258 C 89.840 21.015,91.261 22.222,91.961 24.539 C 92.280 25.597,92.478 48.641,92.193 51.708 C 91.832 55.606,90.223 57.078,86.333 57.070 C 82.624 57.063,80.769 55.475,80.173 51.798 C 79.596 48.247,80.333 24.689,81.077 22.905 C 81.955 20.797,84.522 19.635,86.923 20.258 M320.903 20.656 C 323.675 21.626,324.662 22.884,325.011 25.889 C 325.331 28.649,325.139 52.721,324.788 53.764 C 323.214 58.448,314.700 58.279,313.693 53.544 C 313.588 53.052,313.509 47.277,313.483 38.333 L 313.443 23.917 313.813 23.083 C 314.984 20.451,317.680 19.528,320.903 20.656 M57.891 26.838 C 52.757 27.760,51.333 30.746,51.545 40.142 C 51.662 45.312,52.049 46.732,53.826 48.509 C 57.046 51.728,65.449 51.454,66.946 48.081 C 67.679 46.427,67.396 33.821,66.569 31.359 C 65.424 27.948,61.908 26.117,57.891 26.838 M135.583 26.903 C 130.935 27.982,129.590 30.660,129.593 38.833 C 129.595 45.706,130.435 48.066,133.469 49.717 C 136.448 51.339,143.078 50.875,144.553 48.942 C 145.664 47.485,145.732 34.135,144.643 31.224 C 143.386 27.866,139.474 26.000,135.583 26.903 M239.088 26.943 C 236.011 27.602,234.351 29.235,233.841 32.102 C 233.321 35.028,234.312 35.412,242.083 35.297 C 248.203 35.207,248.654 35.015,248.458 32.579 C 248.128 28.465,243.888 25.914,239.088 26.943 " stroke="none" fill="#243c94" fill-rule="evenodd"></path><path id="path3" d="M31.329 6.893 C 29.827 7.217,28.935 7.843,28.387 8.958 L 27.917 9.917 27.815 22.750 C 27.715 35.357,27.669 36.396,27.162 37.342 C 26.395 38.776,25.112 38.305,23.624 36.042 C 22.107 33.736,16.510 24.502,15.464 22.578 C 14.867 21.481,13.869 19.646,13.246 18.500 C 11.988 16.187,9.210 11.537,8.188 10.032 C 6.173 7.064,3.889 6.910,2.913 9.677 C 2.533 10.753,2.543 51.524,2.924 52.804 C 3.913 56.136,9.432 56.217,10.426 52.915 C 10.625 52.253,10.668 50.255,10.674 41.432 C 10.684 25.904,10.822 24.667,12.534 24.667 C 13.648 24.667,14.804 26.048,17.632 30.759 C 18.730 32.588,20.582 35.658,21.748 37.583 C 22.915 39.508,24.417 42.171,25.087 43.500 C 26.368 46.041,29.840 51.826,30.833 53.072 C 32.545 55.220,34.610 55.205,35.446 53.037 C 35.842 52.011,35.926 10.163,35.535 8.873 C 34.989 7.072,33.579 6.408,31.329 6.893 M270.152 7.326 C 268.286 7.891,268.102 8.510,267.995 14.583 C 267.893 20.364,267.839 20.607,266.400 21.766 C 263.791 23.868,263.662 24.742,265.730 26.303 C 266.748 27.072,267.341 27.791,267.680 28.667 C 267.859 29.129,267.924 31.671,267.994 40.917 C 268.090 53.498,268.071 53.232,268.965 54.220 C 270.365 55.768,274.161 55.557,275.279 53.869 C 275.958 52.843,276.000 52.103,276.001 41.117 C 276.002 27.267,276.070 26.948,279.137 26.327 C 279.658 26.222,280.438 26.062,280.871 25.971 C 283.817 25.358,283.181 23.065,279.893 22.447 C 277.763 22.046,276.892 21.468,276.309 20.063 C 276.180 19.753,276.074 17.936,276.009 14.917 C 275.899 9.848,275.873 9.706,274.856 8.610 C 273.861 7.537,271.543 6.905,270.152 7.326 M318.333 7.846 C 313.027 8.711,313.778 16.667,319.166 16.667 C 322.015 16.667,324.065 14.458,323.780 11.695 C 323.506 9.040,321.163 7.385,318.333 7.846 M33.322 8.098 C 33.834 8.303,34.072 8.541,34.367 9.140 L 34.750 9.917 34.750 30.833 C 34.750 53.883,34.816 52.400,33.764 53.089 C 32.787 53.730,31.829 52.849,29.586 49.246 C 25.890 43.308,25.588 42.204,27.170 40.397 C 28.634 38.724,28.554 39.589,28.668 24.250 C 28.748 13.529,28.815 10.630,28.993 10.167 C 29.485 8.887,30.124 8.328,31.453 8.015 C 32.380 7.797,32.592 7.806,33.322 8.098 M84.156 8.292 C 80.778 10.005,81.241 15.224,84.879 16.432 C 88.568 17.657,92.033 14.432,90.938 10.793 C 90.172 8.249,86.738 6.982,84.156 8.292 M273.132 8.816 C 274.624 9.577,274.816 10.201,274.829 14.333 C 274.849 20.727,275.297 22.096,277.870 23.629 C 278.575 24.049,278.602 24.360,277.972 24.833 C 274.822 27.200,274.946 26.572,274.838 40.750 C 274.740 53.538,274.806 52.843,273.613 53.733 C 272.939 54.235,271.061 54.235,270.387 53.733 C 269.195 52.844,269.261 53.546,269.153 40.667 C 269.039 26.965,269.147 27.747,267.053 25.465 C 266.088 24.414,266.234 23.683,267.660 22.417 C 268.062 22.060,268.612 21.076,268.869 20.255 C 268.956 19.977,269.079 17.575,269.144 14.917 C 269.272 9.635,269.338 9.279,270.294 8.761 C 270.947 8.407,272.385 8.434,273.132 8.816 M87.861 9.090 C 90.655 10.042,90.797 13.928,88.083 15.184 C 86.209 16.052,83.789 15.145,83.189 13.350 C 82.218 10.443,84.833 8.058,87.861 9.090 M320.370 9.007 C 323.370 9.841,323.394 14.351,320.403 15.338 C 318.031 16.121,315.833 14.568,315.833 12.107 C 315.833 9.699,317.864 8.311,320.370 9.007 M6.172 9.586 C 7.562 10.305,12.240 18.362,12.450 20.401 L 12.543 21.295 11.704 21.939 C 10.826 22.614,10.240 23.462,9.950 24.479 C 9.841 24.860,9.741 30.070,9.680 38.583 L 9.583 52.083 9.167 52.817 C 8.123 54.653,5.281 54.637,4.294 52.789 L 3.917 52.083 3.917 31.583 C 3.917 20.308,3.971 10.889,4.038 10.652 C 4.369 9.477,5.178 9.072,6.172 9.586 M56.083 21.609 C 44.235 23.018,40.439 28.911,42.008 43.465 C 43.102 53.617,51.695 57.627,66.667 54.971 C 68.339 54.674,68.976 54.645,71.667 54.742 C 75.390 54.876,75.918 54.719,76.662 53.254 L 77.083 52.425 77.083 43.337 C 77.082 29.895,76.400 27.400,71.914 24.422 C 68.552 22.191,61.594 20.954,56.083 21.609 M110.000 21.675 C 109.313 21.758,107.768 22.016,106.568 22.247 C 104.812 22.585,103.869 22.667,101.735 22.670 C 98.136 22.675,97.406 23.021,96.809 25.002 C 96.424 26.279,96.483 51.592,96.874 52.854 C 97.933 56.276,103.534 56.153,104.497 52.686 C 104.598 52.325,104.667 49.107,104.670 44.667 C 104.680 31.378,104.968 29.638,107.563 27.210 C 108.892 25.967,110.207 25.316,112.583 24.723 C 117.755 23.433,115.680 20.983,110.000 21.675 M134.250 21.596 C 133.975 21.633,133.075 21.748,132.250 21.851 C 127.699 22.418,123.612 24.665,121.953 27.511 C 119.234 32.175,119.080 43.734,121.665 49.094 C 124.326 54.613,133.137 56.960,144.083 55.068 C 146.395 54.668,146.822 54.643,149.750 54.740 C 153.500 54.863,153.890 54.745,154.657 53.255 L 155.083 52.426 155.136 44.838 C 155.245 29.184,154.382 26.508,148.250 23.492 C 145.176 21.980,138.275 21.045,134.250 21.596 M174.212 21.754 C 173.274 21.888,171.699 22.200,170.712 22.448 C 169.131 22.844,168.569 22.900,166.000 22.920 C 162.352 22.947,161.763 23.195,161.134 24.969 C 160.745 26.068,160.823 52.175,161.219 53.201 C 162.368 56.177,167.520 56.051,168.530 53.022 C 168.677 52.582,168.760 49.158,168.833 40.500 C 168.905 31.846,168.988 28.418,169.135 27.980 C 170.627 23.525,180.276 23.259,183.540 27.583 C 185.105 29.657,185.189 30.349,185.326 42.417 C 185.405 49.390,185.502 52.767,185.634 53.167 C 186.586 56.040,191.683 56.070,192.769 53.209 C 193.045 52.481,193.077 51.452,193.160 40.500 L 193.250 28.583 193.633 27.752 C 195.355 24.017,203.580 23.407,207.286 26.739 C 209.592 28.812,209.695 29.433,209.830 42.000 C 209.918 50.299,209.989 52.550,210.175 53.074 C 211.243 56.074,216.579 56.074,217.661 53.074 C 217.980 52.191,218.119 36.941,217.837 33.833 C 217.290 27.819,215.943 25.399,212.000 23.350 C 207.441 20.980,199.861 20.848,193.422 23.026 C 190.288 24.087,189.518 24.087,186.886 23.028 C 183.536 21.680,178.367 21.160,174.212 21.754 M237.000 21.677 C 227.014 22.783,223.581 27.046,223.587 38.333 C 223.593 49.480,226.257 53.422,235.005 55.228 C 244.118 57.110,256.698 53.611,255.179 49.616 C 254.622 48.152,253.490 48.330,250.265 50.387 C 246.205 52.978,240.628 53.512,236.888 51.668 C 231.972 49.245,230.205 42.491,234.130 41.131 C 234.610 40.965,237.110 40.916,245.167 40.912 C 256.683 40.906,256.425 40.929,257.450 39.812 C 259.092 38.023,258.710 30.742,256.818 27.750 C 253.808 22.991,246.197 20.659,237.000 21.677 M303.000 21.685 C 302.313 21.763,300.768 22.016,299.568 22.247 C 297.820 22.583,296.874 22.667,294.812 22.667 C 291.716 22.667,291.041 22.893,290.333 24.167 L 289.917 24.917 289.917 38.833 C 289.917 54.239,289.845 53.176,290.971 54.379 C 292.221 55.715,295.433 55.602,296.720 54.178 C 297.712 53.080,297.708 53.119,297.840 42.667 C 297.964 32.789,298.033 31.789,298.721 29.894 C 299.656 27.321,301.911 25.681,305.908 24.667 C 308.086 24.115,308.667 23.758,308.667 22.971 C 308.667 21.668,306.827 21.251,303.000 21.685 M342.502 21.681 C 334.987 22.523,331.064 25.766,330.015 32.004 C 328.663 40.044,329.670 48.076,332.411 51.125 C 337.503 56.788,354.785 57.390,360.086 52.089 C 362.282 49.893,360.287 47.821,357.606 49.514 C 355.183 51.044,354.540 51.382,353.203 51.825 C 346.749 53.967,340.957 52.402,338.735 47.917 C 336.876 44.163,336.879 33.370,338.740 29.397 C 341.168 24.215,348.661 23.088,356.223 26.768 C 360.374 28.789,361.613 25.752,357.514 23.604 C 354.307 21.923,347.791 21.089,342.502 21.681 M378.000 21.845 C 372.101 22.355,368.335 26.012,368.316 31.250 C 368.297 36.328,371.061 39.248,378.797 42.326 C 383.154 44.060,384.373 45.398,384.122 48.171 C 383.763 52.127,379.485 54.034,374.231 52.581 C 372.308 52.048,371.605 52.046,371.080 52.571 C 369.303 54.349,376.258 56.632,381.623 56.034 C 388.157 55.305,391.545 52.427,391.937 47.276 C 392.311 42.362,390.009 39.111,384.500 36.776 C 383.537 36.368,382.007 35.721,381.098 35.338 C 376.586 33.437,375.208 31.259,376.537 28.129 C 377.588 25.653,380.459 24.556,384.548 25.070 C 387.371 25.424,388.333 25.215,388.333 24.247 C 388.333 22.563,383.281 21.389,378.000 21.845 M84.242 22.568 C 83.601 22.847,82.928 23.639,82.639 24.454 C 82.301 25.410,82.314 51.728,82.653 52.897 C 83.529 55.916,88.563 56.231,89.895 53.351 C 90.248 52.587,90.250 52.511,90.250 39.000 L 90.250 25.417 89.813 24.485 C 88.971 22.690,86.173 21.727,84.242 22.568 M316.994 22.708 C 315.191 23.617,315.124 24.268,315.206 40.068 C 315.261 50.660,315.300 52.180,315.542 52.900 C 316.636 56.163,321.938 56.154,323.023 52.887 C 323.300 52.050,323.441 28.248,323.180 26.292 C 322.748 23.056,319.749 21.319,316.994 22.708 M209.457 23.584 C 213.390 24.511,215.686 27.018,216.445 31.216 C 216.863 33.524,216.985 50.894,216.593 52.242 C 215.914 54.576,212.557 54.906,211.431 52.750 C 211.093 52.102,211.080 51.798,210.981 42.000 C 210.896 33.703,210.832 31.725,210.618 30.833 C 210.022 28.349,209.447 27.284,207.719 25.469 C 205.827 23.480,206.397 22.862,209.457 23.584 M377.542 23.571 C 378.221 23.722,378.115 24.111,377.062 25.333 C 375.561 27.074,375.083 28.245,375.085 30.167 C 375.090 33.229,376.413 34.589,381.333 36.585 C 388.498 39.491,390.428 41.306,390.905 45.583 C 391.391 49.941,388.313 53.966,384.245 54.292 C 382.107 54.464,381.892 54.121,383.178 52.583 C 384.931 50.486,385.632 48.213,385.108 46.327 C 384.433 43.900,383.165 42.893,378.387 40.990 C 372.157 38.508,369.624 35.934,369.378 31.833 C 369.132 27.760,371.881 24.129,375.667 23.523 C 376.582 23.376,376.678 23.379,377.542 23.571 M54.093 23.742 C 54.402 23.973,54.367 24.032,53.327 25.034 C 49.536 28.686,48.974 30.322,48.874 38.000 C 48.762 46.624,49.283 48.351,53.092 51.981 C 55.143 53.934,54.468 54.329,50.811 53.316 C 45.022 51.712,42.846 47.753,42.836 38.809 C 42.827 30.083,44.616 26.264,49.671 24.222 C 51.438 23.509,53.484 23.286,54.093 23.742 M67.667 23.759 C 71.624 24.689,74.424 27.407,75.332 31.198 C 76.102 34.415,76.326 51.166,75.617 52.466 C 74.959 53.671,73.659 53.925,70.667 53.432 C 68.026 52.996,67.940 52.869,68.992 50.950 C 70.131 48.874,70.167 48.577,70.167 41.252 C 70.167 31.019,69.757 29.381,66.292 25.740 C 65.490 24.897,64.833 24.127,64.833 24.029 C 64.833 23.481,66.007 23.370,67.667 23.759 M87.608 23.845 C 88.178 24.121,88.413 24.380,88.785 25.137 L 89.250 26.083 89.301 37.903 C 89.355 50.556,89.285 52.147,88.629 53.103 C 87.397 54.902,84.363 54.385,83.749 52.271 C 83.330 50.829,83.453 25.489,83.883 24.701 C 84.528 23.520,86.161 23.145,87.608 23.845 M108.578 23.726 C 108.889 23.953,108.249 25.167,107.818 25.167 C 107.528 25.167,105.541 27.684,105.030 28.699 C 103.804 31.132,103.785 31.321,103.669 42.083 C 103.557 52.418,103.555 52.449,102.700 53.371 C 101.574 54.585,99.344 54.387,98.293 52.979 C 97.717 52.208,97.651 50.545,97.701 38.053 L 97.750 25.917 98.132 25.140 C 98.708 23.972,99.124 23.837,102.192 23.817 C 103.599 23.808,105.162 23.743,105.667 23.674 C 107.177 23.465,108.248 23.484,108.578 23.726 M132.091 23.735 C 132.395 23.957,132.327 24.059,130.831 25.615 C 127.415 29.167,126.848 31.035,126.840 38.750 C 126.833 46.533,127.364 48.235,130.888 51.734 C 132.955 53.785,132.877 54.096,130.406 53.658 C 126.958 53.048,124.119 51.331,122.840 49.083 C 119.843 43.814,120.346 30.725,123.692 26.913 C 125.684 24.644,130.725 22.736,132.091 23.735 M145.896 23.828 C 149.969 24.870,152.797 27.772,153.581 31.714 C 154.280 35.230,154.388 50.875,153.723 52.345 C 153.100 53.723,151.292 54.011,147.866 53.278 C 146.182 52.917,146.145 52.811,147.061 50.953 C 148.178 48.687,148.199 48.471,148.127 40.022 C 148.042 30.213,147.841 29.438,144.458 25.907 C 143.565 24.974,142.833 24.141,142.833 24.055 C 142.833 23.425,143.987 23.340,145.896 23.828 M186.724 24.178 C 188.112 24.642,189.275 24.910,190.417 25.029 C 192.732 25.270,192.779 25.325,192.433 27.342 C 192.208 28.649,192.166 30.556,192.162 39.488 C 192.155 52.705,192.099 53.196,190.512 53.911 C 189.667 54.292,188.184 54.199,187.535 53.725 C 186.400 52.896,186.428 53.162,186.314 42.000 C 186.181 28.844,186.121 28.531,183.103 25.224 C 181.748 23.739,181.809 23.500,183.544 23.500 C 184.451 23.500,185.133 23.645,186.724 24.178 M235.702 23.802 C 235.835 23.935,235.504 24.374,234.496 25.401 C 230.243 29.734,229.390 34.849,232.435 37.761 C 233.908 39.170,233.898 39.095,232.749 40.077 C 229.603 42.765,230.462 47.876,234.751 51.979 C 236.309 53.470,236.337 53.667,234.986 53.667 C 232.656 53.667,229.379 52.347,227.744 50.752 C 223.460 46.569,223.441 30.726,227.715 26.492 C 229.793 24.433,234.686 22.786,235.702 23.802 M249.333 23.759 C 254.699 25.020,257.331 28.827,257.333 35.334 C 257.334 39.033,256.678 39.755,253.333 39.743 C 249.797 39.730,248.949 39.233,250.031 37.807 C 252.660 34.339,251.725 29.415,247.678 25.421 C 245.846 23.614,246.390 23.068,249.333 23.759 M301.458 23.605 C 302.093 23.775,301.890 24.159,300.290 25.818 C 298.148 28.037,297.529 29.303,296.982 32.592 C 296.863 33.307,296.750 37.256,296.686 42.917 C 296.584 52.024,296.581 52.088,296.206 52.789 C 295.195 54.681,292.256 54.636,291.309 52.714 L 290.917 51.917 290.917 39.000 C 290.917 24.980,290.895 25.315,291.848 24.402 L 292.355 23.917 295.765 23.815 C 297.640 23.760,299.223 23.666,299.282 23.607 C 299.417 23.472,300.958 23.471,301.458 23.605 M320.216 23.725 C 322.188 24.549,322.186 24.532,322.130 39.509 L 322.083 52.083 321.706 52.789 C 320.773 54.536,318.196 54.645,316.969 52.990 C 316.367 52.177,316.320 51.027,316.369 38.138 L 316.417 25.583 316.798 24.809 C 317.392 23.605,318.833 23.147,320.216 23.725 M341.403 23.601 C 341.889 23.787,341.675 24.144,340.198 25.618 C 337.141 28.667,336.333 31.432,336.338 38.833 C 336.342 46.083,337.094 48.633,340.101 51.597 C 341.983 53.451,342.044 53.667,340.685 53.667 C 337.313 53.667,333.336 51.368,332.033 48.667 C 330.009 44.471,330.060 32.504,332.118 28.429 C 333.559 25.576,339.075 22.708,341.403 23.601 M167.358 24.357 C 168.690 24.638,168.805 24.910,168.325 26.632 L 167.921 28.083 167.826 39.917 C 167.725 52.440,167.726 52.430,166.935 53.308 C 165.653 54.731,163.091 54.425,162.250 52.748 C 161.860 51.970,161.630 28.348,161.994 26.367 C 162.402 24.140,163.822 23.608,167.358 24.357 M61.901 24.996 C 67.890 26.528,69.311 30.012,69.126 42.712 C 69.017 50.188,68.448 51.238,63.897 52.361 C 57.425 53.958,51.612 51.071,50.215 45.566 C 49.792 43.900,49.785 33.863,50.205 32.036 C 51.422 26.746,56.587 23.637,61.901 24.996 M139.757 24.919 C 143.452 25.858,145.928 28.413,146.788 32.173 C 147.240 34.150,147.223 47.516,146.766 48.828 C 145.882 51.368,142.949 52.712,138.250 52.729 C 133.065 52.748,129.509 50.128,128.210 45.333 C 127.768 43.700,127.776 34.184,128.221 32.286 C 129.498 26.843,134.573 23.602,139.757 24.919 M243.331 24.926 C 247.599 25.932,250.333 29.264,250.333 33.457 C 250.333 36.879,249.626 37.165,241.167 37.165 C 232.715 37.165,231.833 36.818,231.833 33.500 C 231.833 27.695,237.415 23.532,243.331 24.926 " stroke="none" fill="#949cc6" fill-rule="evenodd"></path><path id="path4" d="M31.250 6.504 C 29.568 6.844,28.632 7.514,28.022 8.816 L 27.583 9.750 27.487 22.333 C 27.405 33.120,27.353 35.047,27.127 35.828 C 26.534 37.875,25.456 37.699,23.805 35.285 C 22.473 33.337,17.202 24.613,14.419 19.750 C 8.645 9.660,7.312 7.765,5.683 7.334 C 4.307 6.970,2.929 7.846,2.463 9.383 C 2.076 10.657,2.160 52.183,2.551 53.198 C 3.620 55.966,8.652 56.609,10.283 54.186 C 11.055 53.040,11.055 53.047,11.155 39.833 C 11.243 28.225,11.273 27.199,11.548 26.589 C 12.299 24.924,13.545 25.453,15.398 28.222 C 16.792 30.305,23.384 41.277,24.877 44.000 C 26.430 46.830,29.233 51.483,30.258 52.929 C 32.302 55.814,34.892 55.885,35.854 53.083 C 36.044 52.531,36.083 48.690,36.083 30.750 L 36.083 9.083 35.583 8.083 C 34.801 6.519,33.509 6.048,31.250 6.504 M33.485 6.846 C 34.476 7.058,35.203 7.777,35.535 8.873 C 35.926 10.163,35.842 52.011,35.446 53.037 C 34.610 55.205,32.545 55.220,30.833 53.072 C 29.840 51.826,26.368 46.041,25.087 43.500 C 24.417 42.171,22.915 39.508,21.748 37.583 C 20.582 35.658,18.730 32.588,17.632 30.759 C 14.804 26.048,13.648 24.667,12.534 24.667 C 10.822 24.667,10.684 25.904,10.674 41.432 C 10.668 50.255,10.625 52.253,10.426 52.915 C 9.432 56.217,3.913 56.136,2.924 52.804 C 2.543 51.524,2.533 10.753,2.913 9.677 C 3.889 6.910,6.173 7.064,8.188 10.032 C 9.210 11.537,11.988 16.187,13.246 18.500 C 13.869 19.646,14.867 21.481,15.464 22.578 C 16.510 24.502,22.107 33.736,23.624 36.042 C 25.112 38.305,26.395 38.776,27.162 37.342 C 27.669 36.396,27.715 35.357,27.815 22.750 L 27.917 9.917 28.387 8.958 C 28.935 7.843,29.827 7.217,31.329 6.893 C 32.523 6.636,32.508 6.636,33.485 6.846 M269.575 7.057 C 267.997 7.779,267.668 8.959,267.663 13.905 C 267.658 19.917,267.522 20.437,265.570 21.904 C 263.142 23.728,263.107 24.941,265.434 26.602 C 266.493 27.358,267.030 28.032,267.374 29.036 C 267.502 29.409,267.592 33.290,267.659 41.250 C 267.767 54.154,267.710 53.518,268.859 54.641 C 270.261 56.011,273.743 56.005,275.155 54.629 C 276.296 53.519,276.241 54.142,276.339 41.250 C 276.451 26.621,276.280 27.291,280.096 26.576 C 284.541 25.743,284.631 22.897,280.238 22.078 C 276.645 21.408,276.481 21.095,276.334 14.667 C 276.224 9.847,276.181 9.571,275.382 8.523 C 274.418 7.259,271.011 6.399,269.575 7.057 M272.367 7.354 C 273.958 7.691,274.929 8.385,275.601 9.667 C 275.869 10.177,275.920 10.836,276.009 14.917 C 276.074 17.936,276.180 19.753,276.309 20.063 C 276.892 21.468,277.763 22.046,279.893 22.447 C 283.181 23.065,283.817 25.358,280.871 25.971 C 280.438 26.062,279.658 26.222,279.137 26.327 C 276.070 26.948,276.002 27.267,276.001 41.117 C 276.000 52.103,275.958 52.843,275.279 53.869 C 274.161 55.557,270.365 55.768,268.965 54.220 C 268.071 53.232,268.090 53.498,267.994 40.917 C 267.924 31.671,267.859 29.129,267.680 28.667 C 267.341 27.791,266.748 27.072,265.730 26.303 C 263.662 24.742,263.791 23.868,266.400 21.766 C 267.839 20.607,267.893 20.364,267.995 14.583 C 268.080 9.796,268.100 9.550,268.467 8.805 C 269.168 7.381,270.376 6.932,272.367 7.354 M85.122 7.505 C 79.444 8.928,80.755 17.127,86.647 17.040 C 91.694 16.966,93.425 10.187,88.952 8.011 C 87.801 7.451,86.188 7.238,85.122 7.505 M317.702 7.583 C 312.480 9.045,313.645 17.000,319.086 17.031 C 325.519 17.068,326.056 7.961,319.653 7.426 C 318.958 7.367,318.275 7.422,317.702 7.583 M320.868 8.021 C 324.747 8.990,324.714 15.249,320.824 16.404 C 317.532 17.382,314.769 15.450,314.774 12.176 C 314.779 8.829,317.278 7.125,320.868 8.021 M88.791 8.338 C 92.854 10.369,91.452 16.298,86.831 16.628 C 83.568 16.862,81.332 14.303,81.997 11.100 C 82.582 8.281,85.942 6.915,88.791 8.338 M55.961 21.173 C 48.090 21.999,43.610 25.157,42.166 30.898 C 41.000 35.534,41.336 44.823,42.796 48.297 C 45.536 54.820,55.065 57.721,66.333 55.463 C 68.116 55.106,69.759 55.036,73.250 55.167 C 75.832 55.264,76.919 54.578,77.332 52.590 C 77.698 50.826,77.463 33.752,77.047 31.917 C 75.650 25.756,71.812 22.522,64.583 21.415 C 62.518 21.098,57.906 20.969,55.961 21.173 M110.648 21.176 C 109.859 21.257,108.040 21.553,106.608 21.834 C 104.274 22.292,103.730 22.341,101.377 22.304 C 96.062 22.222,96.284 21.563,96.205 37.667 C 96.139 51.317,96.207 52.765,96.968 54.000 C 98.181 55.968,102.186 56.303,103.909 54.580 C 105.029 53.460,105.036 53.389,105.168 42.333 C 105.268 33.998,105.330 32.251,105.557 31.380 C 106.444 27.977,108.650 26.070,112.750 25.161 C 115.267 24.603,116.167 24.028,116.167 22.976 C 116.167 21.493,114.115 20.824,110.648 21.176 M134.917 21.115 C 128.304 21.554,123.140 24.130,121.349 27.884 C 118.858 33.102,118.804 43.811,121.241 49.083 C 123.946 54.936,133.598 57.602,144.333 55.460 C 146.119 55.104,147.930 55.029,151.333 55.172 C 153.594 55.266,154.403 54.875,155.137 53.333 C 155.776 51.993,155.578 33.663,154.894 30.833 C 153.238 23.974,145.867 20.389,134.917 21.115 M175.667 21.110 C 173.908 21.282,172.199 21.583,170.417 22.034 C 168.609 22.491,168.144 22.542,165.583 22.562 C 160.215 22.606,160.499 21.684,160.503 39.064 C 160.505 52.777,160.528 53.203,161.320 54.315 C 162.453 55.906,166.374 56.152,167.896 54.729 C 169.123 53.582,169.073 54.128,169.176 40.750 C 169.277 27.645,169.245 28.053,170.272 26.853 C 171.965 24.875,177.803 24.382,180.907 25.954 C 184.645 27.847,184.993 29.371,184.998 43.867 C 185.000 52.357,185.060 53.212,185.727 54.202 C 186.870 55.898,190.638 56.201,192.231 54.724 C 193.454 53.589,193.406 54.115,193.509 40.833 C 193.577 31.943,193.654 28.757,193.809 28.287 C 195.015 24.653,203.445 23.868,207.095 27.050 C 209.226 28.907,209.363 29.788,209.484 42.333 C 209.594 53.667,209.572 53.425,210.550 54.472 C 211.923 55.945,215.390 56.090,216.966 54.741 C 218.271 53.623,218.243 53.847,218.302 44.083 C 218.377 31.807,218.060 29.208,216.137 26.328 C 212.672 21.140,201.831 19.382,193.277 22.620 C 190.470 23.683,189.659 23.685,186.914 22.636 C 183.476 21.323,179.295 20.756,175.667 21.110 M238.667 21.099 C 230.684 21.778,225.904 24.489,224.423 29.178 C 222.537 35.149,222.827 44.860,225.029 49.477 C 228.144 56.007,242.740 58.438,252.108 53.986 C 255.429 52.407,256.853 49.654,254.949 48.493 C 253.902 47.854,253.152 48.046,250.842 49.541 C 244.127 53.887,235.947 53.012,233.271 47.663 C 232.217 45.555,232.093 43.510,232.957 42.482 C 233.876 41.390,233.500 41.426,245.167 41.325 C 256.801 41.224,256.590 41.243,257.647 40.186 C 259.185 38.649,259.204 31.925,257.681 28.598 C 255.285 23.366,247.609 20.339,238.667 21.099 M303.500 21.179 C 302.721 21.265,300.948 21.563,299.560 21.840 C 297.328 22.287,296.751 22.341,294.558 22.305 C 289.200 22.218,289.336 21.789,289.336 38.833 C 289.336 51.315,289.408 52.780,290.083 53.930 C 291.339 56.074,295.729 56.297,297.217 54.293 C 298.061 53.156,298.058 53.195,298.172 43.000 C 298.287 32.661,298.377 31.522,299.230 29.630 C 300.310 27.231,302.569 25.780,306.324 25.073 C 308.503 24.663,309.333 24.092,309.333 23.006 C 309.333 21.372,307.356 20.753,303.500 21.179 M343.250 21.176 C 332.817 22.253,329.107 26.841,329.103 38.667 C 329.099 49.229,331.604 53.274,339.418 55.324 C 349.418 57.947,363.497 54.065,361.319 49.285 C 360.638 47.790,359.157 47.996,355.971 50.030 C 350.002 53.840,341.400 52.708,339.024 47.799 C 337.667 44.997,337.335 35.566,338.441 31.250 C 340.043 24.998,347.857 23.177,355.997 27.157 C 358.540 28.401,360.256 28.240,360.544 26.731 C 361.210 23.249,351.958 20.277,343.250 21.176 M376.250 21.672 C 367.071 23.603,364.848 34.321,372.529 39.616 C 374.065 40.675,375.571 41.432,378.259 42.497 C 382.703 44.257,383.740 45.235,383.747 47.667 C 383.757 51.652,379.795 53.539,374.417 52.109 C 371.730 51.395,370.811 51.417,370.256 52.209 C 368.163 55.196,377.289 57.646,384.333 55.988 C 394.560 53.579,395.342 41.217,385.547 36.816 C 384.925 36.537,383.407 35.898,382.173 35.395 C 377.768 33.602,376.500 32.401,376.500 30.024 C 376.500 26.631,379.734 24.886,384.729 25.584 C 387.346 25.949,388.087 25.870,388.725 25.156 C 391.016 22.592,382.795 20.296,376.250 21.672 M63.802 21.759 C 70.380 22.524,74.574 25.273,76.069 29.801 C 77.027 32.703,77.082 33.437,77.083 43.337 L 77.083 52.425 76.662 53.254 C 75.918 54.719,75.390 54.876,71.667 54.742 C 68.976 54.645,68.339 54.674,66.667 54.971 C 55.075 57.027,46.389 54.775,43.531 48.972 C 42.247 46.363,41.833 43.904,41.833 38.882 C 41.834 26.856,45.083 22.917,56.083 21.609 C 57.462 21.446,61.838 21.530,63.802 21.759 M114.639 21.902 C 116.323 22.773,115.418 24.016,112.583 24.723 C 110.207 25.316,108.892 25.967,107.563 27.210 C 104.968 29.638,104.680 31.378,104.670 44.667 C 104.667 49.107,104.598 52.325,104.497 52.686 C 103.534 56.153,97.933 56.276,96.874 52.854 C 96.483 51.592,96.424 26.279,96.809 25.002 C 97.406 23.021,98.136 22.675,101.735 22.670 C 103.869 22.667,104.812 22.585,106.568 22.247 C 110.714 21.449,113.530 21.329,114.639 21.902 M142.807 21.836 C 147.189 22.501,150.867 24.436,152.743 27.065 C 154.895 30.081,155.222 32.509,155.136 44.838 L 155.083 52.426 154.657 53.255 C 153.890 54.745,153.500 54.863,149.750 54.740 C 146.822 54.643,146.395 54.668,144.083 55.068 C 133.137 56.960,124.326 54.613,121.665 49.094 C 119.080 43.734,119.234 32.175,121.953 27.511 C 123.612 24.665,127.699 22.418,132.250 21.851 C 133.075 21.748,133.975 21.633,134.250 21.596 C 135.176 21.469,141.572 21.649,142.807 21.836 M183.552 21.999 C 184.452 22.189,185.952 22.652,186.886 23.028 C 189.518 24.087,190.288 24.087,193.422 23.026 C 199.861 20.848,207.441 20.980,212.000 23.350 C 215.943 25.399,217.290 27.819,217.837 33.833 C 218.119 36.941,217.980 52.191,217.661 53.074 C 216.579 56.074,211.243 56.074,210.175 53.074 C 209.989 52.550,209.918 50.299,209.830 42.000 C 209.695 29.433,209.592 28.812,207.286 26.739 C 203.580 23.407,195.355 24.017,193.633 27.752 L 193.250 28.583 193.160 40.500 C 193.077 51.452,193.045 52.481,192.769 53.209 C 191.683 56.070,186.586 56.040,185.634 53.167 C 185.502 52.767,185.405 49.390,185.326 42.417 C 185.189 30.349,185.105 29.657,183.540 27.583 C 180.276 23.259,170.627 23.525,169.135 27.980 C 168.988 28.418,168.905 31.846,168.833 40.500 C 168.760 49.158,168.677 52.582,168.530 53.022 C 167.520 56.051,162.368 56.177,161.219 53.201 C 160.823 52.175,160.745 26.068,161.134 24.969 C 161.763 23.195,162.352 22.947,166.000 22.920 C 168.569 22.900,169.131 22.844,170.712 22.448 C 174.786 21.426,179.986 21.245,183.552 21.999 M246.750 21.909 C 251.360 22.625,254.861 24.656,256.818 27.750 C 258.710 30.742,259.092 38.023,257.450 39.812 C 256.425 40.929,256.683 40.906,245.167 40.912 C 237.110 40.916,234.610 40.965,234.130 41.131 C 230.205 42.491,231.972 49.245,236.888 51.668 C 240.628 53.512,246.205 52.978,250.265 50.387 C 253.054 48.608,253.814 48.355,254.640 48.933 C 256.127 49.975,254.924 52.140,252.104 53.494 C 243.469 57.641,229.848 55.968,225.930 50.280 C 222.778 45.703,222.725 31.694,225.843 27.024 C 228.797 22.601,237.497 20.473,246.750 21.909 M307.386 21.678 C 309.787 22.345,309.030 23.876,305.908 24.667 C 301.911 25.681,299.656 27.321,298.721 29.894 C 298.033 31.789,297.964 32.789,297.840 42.667 C 297.708 53.119,297.712 53.080,296.720 54.178 C 295.433 55.602,292.221 55.715,290.971 54.379 C 289.845 53.176,289.917 54.239,289.917 38.833 L 289.917 24.917 290.333 24.167 C 291.041 22.893,291.716 22.667,294.812 22.667 C 296.874 22.667,297.820 22.583,299.568 22.247 C 303.246 21.539,306.129 21.329,307.386 21.678 M352.483 21.991 C 357.772 22.980,361.234 25.447,359.611 27.071 C 358.943 27.739,358.053 27.659,356.223 26.768 C 348.661 23.088,341.168 24.215,338.740 29.397 C 336.879 33.370,336.876 44.163,338.735 47.917 C 340.957 52.402,346.749 53.967,353.203 51.825 C 354.540 51.382,355.183 51.044,357.606 49.514 C 360.287 47.821,362.282 49.893,360.086 52.089 C 354.785 57.390,337.503 56.788,332.411 51.125 C 328.805 47.114,328.319 31.898,331.645 27.123 C 334.870 22.494,343.630 20.336,352.483 21.991 M384.376 22.094 C 386.898 22.452,388.333 23.233,388.333 24.247 C 388.333 25.215,387.371 25.424,384.548 25.070 C 380.459 24.556,377.588 25.653,376.537 28.129 C 375.208 31.259,376.586 33.437,381.098 35.338 C 382.007 35.721,383.537 36.368,384.500 36.776 C 390.009 39.111,392.311 42.362,391.937 47.276 C 391.545 52.427,388.157 55.305,381.623 56.034 C 376.258 56.632,369.303 54.349,371.080 52.571 C 371.605 52.046,372.308 52.048,374.231 52.581 C 379.485 54.034,383.763 52.127,384.122 48.171 C 384.373 45.398,383.154 44.060,378.797 42.326 C 371.061 39.248,368.297 36.328,368.316 31.250 C 368.342 24.161,374.438 20.686,384.376 22.094 M84.354 22.073 C 83.418 22.378,82.749 23.026,82.378 23.987 C 81.985 25.005,81.918 52.117,82.306 53.213 C 83.378 56.243,88.688 56.608,90.158 53.753 L 90.583 52.926 90.583 39.088 C 90.583 23.894,90.623 24.506,89.562 23.331 C 88.490 22.145,85.988 21.540,84.354 22.073 M317.583 21.981 C 314.816 22.701,314.804 22.776,314.867 39.508 L 314.917 52.583 315.298 53.411 C 316.784 56.633,322.051 56.474,323.350 53.167 C 323.647 52.408,323.786 27.770,323.503 25.946 C 323.056 23.063,320.360 21.258,317.583 21.981 M87.657 22.580 C 88.763 22.970,89.343 23.483,89.813 24.485 L 90.250 25.417 90.250 39.000 C 90.250 52.511,90.248 52.587,89.895 53.351 C 88.563 56.231,83.529 55.916,82.653 52.897 C 82.314 51.728,82.301 25.410,82.639 24.454 C 83.299 22.591,85.431 21.795,87.657 22.580 M320.398 22.569 C 322.100 23.082,322.893 24.142,323.180 26.292 C 323.441 28.248,323.300 52.050,323.023 52.887 C 321.938 56.154,316.636 56.163,315.542 52.900 C 315.211 51.914,315.014 29.451,315.308 26.279 C 315.625 22.857,317.299 21.637,320.398 22.569 M57.036 25.003 C 53.465 25.939,51.032 28.444,50.205 32.036 C 49.785 33.863,49.792 43.900,50.215 45.566 C 51.612 51.071,57.425 53.958,63.897 52.361 C 66.671 51.677,68.150 50.536,68.777 48.600 C 69.380 46.739,69.240 34.469,68.585 31.709 C 67.380 26.636,62.226 23.643,57.036 25.003 M135.261 24.934 C 131.623 25.814,129.128 28.419,128.221 32.286 C 127.776 34.184,127.768 43.700,128.210 45.333 C 129.509 50.128,133.065 52.748,138.250 52.729 C 142.949 52.712,145.882 51.368,146.766 48.828 C 147.223 47.516,147.240 34.150,146.788 32.173 C 145.563 26.819,140.531 23.659,135.261 24.934 M238.667 25.010 C 234.396 26.119,231.833 29.303,231.833 33.500 C 231.833 36.818,232.715 37.165,241.167 37.165 C 249.626 37.165,250.333 36.879,250.333 33.457 C 250.333 27.559,244.662 23.452,238.667 25.010 M61.824 25.425 C 67.435 26.747,68.731 29.695,68.743 41.167 C 68.753 49.956,68.417 50.722,64.062 51.840 C 57.518 53.520,51.936 50.851,50.542 45.375 C 50.128 43.749,50.126 34.019,50.539 32.210 C 51.712 27.074,56.530 24.177,61.824 25.425 M139.893 25.430 C 143.413 26.336,145.615 28.656,146.452 32.339 C 146.885 34.243,146.889 47.353,146.457 48.589 C 145.649 50.901,143.300 52.038,138.822 52.284 C 133.655 52.567,129.990 50.094,128.634 45.411 C 128.104 43.578,128.048 34.610,128.554 32.452 C 129.810 27.097,134.671 24.087,139.893 25.430 M243.423 25.419 C 246.742 26.263,248.948 28.366,249.752 31.451 C 250.374 33.840,249.894 35.594,248.417 36.333 L 247.583 36.750 241.333 36.750 C 233.007 36.750,232.167 36.445,232.167 33.418 C 232.167 27.948,237.754 23.978,243.423 25.419 " stroke="none" fill="#8c9cc4" fill-rule="evenodd"></path></g></svg>