<?xml version="1.0" standalone="no"?>
<!DOCTYPE svg PUBLIC "-//W3C//DTD SVG 20010904//EN"
 "http://www.w3.org/TR/2001/REC-SVG-20010904/DTD/svg10.dtd">
<svg version="1.0" xmlns="http://www.w3.org/2000/svg"
 width="201.000000pt" height="36.000000pt" viewBox="0 0 201.000000 36.000000"
 preserveAspectRatio="xMidYMid meet">

<g transform="translate(0.000000,36.000000) scale(0.100000,-0.100000)"
fill="#000000" stroke="none">
<path d="M0 180 l0 -180 1005 0 1005 0 0 180 0 180 -1005 0 -1005 0 0 -180z
m85 59 l50 -83 3 87 c3 79 5 87 22 87 19 0 20 -7 20 -125 0 -72 -4 -125 -9
-125 -6 0 -33 37 -60 81 l-50 82 -3 -79 c-3 -73 -5 -79 -25 -82 -23 -3 -23 -2
-23 123 0 97 3 126 13 123 6 -3 35 -42 62 -89z m1289 85 c10 -4 16 -18 16 -40
0 -27 4 -34 20 -34 11 0 20 -4 20 -10 0 -5 -9 -10 -20 -10 -18 0 -20 -7 -20
-76 0 -72 -1 -75 -22 -72 -21 3 -23 9 -26 73 -2 39 -8 73 -15 78 -9 7 -9 10 1
14 6 2 12 19 12 37 0 43 7 50 34 40z m-914 -23 c0 -20 -17 -31 -37 -24 -7 3
-13 13 -13 24 0 14 7 19 25 19 18 0 25 -5 25 -19z m1170 0 c0 -20 -25 -35 -41
-25 -5 3 -9 14 -9 25 0 14 7 19 25 19 18 0 25 -5 25 -19z m-1260 -71 c16 -16
20 -33 20 -85 l0 -65 -70 0 c-88 0 -110 17 -110 85 0 62 24 85 90 85 37 0 55
-5 70 -20z m85 -65 c0 -75 -1 -80 -22 -83 -22 -3 -23 -1 -23 83 0 84 1 86 23
83 21 -3 22 -8 22 -83z m129 76 c-5 -5 -18 -11 -29 -13 -17 -3 -20 -12 -23
-76 -3 -69 -4 -72 -27 -72 -25 0 -25 1 -25 85 l0 85 57 0 c34 0 53 -4 47 -9z
m176 -11 c16 -16 20 -33 20 -85 l0 -65 -70 0 c-88 0 -110 17 -110 85 0 62 24
85 90 85 37 0 55 -5 70 -20z m327 -10 c7 -14 13 -51 13 -82 0 -55 -1 -58 -25
-58 -23 0 -24 3 -27 73 l-3 72 -37 3 -38 3 0 -75 c0 -69 -2 -76 -20 -76 -17 0
-19 8 -22 73 l-3 72 -37 3 -38 3 0 -75 c0 -69 -2 -76 -20 -76 -18 0 -20 7 -20
85 l0 85 132 -3 c130 -2 133 -2 145 -27z m191 14 c15 -11 22 -25 22 -50 l0
-34 -70 0 c-68 0 -69 -1 -61 -22 10 -27 58 -36 91 -18 28 15 41 2 16 -16 -25
-18 -107 -18 -132 0 -28 21 -28 121 0 142 26 19 106 18 134 -2z m282 7 c0 -5
-12 -11 -27 -13 -27 -3 -28 -5 -31 -76 -3 -69 -4 -73 -25 -70 -20 3 -22 10
-25 72 -2 38 -1 75 2 83 6 15 106 19 106 4z m65 -76 c0 -75 -1 -80 -22 -83
-22 -3 -23 -1 -23 83 0 84 1 86 23 83 21 -3 22 -8 22 -83z m184 72 c14 -17 2
-30 -15 -16 -7 6 -30 9 -51 7 l-38 -3 0 -60 0 -60 32 -3 c18 -2 42 2 53 8 28
15 41 2 16 -16 -29 -21 -99 -18 -127 5 -20 16 -24 28 -23 71 0 39 5 56 19 66
24 18 119 18 134 1z m151 4 c0 -6 -15 -11 -32 -13 -40 -4 -51 -33 -16 -43 54
-17 76 -68 42 -96 -19 -15 -81 -16 -97 0 -8 8 1 11 31 11 35 0 42 3 42 19 0
12 -9 22 -22 27 -51 15 -75 63 -46 92 14 14 98 16 98 3z"/>
<path d="M262 218 c-17 -17 -15 -93 2 -107 8 -7 30 -11 48 -9 30 3 33 6 36 39
5 56 -12 89 -46 89 -15 0 -33 -5 -40 -12z"/>
<path d="M650 211 c-14 -27 -13 -74 3 -95 9 -12 23 -17 47 -14 34 3 35 4 38
51 2 27 -2 55 -9 63 -17 21 -66 18 -79 -5z"/>
<path d="M1171 208 c-12 -32 -6 -38 40 -38 43 0 60 19 39 45 -20 24 -69 19
-79 -7z"/>
</g>
</svg>
