<svg id="svg" version="1.1" xmlns="http://www.w3.org/2000/svg" xmlns:xlink="http://www.w3.org/1999/xlink" width="400" height="141.66666666666666" viewBox="0, 0, 400,141.66666666666666"><g id="svgg"><path id="path0" d="M47.661 34.157 C 46.047 34.647,45.685 35.440,45.153 39.654 C 44.295 46.454,43.287 48.098,39.419 48.999 C 36.713 49.631,36.188 50.085,36.040 51.929 C 35.881 53.917,36.659 55.091,38.469 55.593 C 41.093 56.321,42.170 57.022,42.904 58.479 C 43.644 59.949,43.667 60.385,43.670 73.300 C 43.673 86.615,43.737 87.916,44.506 90.213 C 46.809 97.086,50.831 99.770,58.333 99.442 C 63.715 99.207,65.032 98.540,65.133 96.000 C 65.230 93.593,64.541 92.950,61.890 92.974 C 55.946 93.028,53.193 91.343,51.971 86.902 C 51.548 85.366,51.281 63.916,51.648 60.919 C 52.116 57.087,53.497 56.035,58.334 55.822 C 62.976 55.618,63.886 55.163,64.230 52.878 C 64.636 50.182,63.542 49.345,59.333 49.135 C 52.243 48.781,51.667 48.174,51.667 41.065 C 51.667 36.728,51.530 35.736,50.825 34.932 C 50.129 34.140,48.795 33.813,47.661 34.157 M132.791 48.075 C 128.703 48.595,127.788 48.890,124.537 50.738 C 118.110 54.391,113.327 61.080,112.482 67.595 C 112.207 69.709,112.201 76.422,112.472 78.500 C 113.557 86.833,119.287 94.269,127.445 97.931 C 131.623 99.806,141.685 100.118,147.750 98.562 C 150.187 97.936,155.081 94.953,157.246 92.774 C 161.031 88.964,161.306 86.595,158.147 85.017 C 155.790 83.839,155.177 84.009,152.491 86.586 C 145.951 92.861,138.014 94.582,131.026 91.242 C 122.908 87.362,118.676 79.503,123.420 77.118 C 124.580 76.534,125.672 76.500,143.072 76.499 C 160.996 76.498,161.196 76.490,161.974 75.776 C 162.969 74.861,163.195 72.458,162.681 68.250 C 161.728 60.446,156.711 53.733,148.833 49.717 C 145.754 48.147,138.258 47.380,132.791 48.075 M194.090 48.163 C 187.821 49.021,183.111 51.811,178.943 57.138 C 173.533 64.051,171.930 74.227,175.029 81.988 C 175.489 83.140,176.080 84.669,176.342 85.386 C 177.189 87.704,179.366 90.719,181.978 93.191 C 184.829 95.889,189.013 98.293,191.750 98.804 C 200.075 100.359,207.701 99.724,212.833 97.049 C 217.037 94.857,219.644 92.588,221.542 89.467 C 222.812 87.379,222.082 85.688,219.500 84.737 C 217.391 83.961,216.071 84.420,214.045 86.634 C 205.808 95.637,191.463 94.650,184.934 84.632 C 182.413 80.765,182.386 78.444,184.847 77.208 C 186.145 76.556,187.455 76.510,204.928 76.505 C 223.657 76.499,222.994 76.537,223.973 75.422 C 224.850 74.423,224.888 71.798,224.097 66.816 C 222.662 57.779,214.934 49.915,205.917 48.317 C 202.992 47.799,197.294 47.724,194.090 48.163 M261.250 47.941 C 256.901 48.445,255.632 48.896,251.713 51.325 C 249.043 52.981,247.925 52.893,246.336 50.902 C 245.145 49.409,244.366 49.128,241.608 49.195 C 239.102 49.256,238.748 49.389,238.083 50.517 C 237.753 51.078,237.750 51.383,237.750 84.833 C 237.750 122.669,237.636 119.132,238.887 120.066 C 239.539 120.553,243.151 120.679,244.266 120.253 C 245.892 119.632,245.982 118.957,245.993 107.300 C 246.001 97.711,246.080 97.094,247.472 95.773 C 248.568 94.732,249.740 94.951,252.860 96.778 C 255.430 98.285,256.194 98.562,259.311 99.120 C 270.772 101.173,280.395 97.185,285.809 88.137 C 288.551 83.555,290.447 75.347,289.752 71.065 C 287.634 58.006,280.333 49.760,269.476 48.162 C 267.426 47.861,262.976 47.741,261.250 47.941 M97.220 48.670 C 95.437 48.820,94.449 49.116,92.500 50.083 C 88.986 51.827,87.902 51.840,85.317 50.169 C 82.894 48.603,79.533 48.855,78.500 50.681 L 78.083 51.417 78.038 73.164 C 77.991 95.857,78.000 96.198,78.705 97.094 C 79.988 98.725,83.939 98.539,84.865 96.804 L 85.250 96.083 85.354 83.583 C 85.477 68.847,85.466 68.958,87.333 64.124 C 89.562 58.354,95.087 54.925,100.583 55.900 C 104.265 56.553,105.209 55.794,104.951 52.388 C 104.702 49.095,102.834 48.196,97.220 48.670 M142.083 55.153 C 150.773 57.921,156.576 66.976,151.031 69.115 C 149.957 69.530,125.159 69.586,124.167 69.176 C 118.733 66.933,123.023 59.045,131.583 55.539 C 133.990 54.553,139.558 54.349,142.083 55.153 M202.845 54.905 C 204.148 55.181,205.118 55.586,207.620 56.898 C 214.447 60.479,217.022 67.040,212.417 69.116 C 211.599 69.485,189.019 69.676,187.017 69.332 C 180.489 68.209,183.580 60.345,192.228 56.077 C 195.007 54.705,199.542 54.204,202.845 54.905 M268.167 55.076 C 276.772 57.802,282.257 65.771,281.766 74.833 C 281.321 83.042,275.988 89.700,267.749 92.334 C 259.706 94.905,248.825 88.320,246.403 79.417 C 246.037 78.071,245.876 71.528,246.157 69.417 C 246.975 63.272,253.255 56.650,259.843 54.987 C 261.510 54.566,266.732 54.622,268.167 55.076 " stroke="none" fill="#0d0d0d" fill-rule="evenodd"></path><path id="path1" d="M0.000 70.833 L 0.000 141.667 200.000 141.667 L 400.000 141.667 400.000 70.833 L 400.000 0.000 200.000 0.000 L 0.000 0.000 0.000 70.833 M51.750 30.729 C 54.189 31.778,54.971 34.190,54.793 40.114 C 54.627 45.634,54.759 45.768,60.583 46.003 C 66.724 46.250,67.744 47.154,67.724 52.333 C 67.702 58.089,66.642 59.046,59.990 59.314 C 55.921 59.477,55.249 59.774,54.826 61.596 C 54.618 62.496,54.630 83.279,54.840 84.750 C 55.405 88.706,58.027 90.378,62.426 89.586 C 64.497 89.213,65.621 89.298,66.392 89.886 C 68.611 91.579,68.860 98.306,66.783 100.473 C 64.860 102.481,58.567 103.624,54.303 102.740 C 48.405 101.517,45.210 99.278,42.775 94.661 C 40.511 90.368,40.631 91.406,40.515 75.083 C 40.396 58.380,40.703 59.807,37.092 59.168 C 33.400 58.515,32.500 57.145,32.500 52.174 C 32.500 47.881,33.451 46.641,37.175 46.082 C 40.454 45.590,40.660 45.289,41.578 39.667 C 42.613 33.324,43.494 31.546,46.055 30.632 C 47.196 30.225,50.718 30.285,51.750 30.729 M141.000 44.408 C 151.561 45.824,158.532 50.478,163.113 59.167 C 164.845 62.452,165.066 63.161,165.689 67.417 C 167.005 76.408,166.142 78.607,160.950 79.494 C 157.271 80.123,157.172 80.537,160.282 82.282 C 165.449 85.183,165.377 88.909,160.046 94.511 C 156.271 98.477,152.187 100.738,146.395 102.066 C 139.124 103.733,137.198 103.747,130.750 102.174 C 123.527 100.411,118.735 97.378,114.677 92.000 C 113.142 89.966,110.534 84.819,110.117 83.000 C 108.412 75.575,108.853 65.192,111.060 60.808 C 114.009 54.951,117.287 51.248,122.015 48.433 C 125.139 46.573,125.865 46.274,129.307 45.428 C 134.510 44.150,137.276 43.908,141.000 44.408 M202.583 44.349 C 213.217 45.636,221.375 51.360,225.676 60.551 C 226.992 63.364,228.438 70.689,228.291 73.797 C 228.110 77.603,226.961 78.753,222.605 79.491 C 218.928 80.114,218.861 80.395,221.955 82.203 C 227.140 85.232,227.251 87.946,222.430 93.818 C 219.638 97.219,214.271 100.578,209.917 101.650 C 202.975 103.359,200.463 103.631,196.727 103.076 C 184.692 101.289,177.332 95.868,172.865 85.500 C 170.910 80.962,170.613 79.335,170.611 73.167 C 170.608 66.801,170.998 64.894,173.251 60.243 C 177.020 52.462,182.967 47.467,190.782 45.518 C 196.235 44.159,198.861 43.899,202.583 44.349 M268.066 44.418 C 276.628 45.911,282.411 49.200,286.842 55.095 C 289.085 58.079,289.580 59.016,291.102 63.167 C 292.963 68.240,293.473 72.865,292.757 78.167 C 291.791 85.316,287.223 93.462,282.013 97.324 C 279.966 98.841,276.532 100.809,275.195 101.231 C 270.630 102.671,266.294 103.447,263.748 103.279 C 260.905 103.093,255.123 101.621,252.648 100.455 C 248.970 98.721,249.004 98.643,248.997 108.917 C 248.988 123.426,248.921 123.560,241.750 123.576 C 237.086 123.586,235.878 123.049,235.039 120.591 C 234.704 119.612,234.494 54.046,234.814 50.803 C 235.199 46.918,236.274 46.123,241.271 46.030 C 244.825 45.963,245.979 46.142,247.303 46.965 C 247.703 47.213,248.304 47.584,248.640 47.789 C 249.568 48.355,250.116 48.270,252.032 47.266 C 256.617 44.861,263.548 43.630,268.066 44.418 M102.697 45.683 C 107.272 46.393,108.564 48.110,108.577 53.500 C 108.590 59.025,107.347 60.205,102.167 59.584 C 101.021 59.446,99.766 59.298,99.378 59.254 C 94.665 58.719,91.165 61.623,89.841 67.167 C 88.990 70.733,88.961 71.255,88.852 84.917 L 88.750 97.750 88.273 98.720 C 87.291 100.722,85.946 101.250,81.833 101.250 C 77.116 101.250,75.469 100.517,74.723 98.083 C 74.256 96.559,74.246 50.802,74.713 49.292 C 75.742 45.965,81.610 44.844,87.035 46.939 C 88.861 47.644,89.479 47.642,91.340 46.923 C 94.694 45.628,99.182 45.137,102.697 45.683 M346.279 47.552 C 348.934 48.434,348.612 49.910,344.794 54.368 C 343.718 55.625,341.247 58.700,339.303 61.201 C 337.359 63.703,334.651 67.063,333.285 68.667 C 331.919 70.271,329.931 72.746,328.867 74.167 C 327.076 76.560,322.925 81.698,319.914 85.250 C 319.215 86.075,318.107 87.462,317.452 88.333 C 309.041 99.516,308.194 100.139,301.667 99.961 C 295.420 99.791,295.099 98.579,299.823 93.000 C 301.026 91.579,302.887 89.292,303.960 87.917 C 307.597 83.255,309.737 80.591,312.028 77.877 C 313.285 76.388,314.820 74.513,315.440 73.710 C 317.831 70.614,320.962 66.670,322.487 64.833 C 325.801 60.842,325.974 59.996,323.692 58.942 C 322.932 58.591,322.711 58.582,312.750 58.500 L 302.583 58.417 301.789 58.026 C 300.366 57.325,300.095 56.617,300.025 53.417 C 299.923 48.683,300.525 47.626,303.494 47.329 C 306.386 47.040,345.349 47.243,346.279 47.552 M366.346 47.602 C 368.784 48.326,368.408 49.757,364.578 54.333 C 363.389 55.754,361.764 57.779,360.967 58.833 C 360.170 59.887,358.408 62.105,357.051 63.760 C 351.845 70.112,350.031 72.359,348.500 74.349 C 347.629 75.482,345.617 77.970,344.028 79.880 C 338.488 86.538,338.234 87.161,340.583 88.332 L 341.417 88.748 351.204 88.866 C 364.338 89.025,363.994 88.895,364.135 93.763 C 364.241 97.467,363.834 98.708,362.250 99.500 L 361.417 99.917 347.417 100.029 C 321.720 100.235,317.810 100.060,316.867 98.663 C 316.041 97.440,316.528 96.599,321.500 90.659 C 322.923 88.959,325.759 85.434,327.803 82.826 C 329.848 80.217,332.196 77.296,333.022 76.333 C 333.849 75.371,335.396 73.458,336.460 72.083 C 340.249 67.188,342.091 64.887,343.993 62.667 C 345.054 61.429,347.590 58.271,349.630 55.649 C 355.278 48.389,356.162 47.602,358.984 47.331 C 360.932 47.143,365.348 47.306,366.346 47.602 M134.564 58.163 C 128.805 59.673,124.166 64.052,126.701 65.585 C 127.514 66.076,147.237 66.106,148.132 65.617 C 149.427 64.910,149.167 63.785,147.273 61.909 C 144.090 58.755,138.543 57.119,134.564 58.163 M196.917 58.002 C 191.047 59.170,185.809 64.036,188.713 65.623 C 189.364 65.979,207.177 66.169,208.960 65.839 C 210.869 65.487,211.114 64.537,209.767 62.708 C 207.398 59.489,201.077 57.175,196.917 58.002 M261.250 58.148 C 253.317 60.316,249.000 65.784,249.000 73.667 C 249.000 81.921,254.558 88.383,262.641 89.526 C 265.784 89.971,271.210 87.835,273.917 85.087 C 279.810 79.104,279.943 68.896,274.211 62.518 C 271.174 59.140,265.108 57.094,261.250 58.148 M126.583 79.652 C 124.916 80.065,124.732 81.050,125.950 83.054 C 128.563 87.356,135.454 90.415,140.311 89.431 C 145.621 88.355,150.243 85.270,152.152 81.528 C 152.600 80.650,152.501 80.288,151.702 79.891 C 151.048 79.566,127.824 79.344,126.583 79.652 M188.500 79.695 C 184.785 80.747,188.814 86.166,195.038 88.487 C 199.059 89.987,200.998 90.000,204.985 88.556 C 209.173 87.038,210.511 86.095,212.873 82.995 C 215.601 79.414,215.889 79.494,200.344 79.515 C 193.455 79.524,188.857 79.594,188.500 79.695 " stroke="none" fill="#fbfbfb" fill-rule="evenodd"></path><path id="path2" d="M303.494 47.329 C 300.525 47.626,299.923 48.683,300.025 53.417 C 300.095 56.617,300.366 57.325,301.789 58.026 L 302.583 58.417 312.750 58.500 C 322.711 58.582,322.932 58.591,323.692 58.942 C 325.974 59.996,325.801 60.842,322.487 64.833 C 320.962 66.670,317.831 70.614,315.440 73.710 C 314.820 74.513,313.285 76.388,312.028 77.877 C 309.737 80.591,307.597 83.255,303.960 87.917 C 302.887 89.292,301.026 91.579,299.823 93.000 C 295.099 98.579,295.420 99.791,301.667 99.961 C 308.194 100.139,309.041 99.516,317.452 88.333 C 318.107 87.462,319.215 86.075,319.914 85.250 C 322.925 81.698,327.076 76.560,328.867 74.167 C 329.931 72.746,331.919 70.271,333.285 68.667 C 334.651 67.063,337.359 63.703,339.303 61.201 C 341.247 58.700,343.718 55.625,344.794 54.368 C 348.612 49.910,348.934 48.434,346.279 47.552 C 345.349 47.243,306.386 47.040,303.494 47.329 M358.984 47.331 C 356.162 47.602,355.278 48.389,349.630 55.649 C 347.590 58.271,345.054 61.429,343.993 62.667 C 342.091 64.887,340.249 67.188,336.460 72.083 C 335.396 73.458,333.849 75.371,333.022 76.333 C 332.196 77.296,329.848 80.217,327.803 82.826 C 325.759 85.434,322.923 88.959,321.500 90.659 C 316.528 96.599,316.041 97.440,316.867 98.663 C 317.810 100.060,321.720 100.235,347.417 100.029 L 361.417 99.917 362.250 99.500 C 363.834 98.708,364.241 97.467,364.135 93.763 C 363.994 88.895,364.338 89.025,351.204 88.866 L 341.417 88.748 340.583 88.332 C 338.234 87.161,338.488 86.538,344.028 79.880 C 345.617 77.970,347.629 75.482,348.500 74.349 C 350.031 72.359,351.845 70.112,357.051 63.760 C 358.408 62.105,360.170 59.887,360.967 58.833 C 361.764 57.779,363.389 55.754,364.578 54.333 C 367.831 50.447,368.350 49.368,367.491 48.276 C 366.825 47.429,362.710 46.972,358.984 47.331 " stroke="none" fill="#f7bb46" fill-rule="evenodd"></path><path id="path3" d="M46.055 30.632 C 43.494 31.546,42.613 33.324,41.578 39.667 C 40.660 45.289,40.454 45.590,37.175 46.082 C 33.451 46.641,32.500 47.881,32.500 52.174 C 32.500 57.145,33.400 58.515,37.092 59.168 C 40.703 59.807,40.396 58.380,40.515 75.083 C 40.631 91.406,40.511 90.368,42.775 94.661 C 45.210 99.278,48.405 101.517,54.303 102.740 C 58.567 103.624,64.860 102.481,66.783 100.473 C 68.860 98.306,68.611 91.579,66.392 89.886 C 65.621 89.298,64.497 89.213,62.426 89.586 C 58.027 90.378,55.405 88.706,54.840 84.750 C 54.630 83.279,54.618 62.496,54.826 61.596 C 55.249 59.774,55.921 59.477,59.990 59.314 C 66.642 59.046,67.702 58.089,67.724 52.333 C 67.744 47.154,66.724 46.250,60.583 46.003 C 54.759 45.768,54.627 45.634,54.793 40.114 C 54.971 34.190,54.189 31.778,51.750 30.729 C 50.718 30.285,47.196 30.225,46.055 30.632 M50.378 32.397 C 51.511 32.738,52.092 33.231,52.615 34.296 L 53.083 35.250 53.168 40.083 C 53.292 47.200,53.338 47.254,59.500 47.502 C 65.464 47.742,66.694 48.900,66.009 53.633 C 65.556 56.753,64.682 57.305,59.833 57.529 C 55.089 57.748,54.017 58.199,53.415 60.224 C 53.101 61.282,53.042 84.094,53.349 85.761 C 54.036 89.491,56.554 91.429,60.583 91.332 C 64.700 91.233,64.792 91.238,65.290 91.606 C 67.028 92.891,67.238 97.752,65.621 99.286 C 64.236 100.600,59.364 101.545,55.942 101.162 C 49.763 100.471,46.316 98.257,44.062 93.529 C 42.034 89.275,42.148 90.364,42.023 74.162 L 41.917 60.407 41.491 59.580 C 40.918 58.468,40.017 57.930,38.000 57.496 C 34.938 56.838,34.250 55.891,34.250 52.338 C 34.250 48.871,34.846 48.133,38.104 47.567 C 41.700 46.942,42.340 46.062,43.242 40.500 C 44.129 35.036,44.381 34.260,45.619 33.170 C 46.705 32.215,48.697 31.891,50.378 32.397 M133.917 44.431 C 131.541 44.800,126.296 46.146,125.180 46.673 C 118.758 49.710,114.503 53.970,111.060 60.808 C 108.853 65.192,108.412 75.575,110.117 83.000 C 110.534 84.819,113.142 89.966,114.677 92.000 C 118.735 97.378,123.527 100.411,130.750 102.174 C 137.198 103.747,139.124 103.733,146.395 102.066 C 152.187 100.738,156.271 98.477,160.046 94.511 C 165.377 88.909,165.449 85.183,160.282 82.282 C 157.172 80.537,157.271 80.123,160.950 79.494 C 165.078 78.789,166.255 77.338,166.219 73.000 C 166.125 61.721,161.535 53.364,152.484 47.994 C 147.627 45.112,139.538 43.560,133.917 44.431 M196.583 44.281 C 189.200 45.238,183.529 47.741,179.105 51.995 C 173.218 57.655,170.607 64.162,170.611 73.167 C 170.613 79.335,170.910 80.962,172.865 85.500 C 177.332 95.868,184.692 101.289,196.727 103.076 C 200.463 103.631,202.975 103.359,209.917 101.650 C 214.271 100.578,219.638 97.219,222.430 93.818 C 227.251 87.946,227.140 85.232,221.955 82.203 C 218.861 80.395,218.928 80.114,222.605 79.491 C 227.687 78.631,228.949 76.567,228.172 70.392 C 226.792 59.431,221.808 51.987,212.534 47.036 C 209.119 45.213,200.664 43.753,196.583 44.281 M261.417 44.409 C 258.160 44.859,254.491 45.976,252.032 47.266 C 250.116 48.270,249.568 48.355,248.640 47.789 C 248.304 47.584,247.703 47.213,247.303 46.965 C 245.979 46.142,244.825 45.963,241.271 46.030 C 236.274 46.123,235.199 46.918,234.814 50.803 C 234.494 54.046,234.704 119.612,235.039 120.591 C 235.878 123.049,237.086 123.586,241.750 123.576 C 248.921 123.560,248.988 123.426,248.997 108.917 C 249.004 98.643,248.970 98.721,252.648 100.455 C 255.123 101.621,260.905 103.093,263.748 103.279 C 266.294 103.447,270.630 102.671,275.195 101.231 C 277.822 100.402,282.220 97.439,284.802 94.758 C 288.767 90.642,291.976 83.950,292.757 78.167 C 293.473 72.865,292.963 68.240,291.102 63.167 C 289.830 59.699,289.722 59.454,288.790 57.932 C 284.771 51.365,279.352 47.217,272.463 45.434 C 267.411 44.127,265.047 43.908,261.417 44.409 M95.667 45.747 C 93.914 46.007,93.234 46.191,91.340 46.923 C 89.479 47.642,88.861 47.644,87.035 46.939 C 85.002 46.154,84.121 46.000,81.700 46.003 C 77.363 46.009,75.450 46.910,74.713 49.292 C 74.246 50.802,74.256 96.559,74.723 98.083 C 75.469 100.517,77.116 101.250,81.833 101.250 C 85.946 101.250,87.291 100.722,88.273 98.720 L 88.750 97.750 88.852 84.917 C 88.961 71.255,88.990 70.733,89.841 67.167 C 91.165 61.623,94.665 58.719,99.378 59.254 C 99.766 59.298,101.021 59.446,102.167 59.584 C 107.347 60.205,108.590 59.025,108.577 53.500 C 108.566 48.863,107.699 47.181,104.810 46.187 C 102.782 45.490,98.719 45.294,95.667 45.747 M141.283 46.256 C 142.365 46.397,144.168 46.697,145.289 46.923 C 155.161 48.913,163.113 58.012,164.247 68.618 C 164.998 75.642,164.277 77.514,160.660 77.934 C 160.068 78.003,151.858 78.064,142.417 78.071 C 123.418 78.085,124.576 78.018,123.617 79.157 C 121.722 81.409,125.851 86.955,131.377 89.582 C 136.891 92.203,140.873 91.911,147.737 88.382 C 148.687 87.893,149.372 87.316,151.257 85.414 C 154.827 81.813,155.322 81.706,159.211 83.707 C 163.603 85.967,163.197 89.237,157.894 94.337 C 153.414 98.645,147.245 100.995,139.236 101.444 C 136.472 101.600,129.897 100.586,127.281 99.601 C 119.088 96.517,112.263 88.048,111.083 79.500 C 110.653 76.390,110.577 71.547,110.907 68.358 C 111.718 60.522,116.105 53.823,123.132 49.690 C 126.701 47.591,127.078 47.449,130.981 46.738 C 135.337 45.945,137.951 45.822,141.283 46.256 M204.417 46.411 C 207.310 46.929,209.759 47.539,210.750 47.988 C 220.631 52.467,226.325 61.446,226.400 72.667 C 226.420 75.653,226.062 76.531,224.491 77.336 C 223.170 78.014,222.434 78.041,204.500 78.062 C 185.306 78.086,186.407 78.020,185.416 79.198 C 183.762 81.164,187.573 86.868,191.971 89.007 C 197.677 91.783,201.019 92.014,206.064 89.983 C 209.760 88.495,211.125 87.552,213.554 84.807 C 215.623 82.468,216.963 82.109,219.784 83.139 C 224.160 84.736,225.164 87.066,222.916 90.412 C 216.555 99.882,204.586 103.489,190.667 100.132 C 186.189 99.052,181.005 95.271,177.460 90.500 C 175.685 88.111,175.048 86.810,173.052 81.508 C 171.848 78.308,171.745 69.159,172.871 65.500 C 175.109 58.233,179.378 52.810,185.708 49.192 C 188.536 47.575,190.769 46.931,196.196 46.168 C 197.732 45.951,202.668 46.097,204.417 46.411 M270.403 46.659 C 276.284 47.835,279.368 49.514,283.536 53.806 C 289.402 59.846,292.550 69.692,291.175 77.692 C 289.069 89.936,281.452 98.557,270.883 100.657 C 265.627 101.701,264.094 101.715,259.299 100.762 C 255.826 100.072,254.654 99.702,253.136 98.815 C 250.300 97.159,249.279 96.933,248.439 97.773 C 247.550 98.662,247.500 99.184,247.495 107.739 C 247.485 122.210,247.537 122.083,241.662 122.083 C 238.168 122.083,237.555 121.854,236.750 120.247 L 236.250 119.250 236.250 84.833 L 236.250 50.417 236.750 49.417 C 237.561 47.795,238.148 47.583,241.833 47.583 C 245.258 47.583,245.648 47.700,247.310 49.228 C 248.830 50.626,249.559 50.669,251.568 49.480 C 253.913 48.091,254.775 47.682,256.244 47.256 C 260.998 45.879,265.544 45.688,270.403 46.659 M101.995 47.176 C 105.644 47.633,106.734 49.068,106.737 53.417 C 106.740 57.608,105.555 58.525,101.115 57.768 C 95.065 56.737,90.613 59.425,88.665 65.287 C 87.215 69.648,87.300 68.626,87.170 83.333 C 87.042 97.820,87.062 97.557,85.963 98.621 C 83.927 100.591,77.818 100.143,76.775 97.947 C 76.177 96.686,76.158 95.843,76.204 73.065 C 76.255 48.348,76.187 49.965,77.216 48.861 C 78.842 47.118,83.099 47.008,86.333 48.625 C 88.560 49.739,89.365 49.728,91.917 48.554 C 94.972 47.149,98.227 46.703,101.995 47.176 M134.417 56.403 C 127.271 58.048,120.885 65.326,124.911 67.236 C 126.097 67.799,142.892 68.122,147.865 67.677 C 151.515 67.351,152.272 65.637,150.103 62.605 C 146.831 58.031,139.661 55.196,134.417 56.403 M196.108 56.429 C 188.948 58.027,182.693 65.491,187.040 67.249 C 189.117 68.090,210.235 68.076,211.674 67.233 C 215.278 65.123,210.526 59.223,203.210 56.723 C 201.564 56.161,197.974 56.012,196.108 56.429 M260.927 56.431 C 258.163 57.049,254.501 59.042,252.469 61.033 C 245.953 67.423,245.624 79.100,251.775 85.676 C 254.312 88.389,258.767 90.719,262.321 91.192 C 267.254 91.849,274.420 88.257,277.144 83.762 C 281.927 75.871,280.825 66.312,274.450 60.404 C 271.124 57.321,264.998 55.522,260.927 56.431 M139.833 58.090 C 145.775 59.474,150.889 64.112,148.132 65.617 C 147.237 66.106,127.514 66.076,126.701 65.585 C 125.579 64.906,125.827 63.709,127.446 61.994 C 130.343 58.922,135.894 57.173,139.833 58.090 M201.898 58.162 C 208.484 59.846,213.265 65.044,208.960 65.839 C 207.177 66.169,189.364 65.979,188.713 65.623 C 186.158 64.227,189.715 60.297,195.167 58.493 C 197.443 57.740,199.797 57.625,201.898 58.162 M266.917 58.298 C 273.291 60.331,276.463 63.756,278.177 70.457 C 279.635 76.157,276.336 84.350,271.500 87.044 C 265.895 90.166,262.471 90.285,256.918 87.552 C 248.598 83.456,246.312 71.240,252.411 63.469 C 255.703 59.274,262.443 56.872,266.917 58.298 M151.702 79.891 C 152.501 80.288,152.600 80.650,152.152 81.528 C 149.394 86.934,141.106 90.746,135.351 89.255 C 131.098 88.152,127.676 85.895,125.950 83.054 C 124.732 81.050,124.916 80.065,126.583 79.652 C 127.824 79.344,151.048 79.566,151.702 79.891 M212.594 79.679 C 214.767 80.074,214.800 80.466,212.873 82.995 C 210.511 86.095,209.173 87.038,204.985 88.556 C 200.998 90.000,199.059 89.987,195.038 88.487 C 192.012 87.359,191.174 86.864,189.570 85.262 C 186.845 82.539,186.412 80.287,188.500 79.695 C 189.332 79.460,211.304 79.445,212.594 79.679 " stroke="none" fill="#9c9c9c" fill-rule="evenodd"></path><path id="path4" d="M47.058 32.358 C 44.913 32.839,44.259 34.236,43.242 40.500 C 42.340 46.062,41.700 46.942,38.104 47.567 C 34.846 48.133,34.250 48.871,34.250 52.338 C 34.250 55.891,34.938 56.838,38.000 57.496 C 40.017 57.930,40.918 58.468,41.491 59.580 L 41.917 60.407 42.023 74.162 C 42.148 90.364,42.034 89.275,44.062 93.529 C 46.316 98.257,49.763 100.471,55.942 101.162 C 59.364 101.545,64.236 100.600,65.621 99.286 C 67.238 97.752,67.028 92.891,65.290 91.606 C 64.792 91.238,64.700 91.233,60.583 91.332 C 56.554 91.429,54.036 89.491,53.349 85.761 C 53.042 84.094,53.101 61.282,53.415 60.224 C 54.017 58.199,55.089 57.748,59.833 57.529 C 64.682 57.305,65.556 56.753,66.009 53.633 C 66.694 48.900,65.464 47.742,59.500 47.502 C 53.338 47.254,53.292 47.200,53.168 40.083 L 53.083 35.250 52.615 34.296 C 51.727 32.487,49.672 31.771,47.058 32.358 M49.697 34.195 C 51.365 34.695,51.667 35.748,51.667 41.065 C 51.667 48.174,52.243 48.781,59.333 49.135 C 63.542 49.345,64.636 50.182,64.230 52.878 C 63.886 55.163,62.976 55.618,58.334 55.822 C 53.497 56.035,52.116 57.087,51.648 60.919 C 51.281 63.916,51.548 85.366,51.971 86.902 C 53.193 91.343,55.946 93.028,61.890 92.974 C 64.541 92.950,65.230 93.593,65.133 96.000 C 65.032 98.540,63.715 99.207,58.333 99.442 C 50.831 99.770,46.809 97.086,44.506 90.213 C 43.737 87.916,43.673 86.615,43.670 73.300 C 43.667 60.385,43.644 59.949,42.904 58.479 C 42.170 57.022,41.093 56.321,38.469 55.593 C 36.659 55.091,35.881 53.917,36.040 51.929 C 36.188 50.085,36.713 49.631,39.419 48.999 C 43.287 48.098,44.295 46.454,45.153 39.654 C 45.792 34.589,46.834 33.338,49.697 34.195 M134.481 46.173 C 131.068 46.571,127.292 47.430,125.924 48.119 C 116.930 52.647,111.820 59.534,110.907 68.358 C 110.139 75.781,110.906 81.501,113.328 86.417 C 117.853 95.599,124.327 99.911,135.736 101.341 C 140.368 101.922,148.210 100.503,152.083 98.384 C 158.575 94.833,162.919 89.807,162.147 86.741 C 161.524 84.267,155.938 81.519,154.048 82.758 C 153.800 82.920,152.544 84.116,151.257 85.414 C 149.372 87.316,148.687 87.893,147.737 88.382 C 140.873 91.911,136.891 92.203,131.377 89.582 C 125.851 86.955,121.722 81.409,123.617 79.157 C 124.576 78.018,123.418 78.085,142.417 78.071 C 151.858 78.064,160.068 78.003,160.660 77.934 C 164.277 77.514,164.998 75.642,164.247 68.618 C 163.257 59.363,156.851 50.919,148.409 47.741 C 145.084 46.490,138.303 45.726,134.481 46.173 M196.196 46.168 C 190.769 46.931,188.536 47.575,185.708 49.192 C 179.378 52.810,175.109 58.233,172.871 65.500 C 171.745 69.159,171.848 78.308,173.052 81.508 C 175.048 86.810,175.685 88.111,177.460 90.500 C 181.005 95.271,186.189 99.052,190.667 100.132 C 201.959 102.855,212.280 100.967,218.962 94.953 C 225.400 89.160,225.669 85.287,219.784 83.139 C 216.963 82.109,215.623 82.468,213.554 84.807 C 211.125 87.552,209.760 88.495,206.064 89.983 C 201.019 92.014,197.677 91.783,191.971 89.007 C 187.573 86.868,183.762 81.164,185.416 79.198 C 186.407 78.020,185.306 78.086,204.500 78.062 C 225.465 78.037,224.802 78.111,226.106 75.667 C 226.854 74.263,226.091 66.574,224.821 62.723 C 222.526 55.762,214.803 48.663,207.833 47.107 C 203.509 46.142,198.979 45.776,196.196 46.168 M262.083 46.107 C 260.615 46.265,257.656 46.847,256.244 47.256 C 254.775 47.682,253.913 48.091,251.568 49.480 C 249.559 50.669,248.830 50.626,247.310 49.228 C 245.648 47.700,245.258 47.583,241.833 47.583 C 238.148 47.583,237.561 47.795,236.750 49.417 L 236.250 50.417 236.250 84.833 L 236.250 119.250 236.750 120.247 C 237.555 121.854,238.168 122.083,241.662 122.083 C 247.537 122.083,247.485 122.210,247.495 107.739 C 247.500 99.184,247.550 98.662,248.439 97.773 C 249.279 96.933,250.300 97.159,253.136 98.815 C 256.006 100.492,263.100 101.805,266.814 101.347 C 274.548 100.394,279.185 98.251,283.683 93.550 C 289.219 87.763,292.431 77.774,291.258 69.991 C 289.895 60.949,284.677 53.040,277.417 49.009 C 273.648 46.917,266.727 45.607,262.083 46.107 M96.711 47.172 C 94.849 47.368,93.903 47.641,91.917 48.554 C 89.365 49.728,88.560 49.739,86.333 48.625 C 83.099 47.008,78.842 47.118,77.216 48.861 C 76.187 49.965,76.255 48.348,76.204 73.065 C 76.158 95.843,76.177 96.686,76.775 97.947 C 77.818 100.143,83.927 100.591,85.963 98.621 C 87.062 97.557,87.042 97.820,87.170 83.333 C 87.300 68.626,87.215 69.648,88.665 65.287 C 90.613 59.425,95.065 56.737,101.115 57.768 C 105.555 58.525,106.740 57.608,106.737 53.417 C 106.733 47.881,104.313 46.373,96.711 47.172 M143.750 48.239 C 151.164 49.416,157.364 54.432,160.916 62.127 C 163.160 66.988,163.717 74.175,161.974 75.776 C 161.196 76.490,160.996 76.498,143.072 76.499 C 131.360 76.500,125.581 76.558,124.909 76.682 C 115.881 78.351,125.753 91.877,136.692 92.828 C 142.259 93.311,147.737 91.147,152.491 86.586 C 155.177 84.009,155.790 83.839,158.147 85.017 C 162.719 87.301,159.513 92.646,150.833 97.210 C 145.370 100.082,133.082 100.461,127.445 97.931 C 119.287 94.269,113.557 86.833,112.472 78.500 C 112.201 76.422,112.207 69.709,112.482 67.595 C 113.450 60.129,119.596 52.568,127.417 49.220 C 130.331 47.973,138.854 47.461,143.750 48.239 M205.917 48.317 C 214.934 49.915,222.662 57.779,224.097 66.816 C 224.888 71.798,224.850 74.423,223.973 75.422 C 222.994 76.537,223.657 76.499,204.928 76.505 C 187.455 76.510,186.145 76.556,184.847 77.208 C 179.902 79.692,186.104 89.054,194.667 92.031 C 201.049 94.251,209.137 91.998,214.045 86.634 C 216.397 84.064,218.379 83.719,220.876 85.447 C 224.117 87.690,220.344 93.133,212.833 97.049 C 207.701 99.724,200.075 100.359,191.750 98.804 C 189.013 98.293,184.829 95.889,181.978 93.191 C 179.366 90.719,177.189 87.704,176.342 85.386 C 176.080 84.669,175.489 83.140,175.029 81.988 C 173.556 78.298,173.063 72.273,173.892 68.083 C 174.212 66.465,176.360 60.816,177.110 59.620 C 180.233 54.639,186.195 49.846,190.615 48.763 C 194.611 47.784,201.735 47.576,205.917 48.317 M269.476 48.162 C 277.069 49.279,283.213 53.840,286.772 61.000 C 288.126 63.725,289.998 71.082,289.999 73.687 C 290.001 75.812,288.211 83.217,287.074 85.786 C 283.961 92.826,277.340 98.018,269.974 99.197 C 263.397 100.249,257.316 99.390,252.860 96.778 C 249.740 94.951,248.568 94.732,247.472 95.773 C 246.080 97.094,246.001 97.711,245.993 107.300 C 245.982 118.957,245.892 119.632,244.266 120.253 C 243.151 120.679,239.539 120.553,238.887 120.066 C 237.636 119.132,237.750 122.669,237.750 84.833 C 237.750 51.383,237.753 51.078,238.083 50.517 C 238.748 49.389,239.102 49.256,241.608 49.195 C 244.366 49.128,245.145 49.409,246.336 50.902 C 247.925 52.893,249.043 52.981,251.713 51.325 C 255.632 48.896,256.901 48.445,261.250 47.941 C 262.976 47.741,267.426 47.861,269.476 48.162 M102.500 48.847 C 104.053 49.244,104.795 50.314,104.951 52.388 C 105.209 55.794,104.265 56.553,100.583 55.900 C 95.087 54.925,89.562 58.354,87.333 64.124 C 85.466 68.958,85.477 68.847,85.354 83.583 L 85.250 96.083 84.865 96.804 C 83.939 98.539,79.988 98.725,78.705 97.094 C 78.000 96.198,77.991 95.857,78.038 73.164 L 78.083 51.417 78.500 50.681 C 79.533 48.855,82.894 48.603,85.317 50.169 C 87.902 51.840,88.986 51.827,92.500 50.083 C 95.416 48.636,99.632 48.115,102.500 48.847 M133.583 54.903 C 124.636 56.931,118.186 66.707,124.167 69.176 C 125.159 69.586,149.957 69.530,151.031 69.115 C 156.576 66.976,150.773 57.921,142.083 55.153 C 140.602 54.681,135.255 54.524,133.583 54.903 M195.167 54.931 C 188.188 56.415,181.237 64.814,184.302 68.057 C 185.659 69.492,186.011 69.524,199.917 69.466 C 212.961 69.412,212.408 69.456,213.557 68.366 C 217.034 65.066,212.925 59.011,204.845 55.527 C 202.849 54.666,197.856 54.358,195.167 54.931 M259.843 54.987 C 253.255 56.650,246.975 63.272,246.157 69.417 C 245.876 71.528,246.037 78.071,246.403 79.417 C 248.074 85.558,254.312 91.268,260.824 92.615 C 266.683 93.826,274.546 90.435,278.189 85.125 C 282.216 79.254,282.921 71.906,280.048 65.764 C 277.398 60.099,273.796 56.859,268.167 55.076 C 266.732 54.622,261.510 54.566,259.843 54.987 M141.250 56.665 C 148.420 58.957,153.689 65.167,150.150 67.156 C 148.483 68.093,126.862 68.162,124.911 67.236 C 120.885 65.326,127.271 58.048,134.417 56.403 C 135.977 56.044,139.762 56.189,141.250 56.665 M203.210 56.723 C 210.526 59.223,215.278 65.123,211.674 67.233 C 210.235 68.076,189.117 68.090,187.040 67.249 C 182.693 65.491,188.948 58.027,196.108 56.429 C 197.974 56.012,201.564 56.161,203.210 56.723 M267.250 56.581 C 278.883 59.751,283.691 72.960,277.144 83.762 C 275.376 86.679,271.784 89.215,267.261 90.740 C 259.833 93.243,249.454 86.533,247.759 78.132 C 247.410 76.402,247.405 70.896,247.751 69.250 C 249.514 60.863,259.398 54.441,267.250 56.581 " stroke="none" fill="#747474" fill-rule="evenodd"></path></g></svg>